SplineFontDB: 3.2
FontName: ComicRecidivistMono
FullName: Comic Recidivist Mono
FamilyName: Comic Recidivist Mono
Weight: Regular
Copyright: MIT License\n\nCopyright (c) 2023 Coltrane\nCopyright (c) 2018 Shannon Miwa\n\nPermission is hereby granted, free of charge, to any person obtaining a copy of this software and associated documentation files (the "Software"), to deal in the Software without restriction, including without limitation the rights to use, copy, modify, merge, publish, distribute, sublicense, and/or sell copies of the Software, and to permit persons to whom the Software is furnished to do so, subject to the following conditions:\n\nThe above copyright notice and this permission notice shall be included in all copies or substantial portions of the Software.\n\nTHE SOFTWARE IS PROVIDED "AS IS", WITHOUT WARRANTY OF ANY KIND, EXPRESS OR IMPLIED, INCLUDING BUT NOT LIMITED TO THE WARRANTIES OF MERCHANTABILITY, FITNESS FOR A PARTICULAR PURPOSE AND NONINFRINGEMENT. IN NO EVENT SHALL THE AUTHORS OR COPYRIGHT HOLDERS BE LIABLE FOR ANY CLAIM, DAMAGES OR OTHER LIABILITY, WHETHER IN AN ACTION OF CONTRACT, TORT OR OTHERWISE, ARISING FROM, OUT OF OR IN CONNECTION WITH THE SOFTWARE OR THE USE OR OTHER DEALINGS IN THE SOFTWARE.
UComments: "This font is a derivative of Comic Shanns by Shannon Miwa and is visually based on Comic Sans by Vincent Connare"
Version: 1.0
ItalicAngle: 0
UnderlinePosition: 0
UnderlineWidth: 0
Ascent: 750
Descent: 250
InvalidEm: 0
sfntRevision: 0x00000000
LayerCount: 2
Layer: 0 1 "Back" 1
Layer: 1 1 "Fore" 0
XUID: [1021 449 -1250868860 5576]
StyleMap: 0x0040
FSType: 4
OS2Version: 3
OS2_WeightWidthSlopeOnly: 0
OS2_UseTypoMetrics: 0
CreationTime: 1608751085
ModificationTime: 1708902746
PfmFamily: 81
TTFWeight: 400
TTFWidth: 5
LineGap: 200
VLineGap: 0
Panose: 0 0 0 0 0 0 0 0 0 0
OS2TypoAscent: 750
OS2TypoAOffset: 0
OS2TypoDescent: -250
OS2TypoDOffset: 0
OS2TypoLinegap: 200
OS2WinAscent: 1167
OS2WinAOffset: 0
OS2WinDescent: 564
OS2WinDOffset: 0

StartChar: .notdef
Encoding: 65536 -1 0
Width: 550
GlyphClass: 1
Flags: W
LayerCount: 2
Fore
SplineSet
75 -250 m 5,0,-1
 75 700 l 5,1,-1
 475 700 l 5,2,-1
 475 -250 l 5,3,-1
 75 -250 l 5,0,-1
125 -200 m 5,4,-1
 425 -200 l 5,5,-1
 425 650 l 5,6,-1
 125 650 l 5,7,-1
 125 -200 l 5,4,-1
EndSplineSet
EndChar

StartChar: A
Encoding: 65 65 1
Width: 550
GlyphClass: 1
Flags: W
LayerCount: 2
Fore
SplineSet
503 -2 m 4,0,1
 487 -9 487 -9 469 -1 c 132,-1,2
 451 7 451 7 439 38 c 4,3,4
 432 57 432 57 419.5 110.5 c 132,-1,5
 407 164 407 164 392 235 c 5,6,7
 374 234 374 234 349 232.5 c 132,-1,8
 324 231 324 231 295.5 228.5 c 132,-1,9
 267 226 267 226 236.5 222.5 c 132,-1,10
 206 219 206 219 178 215 c 5,11,12
 156 153 156 153 139.5 104.5 c 132,-1,13
 123 56 123 56 117 38 c 4,14,15
 107 7 107 7 89.5 -1 c 132,-1,16
 72 -9 72 -9 56 -2 c 4,17,18
 41 5 41 5 35 22.5 c 132,-1,19
 29 40 29 40 36 69 c 4,20,21
 39 84 39 84 53.5 123.5 c 132,-1,22
 68 163 68 163 90 215 c 5,23,24
 82 220 82 220 77.5 227.5 c 132,-1,25
 73 235 73 235 73 242 c 4,26,27
 72 255 72 255 85.5 267 c 132,-1,28
 99 279 99 279 118 285 c 5,29,30
 139 335 139 335 163 387.5 c 132,-1,31
 187 440 187 440 210 487.5 c 132,-1,32
 233 535 233 535 255 575.5 c 132,-1,33
 277 616 277 616 295 642 c 4,34,35
 308 660 308 660 319 669 c 132,-1,36
 330 678 330 678 343 678 c 4,37,38
 359 679 359 679 374 671.5 c 132,-1,39
 389 664 389 664 393 642 c 4,40,41
 401 595 401 595 418.5 505.5 c 132,-1,42
 436 416 436 416 456 325.5 c 132,-1,43
 476 235 476 235 494.5 161 c 132,-1,44
 513 87 513 87 523 69 c 4,45,46
 537 43 537 43 527.5 24 c 132,-1,47
 518 5 518 5 503 -2 c 4,0,1
325 563 m 5,48,49
 313 545 313 545 299 516 c 132,-1,50
 285 487 285 487 269.5 452 c 132,-1,51
 254 417 254 417 238.5 377 c 132,-1,52
 223 337 223 337 208 297 c 5,53,54
 259 303 259 303 302.5 306 c 132,-1,55
 346 309 346 309 377 310 c 5,56,57
 364 374 364 374 350.5 440 c 132,-1,58
 337 506 337 506 325 563 c 5,48,49
EndSplineSet
Validated: 33
EndChar

StartChar: Agrave
Encoding: 192 192 2
Width: 550
GlyphClass: 1
Flags: W
LayerCount: 2
Fore
SplineSet
304 761 m 4,0,1
 277 788 277 788 237.5 830 c 132,-1,2
 198 872 198 872 168 912 c 4,3,4
 155 929 155 929 157 949 c 132,-1,5
 159 969 159 969 168 979 c 4,6,7
 181 989 181 989 203 988 c 132,-1,8
 225 987 225 987 238 971 c 4,9,10
 264 935 264 935 295 891 c 132,-1,11
 326 847 326 847 359 817 c 4,12,13
 377 800 377 800 380.5 779.5 c 132,-1,14
 384 759 384 759 373 749 c 4,15,16
 363 739 363 739 343 740.5 c 132,-1,17
 323 742 323 742 304 761 c 4,0,1
503 -2 m 0,18,19
 487 -9 487 -9 469 -1 c 128,-1,20
 451 7 451 7 439 38 c 0,21,22
 432 57 432 57 419.5 110.5 c 128,-1,23
 407 164 407 164 392 235 c 1,24,25
 374 234 374 234 349 232.5 c 128,-1,26
 324 231 324 231 295.5 228.5 c 128,-1,27
 267 226 267 226 236.5 222.5 c 128,-1,28
 206 219 206 219 178 215 c 1,29,30
 156 153 156 153 139.5 104.5 c 128,-1,31
 123 56 123 56 117 38 c 0,32,33
 107 7 107 7 89.5 -1 c 128,-1,34
 72 -9 72 -9 56 -2 c 0,35,36
 41 5 41 5 35 22.5 c 128,-1,37
 29 40 29 40 36 69 c 0,38,39
 39 84 39 84 53.5 123.5 c 128,-1,40
 68 163 68 163 90 215 c 1,41,42
 82 220 82 220 77.5 227.5 c 128,-1,43
 73 235 73 235 73 242 c 0,44,45
 72 255 72 255 85.5 267 c 128,-1,46
 99 279 99 279 118 285 c 1,47,48
 139 335 139 335 163 387.5 c 128,-1,49
 187 440 187 440 210 487.5 c 128,-1,50
 233 535 233 535 255 575.5 c 128,-1,51
 277 616 277 616 295 642 c 0,52,53
 308 660 308 660 319 669 c 128,-1,54
 330 678 330 678 343 678 c 0,55,56
 359 679 359 679 374 671.5 c 128,-1,57
 389 664 389 664 393 642 c 0,58,59
 401 595 401 595 418.5 505.5 c 128,-1,60
 436 416 436 416 456 325.5 c 128,-1,61
 476 235 476 235 494.5 161 c 128,-1,62
 513 87 513 87 523 69 c 0,63,64
 537 43 537 43 527.5 24 c 128,-1,65
 518 5 518 5 503 -2 c 0,18,19
325 563 m 1,66,67
 313 545 313 545 299 516 c 128,-1,68
 285 487 285 487 269.5 452 c 128,-1,69
 254 417 254 417 238.5 377 c 128,-1,70
 223 337 223 337 208 297 c 1,71,72
 259 303 259 303 302.5 306 c 128,-1,73
 346 309 346 309 377 310 c 1,74,75
 364 374 364 374 350.5 440 c 128,-1,76
 337 506 337 506 325 563 c 1,66,67
EndSplineSet
Validated: 33
EndChar

StartChar: Aacute
Encoding: 193 193 3
Width: 550
GlyphClass: 1
Flags: W
LayerCount: 2
Fore
SplineSet
519 912 m 4,0,1
 489 872 489 872 449.5 830 c 132,-1,2
 410 788 410 788 383 761 c 4,3,4
 364 742 364 742 344 740.5 c 132,-1,5
 324 739 324 739 314 749 c 4,6,7
 303 759 303 759 306.5 779.5 c 132,-1,8
 310 800 310 800 328 817 c 4,9,10
 361 847 361 847 392 891 c 132,-1,11
 423 935 423 935 449 971 c 4,12,13
 462 987 462 987 484 988 c 132,-1,14
 506 989 506 989 519 979 c 4,15,16
 528 969 528 969 530 949 c 132,-1,17
 532 929 532 929 519 912 c 4,0,1
503 -2 m 0,18,19
 487 -9 487 -9 469 -1 c 128,-1,20
 451 7 451 7 439 38 c 0,21,22
 432 57 432 57 419.5 110.5 c 128,-1,23
 407 164 407 164 392 235 c 1,24,25
 374 234 374 234 349 232.5 c 128,-1,26
 324 231 324 231 295.5 228.5 c 128,-1,27
 267 226 267 226 236.5 222.5 c 128,-1,28
 206 219 206 219 178 215 c 1,29,30
 156 153 156 153 139.5 104.5 c 128,-1,31
 123 56 123 56 117 38 c 0,32,33
 107 7 107 7 89.5 -1 c 128,-1,34
 72 -9 72 -9 56 -2 c 0,35,36
 41 5 41 5 35 22.5 c 128,-1,37
 29 40 29 40 36 69 c 0,38,39
 39 84 39 84 53.5 123.5 c 128,-1,40
 68 163 68 163 90 215 c 1,41,42
 82 220 82 220 77.5 227.5 c 128,-1,43
 73 235 73 235 73 242 c 0,44,45
 72 255 72 255 85.5 267 c 128,-1,46
 99 279 99 279 118 285 c 1,47,48
 139 335 139 335 163 387.5 c 128,-1,49
 187 440 187 440 210 487.5 c 128,-1,50
 233 535 233 535 255 575.5 c 128,-1,51
 277 616 277 616 295 642 c 0,52,53
 308 660 308 660 319 669 c 128,-1,54
 330 678 330 678 343 678 c 0,55,56
 359 679 359 679 374 671.5 c 128,-1,57
 389 664 389 664 393 642 c 0,58,59
 401 595 401 595 418.5 505.5 c 128,-1,60
 436 416 436 416 456 325.5 c 128,-1,61
 476 235 476 235 494.5 161 c 128,-1,62
 513 87 513 87 523 69 c 0,63,64
 537 43 537 43 527.5 24 c 128,-1,65
 518 5 518 5 503 -2 c 0,18,19
325 563 m 1,66,67
 313 545 313 545 299 516 c 128,-1,68
 285 487 285 487 269.5 452 c 128,-1,69
 254 417 254 417 238.5 377 c 128,-1,70
 223 337 223 337 208 297 c 1,71,72
 259 303 259 303 302.5 306 c 128,-1,73
 346 309 346 309 377 310 c 1,74,75
 364 374 364 374 350.5 440 c 128,-1,76
 337 506 337 506 325 563 c 1,66,67
EndSplineSet
Validated: 33
EndChar

StartChar: Acircumflex
Encoding: 194 194 4
Width: 550
GlyphClass: 1
Flags: W
LayerCount: 2
Fore
SplineSet
486 744 m 4,0,1
 481 745 481 745 466 771 c 132,-1,2
 451 797 451 797 430 832 c 132,-1,3
 409 867 409 867 385 906 c 132,-1,4
 361 945 361 945 338 971 c 5,5,6
 317 946 317 946 293.5 907.5 c 132,-1,7
 270 869 270 869 248.5 833.5 c 132,-1,8
 227 798 227 798 210 772 c 132,-1,9
 193 746 193 746 187 744 c 4,10,11
 163 738 163 738 148.5 742.5 c 132,-1,12
 134 747 134 747 127 760 c 4,13,14
 119 772 119 772 123.5 786 c 132,-1,15
 128 800 128 800 142 820 c 4,16,17
 154 837 154 837 176.5 869.5 c 132,-1,18
 199 902 199 902 223.5 937.5 c 132,-1,19
 248 973 248 973 270.5 1006 c 132,-1,20
 293 1039 293 1039 306 1058 c 4,21,22
 310 1065 310 1065 319 1066 c 132,-1,23
 328 1067 328 1067 336 1067 c 4,24,25
 343 1067 343 1067 351 1065.5 c 132,-1,26
 359 1064 359 1064 364 1058 c 4,27,28
 377 1041 377 1041 398 1009.5 c 132,-1,29
 419 978 419 978 441 943.5 c 132,-1,30
 463 909 463 909 483 876.5 c 132,-1,31
 503 844 503 844 515 826 c 4,32,33
 529 805 529 805 542.5 787 c 132,-1,34
 556 769 556 769 548 757 c 4,35,36
 541 744 541 744 526 741.5 c 132,-1,37
 511 739 511 739 486 744 c 4,0,1
503 -2 m 0,38,39
 487 -9 487 -9 469 -1 c 128,-1,40
 451 7 451 7 439 38 c 0,41,42
 432 57 432 57 419.5 110.5 c 128,-1,43
 407 164 407 164 392 235 c 1,44,45
 374 234 374 234 349 232.5 c 128,-1,46
 324 231 324 231 295.5 228.5 c 128,-1,47
 267 226 267 226 236.5 222.5 c 128,-1,48
 206 219 206 219 178 215 c 1,49,50
 156 153 156 153 139.5 104.5 c 128,-1,51
 123 56 123 56 117 38 c 0,52,53
 107 7 107 7 89.5 -1 c 128,-1,54
 72 -9 72 -9 56 -2 c 0,55,56
 41 5 41 5 35 22.5 c 128,-1,57
 29 40 29 40 36 69 c 0,58,59
 39 84 39 84 53.5 123.5 c 128,-1,60
 68 163 68 163 90 215 c 1,61,62
 82 220 82 220 77.5 227.5 c 128,-1,63
 73 235 73 235 73 242 c 0,64,65
 72 255 72 255 85.5 267 c 128,-1,66
 99 279 99 279 118 285 c 1,67,68
 139 335 139 335 163 387.5 c 128,-1,69
 187 440 187 440 210 487.5 c 128,-1,70
 233 535 233 535 255 575.5 c 128,-1,71
 277 616 277 616 295 642 c 0,72,73
 308 660 308 660 319 669 c 128,-1,74
 330 678 330 678 343 678 c 0,75,76
 359 679 359 679 374 671.5 c 128,-1,77
 389 664 389 664 393 642 c 0,78,79
 401 595 401 595 418.5 505.5 c 128,-1,80
 436 416 436 416 456 325.5 c 128,-1,81
 476 235 476 235 494.5 161 c 128,-1,82
 513 87 513 87 523 69 c 0,83,84
 537 43 537 43 527.5 24 c 128,-1,85
 518 5 518 5 503 -2 c 0,38,39
325 563 m 1,86,87
 313 545 313 545 299 516 c 128,-1,88
 285 487 285 487 269.5 452 c 128,-1,89
 254 417 254 417 238.5 377 c 128,-1,90
 223 337 223 337 208 297 c 1,91,92
 259 303 259 303 302.5 306 c 128,-1,93
 346 309 346 309 377 310 c 1,94,95
 364 374 364 374 350.5 440 c 128,-1,96
 337 506 337 506 325 563 c 1,86,87
EndSplineSet
Validated: 33
EndChar

StartChar: Atilde
Encoding: 195 195 5
Width: 550
GlyphClass: 1
Flags: W
LayerCount: 2
Fore
SplineSet
501 888 m 4,0,1
 514 884 514 884 515.5 866.5 c 132,-1,2
 517 849 517 849 510 833 c 4,3,4
 483 783 483 783 455.5 761.5 c 132,-1,5
 428 740 428 740 403 740 c 4,6,7
 372 740 372 740 353 754.5 c 132,-1,8
 334 769 334 769 317 792 c 4,9,10
 304 810 304 810 295.5 817 c 132,-1,11
 287 824 287 824 271 824 c 4,12,13
 253 824 253 824 246 812 c 132,-1,14
 239 800 239 800 221 768 c 4,15,16
 215 758 215 758 200 755 c 132,-1,17
 185 752 185 752 174 754 c 4,18,19
 167 755 167 755 161 763.5 c 132,-1,20
 155 772 155 772 158 783 c 4,21,22
 177 837 177 837 205.5 871 c 132,-1,23
 234 905 234 905 262 905 c 4,24,25
 289 905 289 905 308 899 c 132,-1,26
 327 893 327 893 348 862 c 4,27,28
 360 845 360 845 369.5 833 c 132,-1,29
 379 821 379 821 395 821 c 260,30,31
 411 821 411 821 421.5 825 c 132,-1,32
 432 829 432 829 451 862 c 4,33,34
 457 873 457 873 470 883.5 c 132,-1,35
 483 894 483 894 501 888 c 4,0,1
503 -2 m 0,36,37
 487 -9 487 -9 469 -1 c 128,-1,38
 451 7 451 7 439 38 c 0,39,40
 432 57 432 57 419.5 110.5 c 128,-1,41
 407 164 407 164 392 235 c 1,42,43
 374 234 374 234 349 232.5 c 128,-1,44
 324 231 324 231 295.5 228.5 c 128,-1,45
 267 226 267 226 236.5 222.5 c 128,-1,46
 206 219 206 219 178 215 c 1,47,48
 156 153 156 153 139.5 104.5 c 128,-1,49
 123 56 123 56 117 38 c 0,50,51
 107 7 107 7 89.5 -1 c 128,-1,52
 72 -9 72 -9 56 -2 c 0,53,54
 41 5 41 5 35 22.5 c 128,-1,55
 29 40 29 40 36 69 c 0,56,57
 39 84 39 84 53.5 123.5 c 128,-1,58
 68 163 68 163 90 215 c 1,59,60
 82 220 82 220 77.5 227.5 c 128,-1,61
 73 235 73 235 73 242 c 0,62,63
 72 255 72 255 85.5 267 c 128,-1,64
 99 279 99 279 118 285 c 1,65,66
 139 335 139 335 163 387.5 c 128,-1,67
 187 440 187 440 210 487.5 c 128,-1,68
 233 535 233 535 255 575.5 c 128,-1,69
 277 616 277 616 295 642 c 0,70,71
 308 660 308 660 319 669 c 128,-1,72
 330 678 330 678 343 678 c 0,73,74
 359 679 359 679 374 671.5 c 128,-1,75
 389 664 389 664 393 642 c 0,76,77
 401 595 401 595 418.5 505.5 c 128,-1,78
 436 416 436 416 456 325.5 c 128,-1,79
 476 235 476 235 494.5 161 c 128,-1,80
 513 87 513 87 523 69 c 0,81,82
 537 43 537 43 527.5 24 c 128,-1,83
 518 5 518 5 503 -2 c 0,36,37
325 563 m 1,84,85
 313 545 313 545 299 516 c 128,-1,86
 285 487 285 487 269.5 452 c 128,-1,87
 254 417 254 417 238.5 377 c 128,-1,88
 223 337 223 337 208 297 c 1,89,90
 259 303 259 303 302.5 306 c 128,-1,91
 346 309 346 309 377 310 c 1,92,93
 364 374 364 374 350.5 440 c 128,-1,94
 337 506 337 506 325 563 c 1,84,85
EndSplineSet
Validated: 33
EndChar

StartChar: Adieresis
Encoding: 196 196 6
Width: 550
GlyphClass: 1
Flags: W
LayerCount: 2
Fore
SplineSet
436 740 m 4,0,1
 408 737 408 737 391.5 756.5 c 132,-1,2
 375 776 375 776 375 801 c 4,3,4
 375 825 375 825 394 842 c 132,-1,5
 413 859 413 859 436 860 c 4,6,7
 462 861 462 861 477.5 843.5 c 132,-1,8
 493 826 493 826 493 801 c 4,9,10
 493 777 493 777 477.5 760 c 132,-1,11
 462 743 462 743 436 740 c 4,0,1
259 740 m 4,12,13
 231 737 231 737 215 756.5 c 132,-1,14
 199 776 199 776 199 801 c 4,15,16
 199 825 199 825 218 842 c 132,-1,17
 237 859 237 859 259 860 c 4,18,19
 286 861 286 861 301.5 843.5 c 132,-1,20
 317 826 317 826 317 801 c 4,21,22
 317 778 317 778 301.5 760.5 c 132,-1,23
 286 743 286 743 259 740 c 4,12,13
503 -2 m 0,24,25
 487 -9 487 -9 469 -1 c 128,-1,26
 451 7 451 7 439 38 c 0,27,28
 432 57 432 57 419.5 110.5 c 128,-1,29
 407 164 407 164 392 235 c 1,30,31
 374 234 374 234 349 232.5 c 128,-1,32
 324 231 324 231 295.5 228.5 c 128,-1,33
 267 226 267 226 236.5 222.5 c 128,-1,34
 206 219 206 219 178 215 c 1,35,36
 156 153 156 153 139.5 104.5 c 128,-1,37
 123 56 123 56 117 38 c 0,38,39
 107 7 107 7 89.5 -1 c 128,-1,40
 72 -9 72 -9 56 -2 c 0,41,42
 41 5 41 5 35 22.5 c 128,-1,43
 29 40 29 40 36 69 c 0,44,45
 39 84 39 84 53.5 123.5 c 128,-1,46
 68 163 68 163 90 215 c 1,47,48
 82 220 82 220 77.5 227.5 c 128,-1,49
 73 235 73 235 73 242 c 0,50,51
 72 255 72 255 85.5 267 c 128,-1,52
 99 279 99 279 118 285 c 1,53,54
 139 335 139 335 163 387.5 c 128,-1,55
 187 440 187 440 210 487.5 c 128,-1,56
 233 535 233 535 255 575.5 c 128,-1,57
 277 616 277 616 295 642 c 0,58,59
 308 660 308 660 319 669 c 128,-1,60
 330 678 330 678 343 678 c 0,61,62
 359 679 359 679 374 671.5 c 128,-1,63
 389 664 389 664 393 642 c 0,64,65
 401 595 401 595 418.5 505.5 c 128,-1,66
 436 416 436 416 456 325.5 c 128,-1,67
 476 235 476 235 494.5 161 c 128,-1,68
 513 87 513 87 523 69 c 0,69,70
 537 43 537 43 527.5 24 c 128,-1,71
 518 5 518 5 503 -2 c 0,24,25
325 563 m 1,72,73
 313 545 313 545 299 516 c 128,-1,74
 285 487 285 487 269.5 452 c 128,-1,75
 254 417 254 417 238.5 377 c 128,-1,76
 223 337 223 337 208 297 c 1,77,78
 259 303 259 303 302.5 306 c 128,-1,79
 346 309 346 309 377 310 c 1,80,81
 364 374 364 374 350.5 440 c 128,-1,82
 337 506 337 506 325 563 c 1,72,73
EndSplineSet
Validated: 33
EndChar

StartChar: Aring
Encoding: 197 197 7
Width: 550
GlyphClass: 1
Flags: W
LayerCount: 2
Fore
SplineSet
337 740 m 4,0,1
 288 740 288 740 261 768 c 132,-1,2
 234 796 234 796 234 838 c 4,3,4
 234 854 234 854 239 871.5 c 132,-1,5
 244 889 244 889 257.5 904 c 132,-1,6
 271 919 271 919 293.5 929 c 132,-1,7
 316 939 316 939 350 939 c 4,8,9
 409 939 409 939 427 906.5 c 132,-1,10
 445 874 445 874 445 827 c 4,11,12
 445 796 445 796 412 768 c 132,-1,13
 379 740 379 740 337 740 c 4,0,1
344 791 m 4,14,15
 360 791 360 791 374.5 805.5 c 132,-1,16
 389 820 389 820 389 836 c 4,17,18
 389 847 389 847 381 868.5 c 132,-1,19
 373 890 373 890 346 890 c 4,20,21
 321 890 321 890 308.5 873.5 c 132,-1,22
 296 857 296 857 297 837 c 4,23,24
 298 820 298 820 309 805.5 c 132,-1,25
 320 791 320 791 344 791 c 4,14,15
503 -2 m 0,26,27
 487 -9 487 -9 469 -1 c 128,-1,28
 451 7 451 7 439 38 c 0,29,30
 432 57 432 57 419.5 110.5 c 128,-1,31
 407 164 407 164 392 235 c 1,32,33
 374 234 374 234 349 232.5 c 128,-1,34
 324 231 324 231 295.5 228.5 c 128,-1,35
 267 226 267 226 236.5 222.5 c 128,-1,36
 206 219 206 219 178 215 c 1,37,38
 156 153 156 153 139.5 104.5 c 128,-1,39
 123 56 123 56 117 38 c 0,40,41
 107 7 107 7 89.5 -1 c 128,-1,42
 72 -9 72 -9 56 -2 c 0,43,44
 41 5 41 5 35 22.5 c 128,-1,45
 29 40 29 40 36 69 c 0,46,47
 39 84 39 84 53.5 123.5 c 128,-1,48
 68 163 68 163 90 215 c 1,49,50
 82 220 82 220 77.5 227.5 c 128,-1,51
 73 235 73 235 73 242 c 0,52,53
 72 255 72 255 85.5 267 c 128,-1,54
 99 279 99 279 118 285 c 1,55,56
 139 335 139 335 163 387.5 c 128,-1,57
 187 440 187 440 210 487.5 c 128,-1,58
 233 535 233 535 255 575.5 c 128,-1,59
 277 616 277 616 295 642 c 0,60,61
 308 660 308 660 319 669 c 128,-1,62
 330 678 330 678 343 678 c 0,63,64
 359 679 359 679 374 671.5 c 128,-1,65
 389 664 389 664 393 642 c 0,66,67
 401 595 401 595 418.5 505.5 c 128,-1,68
 436 416 436 416 456 325.5 c 128,-1,69
 476 235 476 235 494.5 161 c 128,-1,70
 513 87 513 87 523 69 c 0,71,72
 537 43 537 43 527.5 24 c 128,-1,73
 518 5 518 5 503 -2 c 0,26,27
325 563 m 1,74,75
 313 545 313 545 299 516 c 128,-1,76
 285 487 285 487 269.5 452 c 128,-1,77
 254 417 254 417 238.5 377 c 128,-1,78
 223 337 223 337 208 297 c 1,79,80
 259 303 259 303 302.5 306 c 128,-1,81
 346 309 346 309 377 310 c 1,82,83
 364 374 364 374 350.5 440 c 128,-1,84
 337 506 337 506 325 563 c 1,74,75
EndSplineSet
Validated: 33
EndChar

StartChar: B
Encoding: 66 66 8
Width: 550
GlyphClass: 1
Flags: W
LayerCount: 2
Fore
SplineSet
219 -13 m 4,0,1
 171 -17 171 -17 139 -20.5 c 132,-1,2
 107 -24 107 -24 87 -20 c 5,3,-1
 84 -20 l 6,4,5
 67 -20 67 -20 54 -8 c 132,-1,6
 41 4 41 4 43 28 c 4,7,8
 44 47 44 47 44.5 86.5 c 132,-1,9
 45 126 45 126 44.5 177 c 132,-1,10
 44 228 44 228 42.5 287.5 c 132,-1,11
 41 347 41 347 39 405 c 4,12,13
 38 444 38 444 37.5 471.5 c 132,-1,14
 37 499 37 499 38 520.5 c 132,-1,15
 39 542 39 542 40 560 c 132,-1,16
 41 578 41 578 41 597 c 4,17,18
 42 624 42 624 56 636 c 132,-1,19
 70 648 70 648 87 648 c 6,20,-1
 91 648 l 5,21,22
 114 655 114 655 138 658.5 c 132,-1,23
 162 662 162 662 181.5 663 c 132,-1,24
 201 664 201 664 215.5 663.5 c 132,-1,25
 230 663 230 663 235 663 c 4,26,27
 330 663 330 663 392.5 610.5 c 132,-1,28
 455 558 455 558 456 469 c 4,29,30
 457 413 457 413 430.5 374.5 c 132,-1,31
 404 336 404 336 362 319 c 5,32,33
 385 311 385 311 409 297.5 c 132,-1,34
 433 284 433 284 452 267 c 132,-1,35
 471 250 471 250 483 232 c 132,-1,36
 495 214 495 214 495 197 c 4,37,38
 496 162 496 162 477.5 127 c 132,-1,39
 459 92 459 92 424 63 c 132,-1,40
 389 34 389 34 337 13.5 c 132,-1,41
 285 -7 285 -7 219 -13 c 4,0,1
233 589 m 4,42,43
 216 589 216 589 190.5 586.5 c 132,-1,44
 165 584 165 584 135 577 c 5,45,46
 134 536 134 536 131.5 480.5 c 132,-1,47
 129 425 129 425 130 347 c 5,48,49
 146 346 146 346 166.5 345.5 c 132,-1,50
 187 345 187 345 213 345 c 4,51,52
 264 345 264 345 295 358 c 132,-1,53
 326 371 326 371 342.5 390.5 c 132,-1,54
 359 410 359 410 364.5 432.5 c 132,-1,55
 370 455 370 455 370 474 c 4,56,57
 370 506 370 506 355.5 528 c 132,-1,58
 341 550 341 550 320.5 563.5 c 132,-1,59
 300 577 300 577 276 583 c 132,-1,60
 252 589 252 589 233 589 c 4,42,43
221 278 m 5,61,62
 192 278 192 278 170 278 c 132,-1,63
 148 278 148 278 132 277 c 5,64,65
 133 218 133 218 135 162 c 132,-1,66
 137 106 137 106 138 63 c 5,67,68
 152 64 152 64 170 64 c 132,-1,69
 188 64 188 64 208 65 c 4,70,71
 253 66 253 66 289 79 c 132,-1,72
 325 92 325 92 350 110.5 c 132,-1,73
 375 129 375 129 388.5 149.5 c 132,-1,74
 402 170 402 170 402 186 c 4,75,76
 402 208 402 208 360.5 236 c 132,-1,77
 319 264 319 264 221 278 c 5,61,62
EndSplineSet
Validated: 33
EndChar

StartChar: C
Encoding: 67 67 9
Width: 550
GlyphClass: 1
Flags: W
LayerCount: 2
Fore
SplineSet
359 667 m 4,0,1
 376 667 376 667 392.5 665 c 132,-1,2
 409 663 409 663 422 659 c 5,3,4
 426 673 426 673 437 682 c 132,-1,5
 448 691 448 691 460 692 c 4,6,7
 473 694 473 694 490 685 c 132,-1,8
 507 676 507 676 511 656 c 4,9,10
 519 619 519 619 519 591 c 132,-1,11
 519 563 519 563 519 547 c 4,12,13
 519 527 519 527 504.5 506.5 c 132,-1,14
 490 486 490 486 475 485 c 4,15,16
 460 483 460 483 441.5 493.5 c 132,-1,17
 423 504 423 504 423 525 c 4,18,19
 423 532 423 532 423.5 542 c 132,-1,20
 424 552 424 552 425 564 c 5,21,22
 414 571 414 571 399 581 c 132,-1,23
 384 591 384 591 366 591 c 4,24,25
 329 591 329 591 287.5 561.5 c 132,-1,26
 246 532 246 532 211.5 482 c 132,-1,27
 177 432 177 432 154 365 c 132,-1,28
 131 298 131 298 131 224 c 4,29,30
 131 193 131 193 141 162.5 c 132,-1,31
 151 132 151 132 167.5 108.5 c 132,-1,32
 184 85 184 85 207.5 70 c 132,-1,33
 231 55 231 55 258 55 c 4,34,35
 321 55 321 55 367 77 c 132,-1,36
 413 99 413 99 438 118 c 4,37,38
 454 129 454 129 469 134 c 132,-1,39
 484 139 484 139 498 129 c 4,40,41
 511 119 511 119 513.5 102 c 132,-1,42
 516 85 516 85 494 60 c 4,43,44
 481 45 481 45 460.5 29 c 132,-1,45
 440 13 440 13 410.5 0 c 132,-1,46
 381 -13 381 -13 340.5 -21.5 c 132,-1,47
 300 -30 300 -30 247 -29 c 4,48,49
 198 -29 198 -29 159 -9 c 132,-1,50
 120 11 120 11 93 42.5 c 132,-1,51
 66 74 66 74 52 114 c 132,-1,52
 38 154 38 154 38 194 c 4,53,54
 38 298 38 298 68.5 385.5 c 132,-1,55
 99 473 99 473 145.5 535.5 c 132,-1,56
 192 598 192 598 249 632.5 c 132,-1,57
 306 667 306 667 359 667 c 4,0,1
EndSplineSet
Validated: 33
EndChar

StartChar: Ccedilla
Encoding: 199 199 10
Width: 550
GlyphClass: 1
Flags: W
LayerCount: 2
Fore
SplineSet
359 667 m 0,0,1
 376 667 376 667 392.5 665 c 128,-1,2
 409 663 409 663 422 659 c 1,3,4
 426 673 426 673 437 682 c 128,-1,5
 448 691 448 691 460 692 c 0,6,7
 473 694 473 694 490 685 c 128,-1,8
 507 676 507 676 511 656 c 0,9,10
 519 619 519 619 519 591 c 128,-1,11
 519 563 519 563 519 547 c 0,12,13
 519 527 519 527 504.5 506.5 c 128,-1,14
 490 486 490 486 475 485 c 0,15,16
 460 483 460 483 441.5 493.5 c 128,-1,17
 423 504 423 504 423 525 c 0,18,19
 423 532 423 532 423.5 542 c 128,-1,20
 424 552 424 552 425 564 c 1,21,22
 414 571 414 571 399 581 c 128,-1,23
 384 591 384 591 366 591 c 0,24,25
 329 591 329 591 287.5 561.5 c 128,-1,26
 246 532 246 532 211.5 482 c 128,-1,27
 177 432 177 432 154 365 c 128,-1,28
 131 298 131 298 131 224 c 0,29,30
 131 193 131 193 141 162.5 c 128,-1,31
 151 132 151 132 167.5 108.5 c 128,-1,32
 184 85 184 85 207.5 70 c 128,-1,33
 231 55 231 55 258 55 c 0,34,35
 321 55 321 55 367 77 c 128,-1,36
 413 99 413 99 438 118 c 0,37,38
 454 129 454 129 469 134 c 128,-1,39
 484 139 484 139 498 129 c 0,40,41
 511 119 511 119 513.5 102 c 128,-1,42
 516 85 516 85 494 60 c 256,43,44
 472 35 472 35 428.5 8.5 c 128,-1,45
 385 -18 385 -18 310 -26 c 1,46,47
 317 -41 317 -41 332.5 -53 c 128,-1,48
 348 -65 348 -65 363.5 -77.5 c 128,-1,49
 379 -90 379 -90 390.5 -103.5 c 128,-1,50
 402 -117 402 -117 402 -135 c 0,51,52
 402 -155 402 -155 396 -175.5 c 128,-1,53
 390 -196 390 -196 375.5 -212.5 c 128,-1,54
 361 -229 361 -229 336.5 -239.5 c 128,-1,55
 312 -250 312 -250 275 -250 c 0,56,57
 225 -250 225 -250 201 -232 c 128,-1,58
 177 -214 177 -214 164 -190 c 0,59,60
 154 -173 154 -173 158.5 -154.5 c 128,-1,61
 163 -136 163 -136 174 -131 c 0,62,63
 187 -125 187 -125 199.5 -127.5 c 128,-1,64
 212 -130 212 -130 221 -148 c 0,65,66
 228 -164 228 -164 242 -177.5 c 128,-1,67
 256 -191 256 -191 281 -191 c 0,68,69
 308 -191 308 -191 319.5 -179 c 128,-1,70
 331 -167 331 -167 331 -144 c 0,71,72
 331 -124 331 -124 317 -112 c 128,-1,73
 303 -100 303 -100 286 -89 c 128,-1,74
 269 -78 269 -78 254.5 -64.5 c 128,-1,75
 240 -51 240 -51 238 -29 c 1,76,77
 191 -27 191 -27 153.5 -6.5 c 128,-1,78
 116 14 116 14 90.5 45 c 128,-1,79
 65 76 65 76 51.5 115.5 c 128,-1,80
 38 155 38 155 38 194 c 0,81,82
 38 298 38 298 68.5 385.5 c 128,-1,83
 99 473 99 473 145.5 535.5 c 128,-1,84
 192 598 192 598 249 632.5 c 128,-1,85
 306 667 306 667 359 667 c 0,0,1
EndSplineSet
Validated: 33
EndChar

StartChar: D
Encoding: 68 68 11
Width: 550
GlyphClass: 1
InSpiro: 1
Flags: W
LayerCount: 2
Fore
SplineSet
315 -29 m 1,0,-1
 224.25 -26 l 1,1,-1
 154 -15 l 1,2,-1
 106.5 -3.75 l 1,3,-1
 84 0 l 1,4,-1
 68 3 l 1,5,-1
 54 12 l 1,6,-1
 44.75 27 l 1,7,-1
 43 48 l 1,8,-1
 43.875 74.25 l 1,9,-1
 44.5 111 l 1,10,-1
 44.75 156.125 l 1,11,-1
 44.5 207.5 l 1,12,-1
 43.75 264.375 l 1,13,-1
 42.5 326 l 1,14,-1
 40.875 390.25 l 1,15,-1
 39 455 l 1,16,-1
 37.875 509 l 1,17,-1
 38.5 551 l 1,18,-1
 39.875 585.5 l 1,19,-1
 41 617 l 1,20,-1
 42 646 l 1,21,-1
 50.7147956797 673.696824608 l 1,22,-1
 66.1585289727 697.057052327 l 1,23,-1
 83.1728114141 704.8437949 l 1,24,-1
 119.164562732 696.408157113 l 1,25,-1
 201 655 l 1,26,-1
 253.125 633.75 l 1,27,-1
 328 596 l 1,28,-1
 400 538.875 l 1,29,-1
 464 459.5 l 1,30,-1
 509 353.375 l 1,31,-1
 524 216 l 1,32,-1
 520.5 175.125 l 1,33,-1
 510 132.5 l 1,34,-1
 492.75 91 l 1,35,-1
 469 53.5 l 1,36,-1
 439 21 l 1,37,-1
 403 -5.5 l 1,38,-1
 361.5 -23.125 l 1,39,-1
 315 -29 l 1,0,-1
  Spiro
    315 -29 o
    224.25 -26 o
    154 -15 o
    106.5 -3.75 o
    84 0 o
    68 3 o
    54 12 o
    44.75 27 o
    43 48 o
    43.875 74.25 o
    44.5 111 o
    44.75 156.125 o
    44.5 207.5 o
    43.75 264.375 o
    42.5 326 o
    40.875 390.25 o
    39 455 o
    37.875 509 o
    38.5 551 o
    39.875 585.5 o
    41 617 o
    42 646 o
    50.7148 673.697 o
    66.1585 697.057 o
    83.1728 704.844 o
    119.165 696.408 o
    201 655 o
    253.125 633.75 o
    328 596 o
    400 538.875 o
    464 459.5 o
    509 353.375 o
    524 216 o
    520.5 175.125 o
    510 132.5 o
    492.75 91 o
    469 53.5 o
    439 21 o
    403 -5.5 o
    361.5 -23.125 o
    0 0 z
  EndSpiro
131 325 m 0,40,41
 133 260 133 260 134.5 200.5 c 128,-1,42
 136 141 136 141 138 82 c 1,43,44
 178 65 178 65 220.5 58 c 128,-1,45
 263 51 263 51 314 51 c 0,46,47
 341 51 341 51 363 69 c 128,-1,48
 385 87 385 87 401 114 c 128,-1,49
 417 141 417 141 425.5 174.5 c 128,-1,50
 434 208 434 208 434 239 c 0,51,52
 434 326 434 326 403 384.5 c 128,-1,53
 372 443 372 443 326.5 481 c 128,-1,54
 281 519 281 519 227.5 541.5 c 128,-1,55
 174 564 174 564 130 580 c 1,56,57
 129 520 129 520 129 459.5 c 128,-1,58
 129 399 129 399 131 325 c 0,40,41
  Spiro
    131 325 o
    132.875 261.375 o
    134.5 200.5 o
    136.125 141.125 o
    138 82 v
    178.625 67.5 o
    220.5 58 o
    265.125 52.75 o
    314 51 o
    339.75 55.5 o
    363 69 o
    383.5 89.25 o
    401 114 o
    415.125 142.625 o
    425.5 174.5 o
    431.875 207.375 o
    434 239 o
    426.25 318.875 o
    403 384.5 o
    368.375 437.875 o
    326.5 481 o
    279 515.125 o
    227.5 541.5 o
    176.375 562.375 o
    130 580 v
    129.25 519.875 o
    129 459.5 o
    129.5 395.625 o
    0 0 z
  EndSpiro
EndSplineSet
Validated: 1
EndChar

StartChar: E
Encoding: 69 69 12
Width: 550
GlyphClass: 1
InSpiro: 1
Flags: W
LayerCount: 2
Fore
SplineSet
455 -6 m 1,0,-1
 432.625 -5.875 l 1,1,-1
 397.5 -7.5 l 1,2,-1
 353.625 -10.125 l 1,3,-1
 305 -13 l 1,4,-1
 253.5 -15.75 l 1,5,-1
 201 -18 l 1,6,-1
 152 -18.75 l 1,7,-1
 111 -17 l 1,8,-1
 90.5 -11.375 l 1,9,-1
 69 3.5 l 1,10,-1
 51.5 25.625 l 1,11,-1
 43 53 l 1,12,-1
 40.75 78.625 l 1,13,-1
 40 113.5 l 1,14,-1
 40.125 155.75 l 1,15,-1
 40.5 203.5 l 1,16,-1
 40.875 256.25 l 1,17,-1
 41 313.5 l 1,18,-1
 40.5 373.625 l 1,19,-1
 39 435 l 1,20,-1
 37.875 493.625 l 1,21,-1
 38.5 537.5 l 1,22,-1
 39.875 573.125 l 1,23,-1
 41 607 l 1,24,-1
 45.25 630.25 l 1,25,-1
 56 646 l 1,26,-1
 70.75 655 l 1,27,-1
 87 658 l 1,28,-1
 97.75 657.75 l 1,29,-1
 108 655 l 1,30,-1
 117.25 649.75 l 1,31,-1
 129 646 l 1,32,-1
 165.729822589 658.240835059 l 1,33,-1
 213 668 l 1,34,-1
 259 676 l 1,35,-1
 308.808125 674.8375 l 1,36,-1
 354.077448341 674.287687891 l 1,37,-1
 394.844850023 668.377207715 l 1,38,-1
 433.611397636 659.167854883 l 1,39,-1
 461.123141103 650.095955078 l 1,40,-1
 484.007909532 638.412447754 l 1,41,-1
 495.637873815 629.752907031 l 1,42,-1
 501.515382647 618.344305762 l 1,43,-1
 504.141503614 605.011362109 l 1,44,-1
 502.265702923 588.791904883 l 1,45,-1
 496.638300851 573.122259766 l 1,46,-1
 485 564 l 1,47,-1
 461.123141103 566.524514453 l 1,48,-1
 417.104351556 575.321508203 l 1,49,-1
 368.833747109 583.706142871 l 1,50,-1
 320.813249422 589.066810938 l 1,51,-1
 277.044566634 588.516998828 l 1,52,-1
 237.527698745 582.056706543 l 1,53,-1
 200.011684927 572.572447656 l 1,54,-1
 163.496098144 562.950735742 l 1,55,-1
 133.983500606 552.229399609 l 1,56,-1
 132.875 523.5 l 1,57,-1
 131.5 479 l 1,58,-1
 130.375 428.75 l 1,59,-1
 130.057825437 376.400945 l 1,60,-1
 176.76169707 377.087037969 l 1,61,-1
 225.743806344 379.145316875 l 1,62,-1
 274.472778102 381.88968875 l 1,63,-1
 320.417237187 384.634060625 l 1,64,-1
 362.817771055 387.241213906 l 1,65,-1
 400.914967156 389.57393 l 1,66,-1
 431.92431282 391.220553125 l 1,67,-1
 453.061295375 391.7694275 l 1,68,-1
 473.185727867 388.750618437 l 1,69,-1
 484.956622344 379.69419125 l 1,70,-1
 490.905353961 367.070080625 l 1,71,-1
 493.563297875 353.34822125 l 1,72,-1
 491.664766508 337.430864375 l 1,73,-1
 485.969172406 322.61125625 l 1,74,-1
 473.945140414 311.908205937 l 1,75,-1
 453.061295375 308.3405225 l 1,76,-1
 431.544606547 307.517210937 l 1,77,-1
 397.371041937 305.04727625 l 1,78,-1
 354.843939312 301.616811406 l 1,79,-1
 308.266636437 297.911909375 l 1,80,-1
 259.664233437 294.207007344 l 1,81,-1
 211.061830437 290.7765425 l 1,82,-1
 166.762765203 288.306607812 l 1,83,-1
 131.0703755 287.48329625 l 1,84,-1
 131.75 258 l 1,85,-1
 132 223 l 1,86,-1
 132.25 188.125 l 1,87,-1
 133 155.5 l 1,88,-1
 134.125 125.875 l 1,89,-1
 135.5 100 l 1,90,-1
 137.675 75.295 l 1,91,-1
 156.061875 71.98 l 1,92,-1
 191.0725 70.875 l 1,93,-1
 236.158125 71.4275 l 1,94,-1
 284.77 73.085 l 1,95,-1
 334.0115625 75.709375 l 1,96,-1
 380.98625 79.1625 l 1,97,-1
 419.1453125 82.891875 l 1,98,-1
 441.94 86.345 l 1,99,-1
 474.8096875 87.588125 l 1,100,-1
 492.81875 75.8475 l 1,101,-1
 501.0046875 58.581875 l 1,102,-1
 504.405 43.25 l 1,103,-1
 501.634375 26.536875 l 1,104,-1
 493.3225 9.5475 l 1,105,-1
 478.21 -2.745625 l 1,106,-1
 455 -6 l 1,0,-1
  Spiro
    455 -6 o
    432.625 -5.875 o
    397.5 -7.5 o
    353.625 -10.125 o
    305 -13 o
    253.5 -15.75 o
    201 -18 o
    152 -18.75 o
    111 -17 o
    90.5 -11.375 o
    69 3.5 o
    51.5 25.625 o
    43 53 o
    40.75 78.625 o
    40 113.5 o
    40.125 155.75 o
    40.5 203.5 o
    40.875 256.25 o
    41 313.5 o
    40.5 373.625 o
    39 435 o
    37.875 493.625 o
    38.5 537.5 o
    39.875 573.125 o
    41 607 o
    45.25 630.25 o
    56 646 o
    70.75 655 o
    87 658 o
    97.75 657.75 o
    108 655 o
    117.25 649.75 o
    129 646 v
    165.73 658.241 o
    213 668 o
    259 676 o
    308.808 674.837 o
    354.077 674.288 o
    394.845 668.377 o
    433.611 659.168 o
    461.123 650.096 o
    484.008 638.412 o
    495.638 629.753 o
    501.515 618.344 o
    504.142 605.011 o
    502.266 588.792 o
    496.638 573.122 o
    485 564 o
    461.123 566.525 o
    417.104 575.322 o
    368.834 583.706 o
    320.813 589.067 o
    277.045 588.517 o
    237.528 582.057 o
    200.012 572.572 o
    163.496 562.951 o
    133.984 552.229 v
    132.875 523.5 o
    131.5 479 o
    130.375 428.75 o
    130.058 376.401 v
    176.762 377.087 o
    225.744 379.145 o
    274.473 381.89 o
    320.417 384.634 o
    362.818 387.241 o
    400.915 389.574 o
    431.924 391.221 o
    453.061 391.769 o
    473.186 388.751 o
    484.957 379.694 o
    490.905 367.07 o
    493.563 353.348 o
    491.665 337.431 o
    485.969 322.611 o
    473.945 311.908 o
    453.061 308.341 o
    431.545 307.517 o
    397.371 305.047 o
    354.844 301.617 o
    308.267 297.912 o
    259.664 294.207 o
    211.062 290.777 o
    166.763 288.307 o
    131.07 287.483 v
    131.75 258 o
    132 223 o
    132.25 188.125 o
    133 155.5 o
    134.125 125.875 o
    135.5 100 o
    137.675 75.295 v
    156.062 71.98 o
    191.073 70.875 o
    236.158 71.4275 o
    284.77 73.085 o
    334.012 75.7094 o
    380.986 79.1625 o
    419.145 82.8919 o
    441.94 86.345 o
    474.81 87.5881 o
    492.819 75.8475 o
    501.005 58.5819 o
    504.405 43.25 o
    501.634 26.5369 o
    493.323 9.5475 o
    478.21 -2.74563 o
    0 0 z
  EndSpiro
EndSplineSet
Validated: 1
EndChar

StartChar: Egrave
Encoding: 200 200 13
Width: 550
GlyphClass: 1
Flags: W
LayerCount: 2
Fore
SplineSet
455 -6 m 1,0,-1
 432.625 -5.875 l 1,1,-1
 397.5 -7.5 l 1,2,-1
 353.625 -10.125 l 1,3,-1
 305 -13 l 1,4,-1
 253.5 -15.75 l 1,5,-1
 201 -18 l 1,6,-1
 152 -18.75 l 1,7,-1
 111 -17 l 1,8,-1
 90.5 -11.375 l 1,9,-1
 69 3.5 l 1,10,-1
 51.5 25.625 l 1,11,-1
 43 53 l 1,12,-1
 40.75 78.625 l 1,13,-1
 40 113.5 l 1,14,-1
 40.125 155.75 l 1,15,-1
 40.5 203.5 l 1,16,-1
 40.875 256.25 l 1,17,-1
 41 313.5 l 1,18,-1
 40.5 373.625 l 1,19,-1
 39 435 l 1,20,-1
 37.875 493.625 l 1,21,-1
 38.5 537.5 l 1,22,-1
 39.875 573.125 l 1,23,-1
 41 607 l 1,24,-1
 45.25 630.25 l 1,25,-1
 56 646 l 1,26,-1
 70.75 655 l 1,27,-1
 87 658 l 1,28,-1
 97.75 657.75 l 1,29,-1
 108 655 l 1,30,-1
 117.25 649.75 l 1,31,-1
 129 646 l 1,32,-1
 165.729822589 658.240835059 l 1,33,-1
 213 668 l 1,34,-1
 259 676 l 1,35,-1
 308.808125 674.8375 l 1,36,-1
 354.077448341 674.287687891 l 1,37,-1
 394.844850023 668.377207715 l 1,38,-1
 433.611397636 659.167854883 l 1,39,-1
 461.123141103 650.095955078 l 1,40,-1
 484.007909532 638.412447754 l 1,41,-1
 495.637873815 629.752907031 l 1,42,-1
 501.515382647 618.344305762 l 1,43,-1
 504.141503614 605.011362109 l 1,44,-1
 502.265702923 588.791904883 l 1,45,-1
 496.638300851 573.122259766 l 1,46,-1
 485 564 l 1,47,-1
 461.123141103 566.524514453 l 1,48,-1
 417.104351556 575.321508203 l 1,49,-1
 368.833747109 583.706142871 l 1,50,-1
 320.813249422 589.066810938 l 1,51,-1
 277.044566634 588.516998828 l 1,52,-1
 237.527698745 582.056706543 l 1,53,-1
 200.011684927 572.572447656 l 1,54,-1
 163.496098144 562.950735742 l 1,55,-1
 133.983500606 552.229399609 l 1,56,-1
 132.875 523.5 l 1,57,-1
 131.5 479 l 1,58,-1
 130.375 428.75 l 1,59,-1
 130.057825437 376.400945 l 1,60,-1
 176.76169707 377.087037969 l 1,61,-1
 225.743806344 379.145316875 l 1,62,-1
 274.472778102 381.88968875 l 1,63,-1
 320.417237187 384.634060625 l 1,64,-1
 362.817771055 387.241213906 l 1,65,-1
 400.914967156 389.57393 l 1,66,-1
 431.92431282 391.220553125 l 1,67,-1
 453.061295375 391.7694275 l 1,68,-1
 473.185727867 388.750618437 l 1,69,-1
 484.956622344 379.69419125 l 1,70,-1
 490.905353961 367.070080625 l 1,71,-1
 493.563297875 353.34822125 l 1,72,-1
 491.664766508 337.430864375 l 1,73,-1
 485.969172406 322.61125625 l 1,74,-1
 473.945140414 311.908205937 l 1,75,-1
 453.061295375 308.3405225 l 1,76,-1
 431.544606547 307.517210937 l 1,77,-1
 397.371041937 305.04727625 l 1,78,-1
 354.843939312 301.616811406 l 1,79,-1
 308.266636437 297.911909375 l 1,80,-1
 259.664233437 294.207007344 l 1,81,-1
 211.061830437 290.7765425 l 1,82,-1
 166.762765203 288.306607812 l 1,83,-1
 131.0703755 287.48329625 l 1,84,-1
 131.75 258 l 1,85,-1
 132 223 l 1,86,-1
 132.25 188.125 l 1,87,-1
 133 155.5 l 1,88,-1
 134.125 125.875 l 1,89,-1
 135.5 100 l 1,90,-1
 137.675 75.295 l 1,91,-1
 156.061875 71.98 l 1,92,-1
 191.0725 70.875 l 1,93,-1
 236.158125 71.4275 l 1,94,-1
 284.77 73.085 l 1,95,-1
 334.0115625 75.709375 l 1,96,-1
 380.98625 79.1625 l 1,97,-1
 419.1453125 82.891875 l 1,98,-1
 441.94 86.345 l 1,99,-1
 474.8096875 87.588125 l 1,100,-1
 492.81875 75.8475 l 1,101,-1
 501.0046875 58.581875 l 1,102,-1
 504.405 43.25 l 1,103,-1
 501.634375 26.536875 l 1,104,-1
 493.3225 9.5475 l 1,105,-1
 478.21 -2.745625 l 1,106,-1
 455 -6 l 1,0,-1
  Spiro
    455 -6 o
    432.625 -5.875 o
    397.5 -7.5 o
    353.625 -10.125 o
    305 -13 o
    253.5 -15.75 o
    201 -18 o
    152 -18.75 o
    111 -17 o
    90.5 -11.375 o
    69 3.5 o
    51.5 25.625 o
    43 53 o
    40.75 78.625 o
    40 113.5 o
    40.125 155.75 o
    40.5 203.5 o
    40.875 256.25 o
    41 313.5 o
    40.5 373.625 o
    39 435 o
    37.875 493.625 o
    38.5 537.5 o
    39.875 573.125 o
    41 607 o
    45.25 630.25 o
    56 646 o
    70.75 655 o
    87 658 o
    97.75 657.75 o
    108 655 o
    117.25 649.75 o
    129 646 v
    165.73 658.241 o
    213 668 o
    259 676 o
    308.808 674.837 o
    354.077 674.288 o
    394.845 668.377 o
    433.611 659.168 o
    461.123 650.096 o
    484.008 638.412 o
    495.638 629.753 o
    501.515 618.344 o
    504.142 605.011 o
    502.266 588.792 o
    496.638 573.122 o
    485 564 o
    461.123 566.525 o
    417.104 575.322 o
    368.834 583.706 o
    320.813 589.067 o
    277.045 588.517 o
    237.528 582.057 o
    200.012 572.572 o
    163.496 562.951 o
    133.984 552.229 v
    132.875 523.5 o
    131.5 479 o
    130.375 428.75 o
    130.058 376.401 v
    176.762 377.087 o
    225.744 379.145 o
    274.473 381.89 o
    320.417 384.634 o
    362.818 387.241 o
    400.915 389.574 o
    431.924 391.221 o
    453.061 391.769 o
    473.186 388.751 o
    484.957 379.694 o
    490.905 367.07 o
    493.563 353.348 o
    491.665 337.431 o
    485.969 322.611 o
    473.945 311.908 o
    453.061 308.341 o
    431.545 307.517 o
    397.371 305.047 o
    354.844 301.617 o
    308.267 297.912 o
    259.664 294.207 o
    211.062 290.777 o
    166.763 288.307 o
    131.07 287.483 v
    131.75 258 o
    132 223 o
    132.25 188.125 o
    133 155.5 o
    134.125 125.875 o
    135.5 100 o
    137.675 75.295 v
    156.062 71.98 o
    191.073 70.875 o
    236.158 71.4275 o
    284.77 73.085 o
    334.012 75.7094 o
    380.986 79.1625 o
    419.145 82.8919 o
    441.94 86.345 o
    474.81 87.5881 o
    492.819 75.8475 o
    501.005 58.5819 o
    504.405 43.25 o
    501.634 26.5369 o
    493.323 9.5475 o
    478.21 -2.74563 o
    0 0 z
  EndSpiro
258 761 m 4,107,108
 231 788 231 788 191.5 830 c 132,-1,109
 152 872 152 872 122 912 c 4,110,111
 109 929 109 929 111 949 c 132,-1,112
 113 969 113 969 122 979 c 4,113,114
 133 989 133 989 157 988 c 4,115,116
 179 987 179 987 192 971 c 4,117,118
 218 935 218 935 249 891 c 132,-1,119
 280 847 280 847 313 817 c 4,120,121
 331 800 331 800 334.5 779.5 c 132,-1,122
 338 759 338 759 327 749 c 4,123,124
 317 739 317 739 297 740.5 c 132,-1,125
 277 742 277 742 258 761 c 4,107,108
EndSplineSet
Validated: 33
EndChar

StartChar: Eacute
Encoding: 201 201 14
Width: 550
GlyphClass: 1
Flags: W
LayerCount: 2
Fore
SplineSet
455 -6 m 1,0,-1
 432.625 -5.875 l 1,1,-1
 397.5 -7.5 l 1,2,-1
 353.625 -10.125 l 1,3,-1
 305 -13 l 1,4,-1
 253.5 -15.75 l 1,5,-1
 201 -18 l 1,6,-1
 152 -18.75 l 1,7,-1
 111 -17 l 1,8,-1
 90.5 -11.375 l 1,9,-1
 69 3.5 l 1,10,-1
 51.5 25.625 l 1,11,-1
 43 53 l 1,12,-1
 40.75 78.625 l 1,13,-1
 40 113.5 l 1,14,-1
 40.125 155.75 l 1,15,-1
 40.5 203.5 l 1,16,-1
 40.875 256.25 l 1,17,-1
 41 313.5 l 1,18,-1
 40.5 373.625 l 1,19,-1
 39 435 l 1,20,-1
 37.875 493.625 l 1,21,-1
 38.5 537.5 l 1,22,-1
 39.875 573.125 l 1,23,-1
 41 607 l 1,24,-1
 45.25 630.25 l 1,25,-1
 56 646 l 1,26,-1
 70.75 655 l 1,27,-1
 87 658 l 1,28,-1
 97.75 657.75 l 1,29,-1
 108 655 l 1,30,-1
 117.25 649.75 l 1,31,-1
 129 646 l 1,32,-1
 165.729822589 658.240835059 l 1,33,-1
 213 668 l 1,34,-1
 259 676 l 1,35,-1
 308.808125 674.8375 l 1,36,-1
 354.077448341 674.287687891 l 1,37,-1
 394.844850023 668.377207715 l 1,38,-1
 433.611397636 659.167854883 l 1,39,-1
 461.123141103 650.095955078 l 1,40,-1
 484.007909532 638.412447754 l 1,41,-1
 495.637873815 629.752907031 l 1,42,-1
 501.515382647 618.344305762 l 1,43,-1
 504.141503614 605.011362109 l 1,44,-1
 502.265702923 588.791904883 l 1,45,-1
 496.638300851 573.122259766 l 1,46,-1
 485 564 l 1,47,-1
 461.123141103 566.524514453 l 1,48,-1
 417.104351556 575.321508203 l 1,49,-1
 368.833747109 583.706142871 l 1,50,-1
 320.813249422 589.066810938 l 1,51,-1
 277.044566634 588.516998828 l 1,52,-1
 237.527698745 582.056706543 l 1,53,-1
 200.011684927 572.572447656 l 1,54,-1
 163.496098144 562.950735742 l 1,55,-1
 133.983500606 552.229399609 l 1,56,-1
 132.875 523.5 l 1,57,-1
 131.5 479 l 1,58,-1
 130.375 428.75 l 1,59,-1
 130.057825437 376.400945 l 1,60,-1
 176.76169707 377.087037969 l 1,61,-1
 225.743806344 379.145316875 l 1,62,-1
 274.472778102 381.88968875 l 1,63,-1
 320.417237187 384.634060625 l 1,64,-1
 362.817771055 387.241213906 l 1,65,-1
 400.914967156 389.57393 l 1,66,-1
 431.92431282 391.220553125 l 1,67,-1
 453.061295375 391.7694275 l 1,68,-1
 473.185727867 388.750618437 l 1,69,-1
 484.956622344 379.69419125 l 1,70,-1
 490.905353961 367.070080625 l 1,71,-1
 493.563297875 353.34822125 l 1,72,-1
 491.664766508 337.430864375 l 1,73,-1
 485.969172406 322.61125625 l 1,74,-1
 473.945140414 311.908205937 l 1,75,-1
 453.061295375 308.3405225 l 1,76,-1
 431.544606547 307.517210937 l 1,77,-1
 397.371041937 305.04727625 l 1,78,-1
 354.843939312 301.616811406 l 1,79,-1
 308.266636437 297.911909375 l 1,80,-1
 259.664233437 294.207007344 l 1,81,-1
 211.061830437 290.7765425 l 1,82,-1
 166.762765203 288.306607812 l 1,83,-1
 131.0703755 287.48329625 l 1,84,-1
 131.75 258 l 1,85,-1
 132 223 l 1,86,-1
 132.25 188.125 l 1,87,-1
 133 155.5 l 1,88,-1
 134.125 125.875 l 1,89,-1
 135.5 100 l 1,90,-1
 137.675 75.295 l 1,91,-1
 156.061875 71.98 l 1,92,-1
 191.0725 70.875 l 1,93,-1
 236.158125 71.4275 l 1,94,-1
 284.77 73.085 l 1,95,-1
 334.0115625 75.709375 l 1,96,-1
 380.98625 79.1625 l 1,97,-1
 419.1453125 82.891875 l 1,98,-1
 441.94 86.345 l 1,99,-1
 474.8096875 87.588125 l 1,100,-1
 492.81875 75.8475 l 1,101,-1
 501.0046875 58.581875 l 1,102,-1
 504.405 43.25 l 1,103,-1
 501.634375 26.536875 l 1,104,-1
 493.3225 9.5475 l 1,105,-1
 478.21 -2.745625 l 1,106,-1
 455 -6 l 1,0,-1
  Spiro
    455 -6 o
    432.625 -5.875 o
    397.5 -7.5 o
    353.625 -10.125 o
    305 -13 o
    253.5 -15.75 o
    201 -18 o
    152 -18.75 o
    111 -17 o
    90.5 -11.375 o
    69 3.5 o
    51.5 25.625 o
    43 53 o
    40.75 78.625 o
    40 113.5 o
    40.125 155.75 o
    40.5 203.5 o
    40.875 256.25 o
    41 313.5 o
    40.5 373.625 o
    39 435 o
    37.875 493.625 o
    38.5 537.5 o
    39.875 573.125 o
    41 607 o
    45.25 630.25 o
    56 646 o
    70.75 655 o
    87 658 o
    97.75 657.75 o
    108 655 o
    117.25 649.75 o
    129 646 v
    165.73 658.241 o
    213 668 o
    259 676 o
    308.808 674.837 o
    354.077 674.288 o
    394.845 668.377 o
    433.611 659.168 o
    461.123 650.096 o
    484.008 638.412 o
    495.638 629.753 o
    501.515 618.344 o
    504.142 605.011 o
    502.266 588.792 o
    496.638 573.122 o
    485 564 o
    461.123 566.525 o
    417.104 575.322 o
    368.834 583.706 o
    320.813 589.067 o
    277.045 588.517 o
    237.528 582.057 o
    200.012 572.572 o
    163.496 562.951 o
    133.984 552.229 v
    132.875 523.5 o
    131.5 479 o
    130.375 428.75 o
    130.058 376.401 v
    176.762 377.087 o
    225.744 379.145 o
    274.473 381.89 o
    320.417 384.634 o
    362.818 387.241 o
    400.915 389.574 o
    431.924 391.221 o
    453.061 391.769 o
    473.186 388.751 o
    484.957 379.694 o
    490.905 367.07 o
    493.563 353.348 o
    491.665 337.431 o
    485.969 322.611 o
    473.945 311.908 o
    453.061 308.341 o
    431.545 307.517 o
    397.371 305.047 o
    354.844 301.617 o
    308.267 297.912 o
    259.664 294.207 o
    211.062 290.777 o
    166.763 288.307 o
    131.07 287.483 v
    131.75 258 o
    132 223 o
    132.25 188.125 o
    133 155.5 o
    134.125 125.875 o
    135.5 100 o
    137.675 75.295 v
    156.062 71.98 o
    191.073 70.875 o
    236.158 71.4275 o
    284.77 73.085 o
    334.012 75.7094 o
    380.986 79.1625 o
    419.145 82.8919 o
    441.94 86.345 o
    474.81 87.5881 o
    492.819 75.8475 o
    501.005 58.5819 o
    504.405 43.25 o
    501.634 26.5369 o
    493.323 9.5475 o
    478.21 -2.74563 o
    0 0 z
  EndSpiro
459 912 m 4,107,108
 429 872 429 872 389.5 830 c 132,-1,109
 350 788 350 788 323 761 c 4,110,111
 304 742 304 742 284 740.5 c 132,-1,112
 264 739 264 739 254 749 c 4,113,114
 243 759 243 759 246.5 779.5 c 132,-1,115
 250 800 250 800 268 817 c 4,116,117
 301 847 301 847 332 891 c 4,118,119
 384 965 384 965 389 971 c 4,120,121
 402 987 402 987 424 988 c 4,122,123
 450 989 450 989 459 979 c 132,-1,124
 468 969 468 969 470 949 c 132,-1,125
 472 929 472 929 459 912 c 4,107,108
EndSplineSet
Validated: 33
EndChar

StartChar: Ecircumflex
Encoding: 202 202 15
Width: 550
GlyphClass: 1
InSpiro: 1
Flags: W
LayerCount: 2
Fore
SplineSet
455 -6 m 1,0,-1
 432.625 -5.875 l 1,1,-1
 397.5 -7.5 l 1,2,-1
 353.625 -10.125 l 1,3,-1
 305 -13 l 1,4,-1
 253.5 -15.75 l 1,5,-1
 201 -18 l 1,6,-1
 152 -18.75 l 1,7,-1
 111 -17 l 1,8,-1
 90.5 -11.375 l 1,9,-1
 69 3.5 l 1,10,-1
 51.5 25.625 l 1,11,-1
 43 53 l 1,12,-1
 40.75 78.625 l 1,13,-1
 40 113.5 l 1,14,-1
 40.125 155.75 l 1,15,-1
 40.5 203.5 l 1,16,-1
 40.875 256.25 l 1,17,-1
 41 313.5 l 1,18,-1
 40.5 373.625 l 1,19,-1
 39 435 l 1,20,-1
 37.875 493.625 l 1,21,-1
 38.5 537.5 l 1,22,-1
 39.875 573.125 l 1,23,-1
 41 607 l 1,24,-1
 45.25 630.25 l 1,25,-1
 56 646 l 1,26,-1
 70.75 655 l 1,27,-1
 87 658 l 1,28,-1
 97.75 657.75 l 1,29,-1
 108 655 l 1,30,-1
 117.25 649.75 l 1,31,-1
 129 646 l 1,32,-1
 165.729822589 658.240835059 l 1,33,-1
 213 668 l 1,34,-1
 259 676 l 1,35,-1
 308.808125 674.8375 l 1,36,-1
 354.077448341 674.287687891 l 1,37,-1
 394.844850023 668.377207715 l 1,38,-1
 433.611397636 659.167854883 l 1,39,-1
 461.123141103 650.095955078 l 1,40,-1
 484.007909532 638.412447754 l 1,41,-1
 495.637873815 629.752907031 l 1,42,-1
 501.515382647 618.344305762 l 1,43,-1
 504.141503614 605.011362109 l 1,44,-1
 502.265702923 588.791904883 l 1,45,-1
 496.638300851 573.122259766 l 1,46,-1
 485 564 l 1,47,-1
 461.123141103 566.524514453 l 1,48,-1
 417.104351556 575.321508203 l 1,49,-1
 368.833747109 583.706142871 l 1,50,-1
 320.813249422 589.066810938 l 1,51,-1
 277.044566634 588.516998828 l 1,52,-1
 237.527698745 582.056706543 l 1,53,-1
 200.011684927 572.572447656 l 1,54,-1
 163.496098144 562.950735742 l 1,55,-1
 133.983500606 552.229399609 l 1,56,-1
 132.875 523.5 l 1,57,-1
 131.5 479 l 1,58,-1
 130.375 428.75 l 1,59,-1
 130.057825437 376.400945 l 1,60,-1
 176.76169707 377.087037969 l 1,61,-1
 225.743806344 379.145316875 l 1,62,-1
 274.472778102 381.88968875 l 1,63,-1
 320.417237187 384.634060625 l 1,64,-1
 362.817771055 387.241213906 l 1,65,-1
 400.914967156 389.57393 l 1,66,-1
 431.92431282 391.220553125 l 1,67,-1
 453.061295375 391.7694275 l 1,68,-1
 473.185727867 388.750618437 l 1,69,-1
 484.956622344 379.69419125 l 1,70,-1
 490.905353961 367.070080625 l 1,71,-1
 493.563297875 353.34822125 l 1,72,-1
 491.664766508 337.430864375 l 1,73,-1
 485.969172406 322.61125625 l 1,74,-1
 473.945140414 311.908205937 l 1,75,-1
 453.061295375 308.3405225 l 1,76,-1
 431.544606547 307.517210937 l 1,77,-1
 397.371041937 305.04727625 l 1,78,-1
 354.843939312 301.616811406 l 1,79,-1
 308.266636437 297.911909375 l 1,80,-1
 259.664233437 294.207007344 l 1,81,-1
 211.061830437 290.7765425 l 1,82,-1
 166.762765203 288.306607812 l 1,83,-1
 131.0703755 287.48329625 l 1,84,-1
 131.75 258 l 1,85,-1
 132 223 l 1,86,-1
 132.25 188.125 l 1,87,-1
 133 155.5 l 1,88,-1
 134.125 125.875 l 1,89,-1
 135.5 100 l 1,90,-1
 137.675 75.295 l 1,91,-1
 156.061875 71.98 l 1,92,-1
 191.0725 70.875 l 1,93,-1
 236.158125 71.4275 l 1,94,-1
 284.77 73.085 l 1,95,-1
 334.0115625 75.709375 l 1,96,-1
 380.98625 79.1625 l 1,97,-1
 419.1453125 82.891875 l 1,98,-1
 441.94 86.345 l 1,99,-1
 474.8096875 87.588125 l 1,100,-1
 492.81875 75.8475 l 1,101,-1
 501.0046875 58.581875 l 1,102,-1
 504.405 43.25 l 1,103,-1
 501.634375 26.536875 l 1,104,-1
 493.3225 9.5475 l 1,105,-1
 478.21 -2.745625 l 1,106,-1
 455 -6 l 1,0,-1
  Spiro
    455 -6 o
    432.625 -5.875 o
    397.5 -7.5 o
    353.625 -10.125 o
    305 -13 o
    253.5 -15.75 o
    201 -18 o
    152 -18.75 o
    111 -17 o
    90.5 -11.375 o
    69 3.5 o
    51.5 25.625 o
    43 53 o
    40.75 78.625 o
    40 113.5 o
    40.125 155.75 o
    40.5 203.5 o
    40.875 256.25 o
    41 313.5 o
    40.5 373.625 o
    39 435 o
    37.875 493.625 o
    38.5 537.5 o
    39.875 573.125 o
    41 607 o
    45.25 630.25 o
    56 646 o
    70.75 655 o
    87 658 o
    97.75 657.75 o
    108 655 o
    117.25 649.75 o
    129 646 v
    165.73 658.241 o
    213 668 o
    259 676 o
    308.808 674.837 o
    354.077 674.288 o
    394.845 668.377 o
    433.611 659.168 o
    461.123 650.096 o
    484.008 638.412 o
    495.638 629.753 o
    501.515 618.344 o
    504.142 605.011 o
    502.266 588.792 o
    496.638 573.122 o
    485 564 o
    461.123 566.525 o
    417.104 575.322 o
    368.834 583.706 o
    320.813 589.067 o
    277.045 588.517 o
    237.528 582.057 o
    200.012 572.572 o
    163.496 562.951 o
    133.984 552.229 v
    132.875 523.5 o
    131.5 479 o
    130.375 428.75 o
    130.058 376.401 v
    176.762 377.087 o
    225.744 379.145 o
    274.473 381.89 o
    320.417 384.634 o
    362.818 387.241 o
    400.915 389.574 o
    431.924 391.221 o
    453.061 391.769 o
    473.186 388.751 o
    484.957 379.694 o
    490.905 367.07 o
    493.563 353.348 o
    491.665 337.431 o
    485.969 322.611 o
    473.945 311.908 o
    453.061 308.341 o
    431.545 307.517 o
    397.371 305.047 o
    354.844 301.617 o
    308.267 297.912 o
    259.664 294.207 o
    211.062 290.777 o
    166.763 288.307 o
    131.07 287.483 v
    131.75 258 o
    132 223 o
    132.25 188.125 o
    133 155.5 o
    134.125 125.875 o
    135.5 100 o
    137.675 75.295 v
    156.062 71.98 o
    191.073 70.875 o
    236.158 71.4275 o
    284.77 73.085 o
    334.012 75.7094 o
    380.986 79.1625 o
    419.145 82.8919 o
    441.94 86.345 o
    474.81 87.5881 o
    492.819 75.8475 o
    501.005 58.5819 o
    504.405 43.25 o
    501.634 26.5369 o
    493.323 9.5475 o
    478.21 -2.74563 o
    0 0 z
  EndSpiro
421 744 m 0,107,108
 416 745 416 745 401 771 c 128,-1,109
 386 797 386 797 365 832 c 128,-1,110
 344 867 344 867 320 906 c 128,-1,111
 296 945 296 945 273 971 c 1,112,113
 252 946 252 946 228.5 907.5 c 128,-1,114
 205 869 205 869 183.5 833.5 c 128,-1,115
 162 798 162 798 145 772 c 128,-1,116
 128 746 128 746 122 744 c 0,117,118
 98 738 98 738 83.5 742.5 c 128,-1,119
 69 747 69 747 62 760 c 0,120,121
 54 772 54 772 58.5 786 c 128,-1,122
 63 800 63 800 77 820 c 0,123,124
 89 837 89 837 111.5 869.5 c 128,-1,125
 134 902 134 902 158.5 937.5 c 128,-1,126
 183 973 183 973 205.5 1006 c 128,-1,127
 228 1039 228 1039 241 1058 c 0,128,129
 245 1065 245 1065 254 1066 c 128,-1,130
 263 1067 263 1067 271 1067 c 0,131,132
 278 1067 278 1067 286 1065.5 c 128,-1,133
 294 1064 294 1064 299 1058 c 0,134,135
 312 1041 312 1041 333 1009.5 c 128,-1,136
 354 978 354 978 376 943.5 c 128,-1,137
 398 909 398 909 418 876.5 c 128,-1,138
 438 844 438 844 450 826 c 0,139,140
 464 805 464 805 477.5 787 c 128,-1,141
 491 769 491 769 483 757 c 0,142,143
 476 744 476 744 461 741.5 c 128,-1,144
 446 739 446 739 421 744 c 0,107,108
  Spiro
    421 744 o
    413.5 751.25 o
    401 771 o
    384.5 799.25 o
    365 832 o
    343.25 868 o
    320 906 o
    296.25 941.75 o
    273 971 v
    251.375 942.625 o
    228.5 907.5 o
    205.5 869.75 o
    183.5 833.5 o
    163.125 800.375 o
    145 772 o
    130.75 752 o
    122 744 o
    100.375 740.625 o
    83.5 742.5 o
    70.875 749.125 o
    62 760 o
    57.125 772.5 o
    58.5 786 o
    65.375 801.5 o
    77 820 o
    91.625 840.875 o
    111.5 869.5 o
    134.5 902.75 o
    158.5 937.5 o
    182.5 972.375 o
    205.5 1006 o
    225.625 1035.5 o
    241 1058 o
    246.25 1063.5 o
    254 1066 o
    262.75 1066.75 o
    271 1067 o
    278.25 1066.62 o
    286 1065.5 o
    293.25 1062.88 o
    299 1058 o
    314 1037.38 o
    333 1009.5 o
    354.25 977.25 o
    376 943.5 o
    397.5 909.5 o
    418 876.5 o
    436 847.625 o
    450 826 o
    463.875 805.75 o
    477.5 787 o
    485.625 770.5 o
    483 757 o
    474 746.625 o
    461 741.5 o
    443.5 740.875 o
    0 0 z
  EndSpiro
EndSplineSet
Validated: 1057
EndChar

StartChar: Edieresis
Encoding: 203 203 16
Width: 550
GlyphClass: 1
InSpiro: 1
Flags: W
LayerCount: 2
Fore
SplineSet
455 -6 m 1,0,-1
 432.625 -5.875 l 1,1,-1
 397.5 -7.5 l 1,2,-1
 353.625 -10.125 l 1,3,-1
 305 -13 l 1,4,-1
 253.5 -15.75 l 1,5,-1
 201 -18 l 1,6,-1
 152 -18.75 l 1,7,-1
 111 -17 l 1,8,-1
 90.5 -11.375 l 1,9,-1
 69 3.5 l 1,10,-1
 51.5 25.625 l 1,11,-1
 43 53 l 1,12,-1
 40.75 78.625 l 1,13,-1
 40 113.5 l 1,14,-1
 40.125 155.75 l 1,15,-1
 40.5 203.5 l 1,16,-1
 40.875 256.25 l 1,17,-1
 41 313.5 l 1,18,-1
 40.5 373.625 l 1,19,-1
 39 435 l 1,20,-1
 37.875 493.625 l 1,21,-1
 38.5 537.5 l 1,22,-1
 39.875 573.125 l 1,23,-1
 41 607 l 1,24,-1
 45.25 630.25 l 1,25,-1
 56 646 l 1,26,-1
 70.75 655 l 1,27,-1
 87 658 l 1,28,-1
 97.75 657.75 l 1,29,-1
 108 655 l 1,30,-1
 117.25 649.75 l 1,31,-1
 129 646 l 1,32,-1
 165.729822589 658.240835059 l 1,33,-1
 213 668 l 1,34,-1
 259 676 l 1,35,-1
 308.808125 674.8375 l 1,36,-1
 354.077448341 674.287687891 l 1,37,-1
 394.844850023 668.377207715 l 1,38,-1
 433.611397636 659.167854883 l 1,39,-1
 461.123141103 650.095955078 l 1,40,-1
 484.007909532 638.412447754 l 1,41,-1
 495.637873815 629.752907031 l 1,42,-1
 501.515382647 618.344305762 l 1,43,-1
 504.141503614 605.011362109 l 1,44,-1
 502.265702923 588.791904883 l 1,45,-1
 496.638300851 573.122259766 l 1,46,-1
 485 564 l 1,47,-1
 461.123141103 566.524514453 l 1,48,-1
 417.104351556 575.321508203 l 1,49,-1
 368.833747109 583.706142871 l 1,50,-1
 320.813249422 589.066810938 l 1,51,-1
 277.044566634 588.516998828 l 1,52,-1
 237.527698745 582.056706543 l 1,53,-1
 200.011684927 572.572447656 l 1,54,-1
 163.496098144 562.950735742 l 1,55,-1
 133.983500606 552.229399609 l 1,56,-1
 132.875 523.5 l 1,57,-1
 131.5 479 l 1,58,-1
 130.375 428.75 l 1,59,-1
 130.057825437 376.400945 l 1,60,-1
 176.76169707 377.087037969 l 1,61,-1
 225.743806344 379.145316875 l 1,62,-1
 274.472778102 381.88968875 l 1,63,-1
 320.417237187 384.634060625 l 1,64,-1
 362.817771055 387.241213906 l 1,65,-1
 400.914967156 389.57393 l 1,66,-1
 431.92431282 391.220553125 l 1,67,-1
 453.061295375 391.7694275 l 1,68,-1
 473.185727867 388.750618437 l 1,69,-1
 484.956622344 379.69419125 l 1,70,-1
 490.905353961 367.070080625 l 1,71,-1
 493.563297875 353.34822125 l 1,72,-1
 491.664766508 337.430864375 l 1,73,-1
 485.969172406 322.61125625 l 1,74,-1
 473.945140414 311.908205937 l 1,75,-1
 453.061295375 308.3405225 l 1,76,-1
 431.544606547 307.517210937 l 1,77,-1
 397.371041937 305.04727625 l 1,78,-1
 354.843939312 301.616811406 l 1,79,-1
 308.266636437 297.911909375 l 1,80,-1
 259.664233437 294.207007344 l 1,81,-1
 211.061830437 290.7765425 l 1,82,-1
 166.762765203 288.306607812 l 1,83,-1
 131.0703755 287.48329625 l 1,84,-1
 131.75 258 l 1,85,-1
 132 223 l 1,86,-1
 132.25 188.125 l 1,87,-1
 133 155.5 l 1,88,-1
 134.125 125.875 l 1,89,-1
 135.5 100 l 1,90,-1
 137.675 75.295 l 1,91,-1
 156.061875 71.98 l 1,92,-1
 191.0725 70.875 l 1,93,-1
 236.158125 71.4275 l 1,94,-1
 284.77 73.085 l 1,95,-1
 334.0115625 75.709375 l 1,96,-1
 380.98625 79.1625 l 1,97,-1
 419.1453125 82.891875 l 1,98,-1
 441.94 86.345 l 1,99,-1
 474.8096875 87.588125 l 1,100,-1
 492.81875 75.8475 l 1,101,-1
 501.0046875 58.581875 l 1,102,-1
 504.405 43.25 l 1,103,-1
 501.634375 26.536875 l 1,104,-1
 493.3225 9.5475 l 1,105,-1
 478.21 -2.745625 l 1,106,-1
 455 -6 l 1,0,-1
  Spiro
    455 -6 o
    432.625 -5.875 o
    397.5 -7.5 o
    353.625 -10.125 o
    305 -13 o
    253.5 -15.75 o
    201 -18 o
    152 -18.75 o
    111 -17 o
    90.5 -11.375 o
    69 3.5 o
    51.5 25.625 o
    43 53 o
    40.75 78.625 o
    40 113.5 o
    40.125 155.75 o
    40.5 203.5 o
    40.875 256.25 o
    41 313.5 o
    40.5 373.625 o
    39 435 o
    37.875 493.625 o
    38.5 537.5 o
    39.875 573.125 o
    41 607 o
    45.25 630.25 o
    56 646 o
    70.75 655 o
    87 658 o
    97.75 657.75 o
    108 655 o
    117.25 649.75 o
    129 646 v
    165.73 658.241 o
    213 668 o
    259 676 o
    308.808 674.837 o
    354.077 674.288 o
    394.845 668.377 o
    433.611 659.168 o
    461.123 650.096 o
    484.008 638.412 o
    495.638 629.753 o
    501.515 618.344 o
    504.142 605.011 o
    502.266 588.792 o
    496.638 573.122 o
    485 564 o
    461.123 566.525 o
    417.104 575.322 o
    368.834 583.706 o
    320.813 589.067 o
    277.045 588.517 o
    237.528 582.057 o
    200.012 572.572 o
    163.496 562.951 o
    133.984 552.229 v
    132.875 523.5 o
    131.5 479 o
    130.375 428.75 o
    130.058 376.401 v
    176.762 377.087 o
    225.744 379.145 o
    274.473 381.89 o
    320.417 384.634 o
    362.818 387.241 o
    400.915 389.574 o
    431.924 391.221 o
    453.061 391.769 o
    473.186 388.751 o
    484.957 379.694 o
    490.905 367.07 o
    493.563 353.348 o
    491.665 337.431 o
    485.969 322.611 o
    473.945 311.908 o
    453.061 308.341 o
    431.545 307.517 o
    397.371 305.047 o
    354.844 301.617 o
    308.267 297.912 o
    259.664 294.207 o
    211.062 290.777 o
    166.763 288.307 o
    131.07 287.483 v
    131.75 258 o
    132 223 o
    132.25 188.125 o
    133 155.5 o
    134.125 125.875 o
    135.5 100 o
    137.675 75.295 v
    156.062 71.98 o
    191.073 70.875 o
    236.158 71.4275 o
    284.77 73.085 o
    334.012 75.7094 o
    380.986 79.1625 o
    419.145 82.8919 o
    441.94 86.345 o
    474.81 87.5881 o
    492.819 75.8475 o
    501.005 58.5819 o
    504.405 43.25 o
    501.634 26.5369 o
    493.323 9.5475 o
    478.21 -2.74563 o
    0 0 z
  EndSpiro
361 740 m 0,107,108
 333 737 333 737 316.5 756.5 c 128,-1,109
 300 776 300 776 300 801 c 0,110,111
 300 825 300 825 319 842 c 128,-1,112
 338 859 338 859 361 860 c 0,113,114
 387 861 387 861 402.5 843.5 c 128,-1,115
 418 826 418 826 418 801 c 0,116,117
 418 777 418 777 402.5 760 c 128,-1,118
 387 743 387 743 361 740 c 0,107,108
  Spiro
    361 740 o
    335.875 742.625 o
    316.5 756.5 o
    304.125 777.375 o
    300 801 o
    304.75 823.25 o
    319 842 o
    339 855 o
    361 860 o
    384.375 856.375 o
    402.5 843.5 o
    414.125 824.125 o
    418 801 o
    414.125 778.75 o
    402.5 760 o
    384.375 746.5 o
    0 0 z
  EndSpiro
184 740 m 0,119,120
 156 737 156 737 140 756.5 c 128,-1,121
 124 776 124 776 124 801 c 0,122,123
 124 825 124 825 143 842 c 128,-1,124
 162 859 162 859 184 860 c 0,125,126
 211 861 211 861 226.5 843.5 c 128,-1,127
 242 826 242 826 242 801 c 0,128,129
 242 778 242 778 226.5 760.5 c 128,-1,130
 211 743 211 743 184 740 c 0,119,120
  Spiro
    184 740 o
    159 742.625 o
    140 756.5 o
    128 777.375 o
    124 801 o
    128.75 823.25 o
    143 842 o
    162.75 855 o
    184 860 o
    208.125 856.375 o
    226.5 843.5 o
    238.125 824.125 o
    242 801 o
    238.125 779.375 o
    226.5 760.5 o
    208.125 746.625 o
    0 0 z
  EndSpiro
EndSplineSet
Validated: 33
EndChar

StartChar: F
Encoding: 70 70 17
Width: 550
GlyphClass: 1
InSpiro: 1
Flags: W
LayerCount: 2
Fore
SplineSet
139 23 m 1,0,-1
 133.25 4.375 l 1,1,-1
 120 -9.5 l 1,2,-1
 102.5 -17.875 l 1,3,-1
 84 -20 l 1,4,-1
 68 -17 l 1,5,-1
 54 -8 l 1,6,-1
 44.75 7 l 1,7,-1
 43 28 l 1,8,-1
 43.875 53.375 l 1,9,-1
 44.5 89.5 l 1,10,-1
 44.75 134.125 l 1,11,-1
 44.5 185 l 1,12,-1
 43.75 241.125 l 1,13,-1
 42.5 301.5 l 1,14,-1
 40.875 363.625 l 1,15,-1
 39 425 l 1,16,-1
 38.125 461.125 l 1,17,-1
 37.5 491.5 l 1,18,-1
 37.375 517.5 l 1,19,-1
 38 540.5 l 1,20,-1
 39 561.125 l 1,21,-1
 40 580 l 1,22,-1
 40.75 598.25 l 1,23,-1
 41 617 l 1,24,-1
 45.25 640.25 l 1,25,-1
 56 656 l 1,26,-1
 70.75 665 l 1,27,-1
 87 668 l 1,28,-1
 97.875 667.75 l 1,29,-1
 108.5 665 l 1,30,-1
 118.125 659.75 l 1,31,-1
 167 666 l 1,32,-1
 211 672 l 1,33,-1
 258.125 673.75 l 1,34,-1
 303.5 675 l 1,35,-1
 350 671.75 l 1,36,-1
 393.75 665.25 l 1,37,-1
 432.375 658.5 l 1,38,-1
 477.753205072 642.827427217 l 1,39,-1
 494.320388487 631.142220385 l 1,40,-1
 501.724875984 619.129136272 l 1,41,-1
 502.75853815 606.922184666 l 1,42,-1
 500.213245573 594.655375354 l 1,43,-1
 492.084211821 582.120546465 l 1,44,-1
 479.811595418 571.961264422 l 1,45,-1
 456 569 l 1,46,-1
 434 575 l 1,47,-1
 377 587 l 1,48,-1
 294 593 l 1,49,-1
 211 586 l 1,50,-1
 134 572 l 1,51,-1
 132.75 531.625 l 1,52,-1
 131 486.5 l 1,53,-1
 129.75 435.125 l 1,54,-1
 130 376 l 1,55,-1
 155 383 l 1,56,-1
 192 391 l 1,57,-1
 238 395 l 1,58,-1
 282 398 l 1,59,-1
 318.5 397.375 l 1,60,-1
 355.625 393.875 l 1,61,-1
 387 390.125 l 1,62,-1
 410.125 386.875 l 1,63,-1
 430 381.625 l 1,64,-1
 441.625 373.875 l 1,65,-1
 447.5 363.875 l 1,66,-1
 450.125 351.875 l 1,67,-1
 448.25 337.125 l 1,68,-1
 442.625 322.875 l 1,69,-1
 430.75 312.875 l 1,70,-1
 410.125 310.875 l 1,71,-1
 379 311 l 1,72,-1
 346.5 314 l 1,73,-1
 308.125 316.625 l 1,74,-1
 267 318.5 l 1,75,-1
 236 315 l 1,76,-1
 192 307 l 1,77,-1
 153 300 l 1,78,-1
 131 296 l 1,79,-1
 132 256.875 l 1,80,-1
 133 217.5 l 1,81,-1
 134 179 l 1,82,-1
 135 142.5 l 1,83,-1
 136 108.125 l 1,84,-1
 137 76 l 1,85,-1
 138 47.25 l 1,86,-1
 139 23 l 1,0,-1
  Spiro
    139 23 o
    133.25 4.375 o
    120 -9.5 o
    102.5 -17.875 o
    84 -20 o
    68 -17 o
    54 -8 o
    44.75 7 o
    43 28 o
    43.875 53.375 o
    44.5 89.5 o
    44.75 134.125 o
    44.5 185 o
    43.75 241.125 o
    42.5 301.5 o
    40.875 363.625 o
    39 425 o
    38.125 461.125 o
    37.5 491.5 o
    37.375 517.5 o
    38 540.5 o
    39 561.125 o
    40 580 o
    40.75 598.25 o
    41 617 o
    45.25 640.25 o
    56 656 o
    70.75 665 o
    87 668 o
    97.875 667.75 o
    108.5 665 o
    118.125 659.75 o
    167 666 o
    211 672 o
    258.125 673.75 o
    303.5 675 o
    350 671.75 o
    393.75 665.25 o
    432.375 658.5 o
    477.753 642.827 o
    494.32 631.142 o
    501.725 619.129 o
    502.759 606.922 o
    500.213 594.655 o
    492.084 582.121 o
    479.812 571.961 o
    456 569 o
    434 575 o
    377 587 o
    294 593 o
    211 586 o
    134 572 v
    132.75 531.625 o
    131 486.5 o
    129.75 435.125 o
    130 376 v
    155 383 o
    192 391 o
    238 395 o
    282 398 o
    318.5 397.375 o
    355.625 393.875 o
    387 390.125 o
    410.125 386.875 o
    430 381.625 o
    441.625 373.875 o
    447.5 363.875 o
    450.125 351.875 o
    448.25 337.125 o
    442.625 322.875 o
    430.75 312.875 o
    410.125 310.875 o
    379 311 o
    346.5 314 o
    308.125 316.625 o
    267 318.5 o
    236 315 o
    192 307 o
    153 300 o
    131 296 v
    132 256.875 o
    133 217.5 o
    134 179 o
    135 142.5 o
    136 108.125 o
    137 76 o
    138 47.25 o
    0 0 z
  EndSpiro
EndSplineSet
Validated: 1
EndChar

StartChar: G
Encoding: 71 71 18
Width: 550
GlyphClass: 1
InSpiro: 1
Flags: W
LayerCount: 2
Fore
SplineSet
223.00083125 319.1248425 m 1,0,-1
 242.500709375 326.574837187 l 1,1,-1
 271.00053125 333.18143625 l 1,2,-1
 305.250317188 338.663507812 l 1,3,-1
 342.0000875 342.73992 l 1,4,-1
 379.624852344 345.55123875 l 1,5,-1
 416.499621875 347.23803 l 1,6,-1
 449.374416406 347.80029375 l 1,7,-1
 474.99925625 347.23803 l 1,8,-1
 495.874125781 344.145579375 l 1,9,-1
 508.499046875 337.1172825 l 1,10,-1
 515.374003906 326.715403125 l 1,11,-1
 518.99898125 313.502205 l 1,12,-1
 518.99898125 299.023913437 l 1,13,-1
 516.99899375 284.82675375 l 1,14,-1
 510.99903125 272.878649062 l 1,15,-1
 498.99910625 265.1475225 l 1,16,-1
 498 255.5 l 1,17,-1
 497 247 l 1,18,-1
 496 237.75 l 1,19,-1
 495 228 l 1,20,-1
 487.875 195.25 l 1,21,-1
 472.5 155 l 1,22,-1
 449.875 111.75 l 1,23,-1
 421 70 l 1,24,-1
 385.875 31.875 l 1,25,-1
 344.5 -0.5 l 1,26,-1
 297.875 -22.375 l 1,27,-1
 247 -29 l 1,28,-1
 200.5 -24 l 1,29,-1
 159 -9 l 1,30,-1
 123 13.875 l 1,31,-1
 93 42.5 l 1,32,-1
 69.25 76.125 l 1,33,-1
 52 114 l 1,34,-1
 41.5 154 l 1,35,-1
 38 194 l 1,36,-1
 41.03125 288.2971875 l 1,37,-1
 63.155 398.6896875 l 1,38,-1
 98 484 l 1,39,-1
 140.925 556.1459375 l 1,40,-1
 190.54125 614.4821875 l 1,41,-1
 245.46 658.3634375 l 1,42,-1
 306 680 l 1,43,-1
 362 682 l 1,44,-1
 389 675 l 1,45,-1
 407.984082665 668.375441556 l 1,46,-1
 431.131220085 660.528348314 l 1,47,-1
 452.934541109 651.475528472 l 1,48,-1
 472.671748662 641.78143508 l 1,49,-1
 489.620545669 632.01052119 l 1,50,-1
 502.697486515 623.009466378 l 1,51,-1
 510.819125588 615.624950222 l 1,52,-1
 519.73022883 600.946093188 l 1,53,-1
 522.006256414 585.40659168 l 1,54,-1
 520.31804258 571.160321096 l 1,55,-1
 517.143617842 559.556060116 l 1,56,-1
 510.147610577 550.241608583 l 1,57,-1
 498.574370652 543.730983218 l 1,58,-1
 484.517276986 541.390845904 l 1,59,-1
 469.958965496 542.96662875 l 1,60,-1
 461.225324927 546.998240634 l 1,61,-1
 450.623547046 553.040065722 l 1,62,-1
 438.465584631 560.127570186 l 1,63,-1
 425.063390458 567.2962202 l 1,64,-1
 410.769795139 574.208275377 l 1,65,-1
 395.937629284 580.525995333 l 1,66,-1
 380.87884567 585.28484624 l 1,67,-1
 357 592 l 1,68,-1
 327 590 l 1,69,-1
 287.95875 566.51875 l 1,70,-1
 247.75 534.75 l 1,71,-1
 211.5 488.5 l 1,72,-1
 179.875 432.75 l 1,73,-1
 154 368.5 l 1,74,-1
 136.75 298.125 l 1,75,-1
 131.696524 223.775 l 1,76,-1
 134.183166813 194.289375 l 1,77,-1
 141.64309525 165.0425 l 1,78,-1
 153.205984328 137.58625 l 1,79,-1
 168.001509062 113.4725 l 1,80,-1
 186.154001594 93.059375 l 1,81,-1
 207.787794063 76.705 l 1,82,-1
 232.032561484 65.96125 l 1,83,-1
 253 61 l 1,84,-1
 276.614127469 66.54157125 l 1,85,-1
 304.71319125 82.29907125 l 1,86,-1
 331.071605063 105.57719625 l 1,87,-1
 354.4460475 133.39157125 l 1,88,-1
 374.960850703 164.54844625 l 1,89,-1
 392.740346813 197.85407125 l 1,90,-1
 407.62475625 230.40907125 l 1,91,-1
 416.9993125 260.68301125 l 1,92,-1
 390.999475 259.136785938 l 1,93,-1
 362.99965 256.747165 l 1,94,-1
 334.499828125 253.654714375 l 1,95,-1
 307 250 l 1,96,-1
 291.250404688 246.59281875 l 1,97,-1
 268.00055 240.97018125 l 1,98,-1
 248.500671875 234.644714062 l 1,99,-1
 234.0007625 228.038115 l 1,100,-1
 218.375860156 223.258873125 l 1,101,-1
 203.500953125 229.1626425 l 1,102,-1
 192.126024219 241.813576875 l 1,103,-1
 187.00105625 257.27583 l 1,104,-1
 187.251054687 274.003176562 l 1,105,-1
 192.001025 290.44939125 l 1,106,-1
 203.250954687 305.771078437 l 1,107,-1
 223.00083125 319.1248425 l 1,0,-1
  Spiro
    223.001 319.125 o
    242.501 326.575 o
    271.001 333.181 o
    305.25 338.664 o
    342 342.74 o
    379.625 345.551 o
    416.5 347.238 o
    449.374 347.8 o
    474.999 347.238 o
    495.874 344.146 o
    508.499 337.117 o
    515.374 326.715 o
    518.999 313.502 o
    518.999 299.024 o
    516.999 284.827 o
    510.999 272.879 o
    498.999 265.148 v
    498 255.5 o
    497 247 o
    496 237.75 o
    495 228 o
    487.875 195.25 o
    472.5 155 o
    449.875 111.75 o
    421 70 o
    385.875 31.875 o
    344.5 -0.5 o
    297.875 -22.375 o
    247 -29 o
    200.5 -24 o
    159 -9 o
    123 13.875 o
    93 42.5 o
    69.25 76.125 o
    52 114 o
    41.5 154 o
    38 194 o
    41.0312 288.297 o
    63.155 398.69 o
    98 484 o
    140.925 556.146 o
    190.541 614.482 o
    245.46 658.363 o
    306 680 o
    362 682 o
    389 675 o
    407.984 668.375 o
    431.131 660.528 o
    452.935 651.476 o
    472.672 641.781 o
    489.621 632.011 o
    502.697 623.009 o
    510.819 615.625 o
    519.73 600.946 o
    522.006 585.407 o
    520.318 571.16 o
    517.144 559.556 o
    510.148 550.242 o
    498.574 543.731 o
    484.517 541.391 o
    469.959 542.967 o
    461.225 546.998 o
    450.624 553.04 o
    438.466 560.128 o
    425.063 567.296 o
    410.77 574.208 o
    395.938 580.526 o
    380.879 585.285 o
    357 592 o
    327 590 o
    287.959 566.519 o
    247.75 534.75 o
    211.5 488.5 o
    179.875 432.75 o
    154 368.5 o
    136.75 298.125 o
    131.697 223.775 o
    134.183 194.289 o
    141.643 165.042 o
    153.206 137.586 o
    168.002 113.472 o
    186.154 93.0594 o
    207.788 76.705 o
    232.033 65.9612 o
    253 61 o
    276.614 66.5416 o
    304.713 82.2991 o
    331.072 105.577 o
    354.446 133.392 o
    374.961 164.548 o
    392.74 197.854 o
    407.625 230.409 o
    416.999 260.683 v
    390.999 259.137 o
    363 256.747 o
    334.5 253.655 o
    307 250 o
    291.25 246.593 o
    268.001 240.97 o
    248.501 234.645 o
    234.001 228.038 o
    218.376 223.259 o
    203.501 229.163 o
    192.126 241.814 o
    187.001 257.276 o
    187.251 274.003 o
    192.001 290.449 o
    203.251 305.771 o
    0 0 z
  EndSpiro
EndSplineSet
Validated: 1
EndChar

StartChar: H
Encoding: 72 72 19
Width: 550
GlyphClass: 1
InSpiro: 1
Flags: W
LayerCount: 2
Fore
SplineSet
151 620 m 1,0,-1
 150.375 600.375 l 1,1,-1
 148.5 579.5 l 1,2,-1
 146.625 554.375 l 1,3,-1
 146 522 l 1,4,-1
 142 472 l 1,5,-1
 140 437 l 1,6,-1
 141 374 l 1,7,-1
 140 330 l 1,8,-1
 215.963451298 344.802127403 l 1,9,-1
 286 357 l 1,10,-1
 344.291769145 368.76757834 l 1,11,-1
 400.734632921 380.501864161 l 1,12,-1
 399.875 405.875 l 1,13,-1
 399.5 415.5 l 1,14,-1
 399.125 425.125 l 1,15,-1
 399 435 l 1,16,-1
 397.875 494.75 l 1,17,-1
 398.5 542 l 1,18,-1
 405.702154559 593.535574539 l 1,19,-1
 415.937856971 627.807407304 l 1,20,-1
 425.995856217 649.195760471 l 1,21,-1
 440.418245241 661.670522786 l 1,22,-1
 456.980180395 666.596454572 l 1,23,-1
 473.456818029 665.338316151 l 1,24,-1
 490.224888856 658.830826179 l 1,25,-1
 503.282517559 647.098863101 l 1,26,-1
 509.957048507 629.81545309 l 1,27,-1
 507.575826071 606.653622318 l 1,28,-1
 494.5 567.375 l 1,29,-1
 493 501.5 l 1,30,-1
 492.25 422.375 l 1,31,-1
 490 327 l 1,32,-1
 485.880392269 246.571336604 l 1,33,-1
 490.796038111 161.801931445 l 1,34,-1
 494.633676775 86.4744752656 l 1,35,-1
 499.543820379 27.5531835724 l 1,36,-1
 495.440952247 8.49748631174 l 1,37,-1
 483.452211309 -6.48077178928 l 1,38,-1
 466.74975668 -16.350859648 l 1,39,-1
 448.50574747 -20.0820461819 l 1,40,-1
 432.304999883 -18.4896336571 l 1,41,-1
 417.573069443 -10.7455891382 l 1,42,-1
 407.049466705 3.39004970125 l 1,43,-1
 403.473702223 24.1572451876 l 1,44,-1
 402.903767423 43.5565086871 l 1,45,-1
 401.9938806 69.7018401245 l 1,46,-1
 400.728592331 101.337100051 l 1,47,-1
 399.092453194 137.206149017 l 1,48,-1
 396.847324153 177.162649058 l 1,49,-1
 396 221 l 1,50,-1
 396 272 l 1,51,-1
 396.625 289.75 l 1,52,-1
 372.161952388 285.933930833 l 1,53,-1
 343.669868755 280.651479199 l 1,54,-1
 311 274 l 1,55,-1
 276.362412901 266.733635024 l 1,56,-1
 240.594477903 259.52696617 l 1,57,-1
 204.533565451 253.054575337 l 1,58,-1
 172 246 l 1,59,-1
 142 240 l 1,60,-1
 141.641001257 230.204204823 l 1,61,-1
 140.862707206 225.124784741 l 1,62,-1
 140.084413154 220.045364659 l 1,63,-1
 139.614529154 215.693875371 l 1,64,-1
 137.299781911 175.071888588 l 1,65,-1
 133.970614829 126.683701532 l 1,66,-1
 130.616006514 66.8869386346 l 1,67,-1
 127.900025071 18.3248166174 l 1,68,-1
 120.698079251 0.211697024043 l 1,69,-1
 106.394394917 -12.5743398706 l 1,70,-1
 88.2880250387 -19.5421225038 l 1,71,-1
 69.6780225854 -20.200479313 l 1,72,-1
 53.9646862507 -15.9471204955 l 1,73,-1
 40.7186303238 -5.8703153281 l 1,74,-1
 32.6812774801 9.81290689393 l 1,75,-1
 32.5940503949 30.8855168755 l 1,76,-1
 36.4964240366 61.1720069323 l 1,77,-1
 40.7435523481 108.484393271 l 1,78,-1
 45.7674170842 168.775962194 l 1,79,-1
 52 238 l 1,80,-1
 53.25 304.25 l 1,81,-1
 52 357 l 1,82,-1
 50 416 l 1,83,-1
 52 486 l 1,84,-1
 53 511 l 1,85,-1
 54 542.5 l 1,86,-1
 54.125 557.875 l 1,87,-1
 54.5 571 l 1,88,-1
 55.125 582.5 l 1,89,-1
 56 593 l 1,90,-1
 56.75 604 l 1,91,-1
 57 617 l 1,92,-1
 61.25 640.25 l 1,93,-1
 72 656 l 1,94,-1
 86.75 665 l 1,95,-1
 103 668 l 1,96,-1
 120.875 666 l 1,97,-1
 136.5 658 l 1,98,-1
 147.375 643 l 1,99,-1
 151 620 l 1,0,-1
  Spiro
    151 620 o
    150.375 600.375 o
    148.5 579.5 o
    146.625 554.375 o
    146 522 o
    142 472 o
    140 437 o
    141 374 o
    140 330 v
    215.963 344.802 o
    286 357 o
    344.292 368.768 o
    400.735 380.502 v
    399.875 405.875 o
    399.5 415.5 o
    399.125 425.125 o
    399 435 o
    397.875 494.75 o
    398.5 542 o
    405.702 593.536 o
    415.938 627.807 o
    425.996 649.196 o
    440.418 661.671 o
    456.98 666.596 o
    473.457 665.338 o
    490.225 658.831 o
    503.283 647.099 o
    509.957 629.815 o
    507.576 606.654 o
    494.5 567.375 o
    493 501.5 o
    492.25 422.375 o
    490 327 o
    485.88 246.571 o
    490.796 161.802 o
    494.634 86.4745 o
    499.544 27.5532 o
    495.441 8.49749 o
    483.452 -6.48077 o
    466.75 -16.3509 o
    448.506 -20.082 o
    432.305 -18.4896 o
    417.573 -10.7456 o
    407.049 3.39005 o
    403.474 24.1572 o
    402.904 43.5565 o
    401.994 69.7018 o
    400.729 101.337 o
    399.092 137.206 o
    396.847 177.163 o
    396 221 o
    396 272 o
    396.625 289.75 v
    372.162 285.934 o
    343.67 280.651 o
    311 274 o
    276.362 266.734 o
    240.594 259.527 o
    204.534 253.055 o
    172 246 o
    142 240 v
    141.641 230.204 o
    140.863 225.125 o
    140.084 220.045 o
    139.615 215.694 o
    137.3 175.072 o
    133.971 126.684 o
    130.616 66.8869 o
    127.9 18.3248 o
    120.698 0.211697 o
    106.394 -12.5743 o
    88.288 -19.5421 o
    69.678 -20.2005 o
    53.9647 -15.9471 o
    40.7186 -5.87032 o
    32.6813 9.81291 o
    32.5941 30.8855 o
    36.4964 61.172 o
    40.7436 108.484 o
    45.7674 168.776 o
    52 238 o
    53.25 304.25 o
    52 357 o
    50 416 o
    52 486 o
    53 511 o
    54 542.5 o
    54.125 557.875 o
    54.5 571 o
    55.125 582.5 o
    56 593 o
    56.75 604 o
    57 617 o
    61.25 640.25 o
    72 656 o
    86.75 665 o
    103 668 o
    120.875 666 o
    136.5 658 o
    147.375 643 o
    0 0 z
  EndSpiro
EndSplineSet
Validated: 1
EndChar

StartChar: I
Encoding: 73 73 20
Width: 550
GlyphClass: 1
Flags: W
LayerCount: 2
Fore
SplineSet
85 62 m 4,0,1
 114 63 114 63 150 64 c 132,-1,2
 186 65 186 65 223 66 c 5,3,4
 224 90 224 90 226 126.5 c 132,-1,5
 228 163 228 163 228.5 207 c 132,-1,6
 229 251 229 251 229 302 c 132,-1,7
 229 353 229 353 228 405 c 4,8,9
 225 476 225 476 227 513 c 132,-1,10
 229 550 229 550 230 584 c 5,11,12
 190 585 190 585 154 585 c 132,-1,13
 118 585 118 585 94 584 c 4,14,15
 69 583 69 583 57.5 594.5 c 132,-1,16
 46 606 46 606 46 621 c 4,17,18
 45 636 45 636 56.5 648.5 c 132,-1,19
 68 661 68 661 93 662 c 4,20,21
 195 665 195 665 288.5 664 c 132,-1,22
 382 663 382 663 463 655 c 4,23,24
 487 653 487 653 496 641.5 c 132,-1,25
 505 630 505 630 506 617 c 4,26,27
 506 602 506 602 496 585 c 132,-1,28
 486 568 486 568 461 572 c 4,29,30
 442 575 442 575 405 577.5 c 132,-1,31
 368 580 368 580 324 582 c 5,32,33
 323 542 323 542 322 486.5 c 132,-1,34
 321 431 321 431 323 350 c 4,35,36
 325 265 325 265 321.5 192.5 c 132,-1,37
 318 120 318 120 318 67 c 5,38,39
 369 67 369 67 410.5 66.5 c 132,-1,40
 452 66 452 66 468 66 c 4,41,42
 492 66 492 66 499.5 55 c 132,-1,43
 507 44 507 44 508 31 c 4,44,45
 508 16 508 16 500.5 1 c 132,-1,46
 493 -14 493 -14 468 -10 c 4,47,48
 441 -6 441 -6 389 -6 c 132,-1,49
 337 -6 337 -6 280 -7.5 c 132,-1,50
 223 -9 223 -9 169.5 -11 c 132,-1,51
 116 -13 116 -13 87 -13 c 4,52,53
 62 -13 62 -13 50.5 -3.5 c 132,-1,54
 39 6 39 6 39 21 c 4,55,56
 38 36 38 36 48.5 48.5 c 132,-1,57
 59 61 59 61 85 62 c 4,0,1
EndSplineSet
Validated: 33
EndChar

StartChar: Igrave
Encoding: 204 204 21
Width: 550
GlyphClass: 1
Flags: W
LayerCount: 2
Fore
SplineSet
249 761 m 4,0,1
 222 788 222 788 182.5 830 c 132,-1,2
 143 872 143 872 113 912 c 4,3,4
 100 929 100 929 102 949 c 132,-1,5
 104 969 104 969 113 979 c 4,6,7
 126 989 126 989 148 988 c 132,-1,8
 170 987 170 987 183 971 c 4,9,10
 209 935 209 935 240 891 c 132,-1,11
 271 847 271 847 304 817 c 4,12,13
 322 800 322 800 325.5 779.5 c 132,-1,14
 329 759 329 759 318 749 c 4,15,16
 308 739 308 739 288 740.5 c 132,-1,17
 268 742 268 742 249 761 c 4,0,1
85 62 m 0,18,19
 114 63 114 63 150 64 c 128,-1,20
 186 65 186 65 223 66 c 1,21,22
 224 90 224 90 226 126.5 c 128,-1,23
 228 163 228 163 228.5 207 c 128,-1,24
 229 251 229 251 229 302 c 128,-1,25
 229 353 229 353 228 405 c 0,26,27
 225 476 225 476 227 513 c 128,-1,28
 229 550 229 550 230 584 c 1,29,30
 190 585 190 585 154 585 c 128,-1,31
 118 585 118 585 94 584 c 0,32,33
 69 583 69 583 57.5 594.5 c 128,-1,34
 46 606 46 606 46 621 c 0,35,36
 45 636 45 636 56.5 648.5 c 128,-1,37
 68 661 68 661 93 662 c 0,38,39
 195 665 195 665 288.5 664 c 128,-1,40
 382 663 382 663 463 655 c 0,41,42
 487 653 487 653 496 641.5 c 128,-1,43
 505 630 505 630 506 617 c 0,44,45
 506 602 506 602 496 585 c 128,-1,46
 486 568 486 568 461 572 c 0,47,48
 442 575 442 575 405 577.5 c 128,-1,49
 368 580 368 580 324 582 c 1,50,51
 323 542 323 542 322 486.5 c 128,-1,52
 321 431 321 431 323 350 c 0,53,54
 325 265 325 265 321.5 192.5 c 128,-1,55
 318 120 318 120 318 67 c 1,56,57
 369 67 369 67 410.5 66.5 c 128,-1,58
 452 66 452 66 468 66 c 0,59,60
 492 66 492 66 499.5 55 c 128,-1,61
 507 44 507 44 508 31 c 0,62,63
 508 16 508 16 500.5 1 c 128,-1,64
 493 -14 493 -14 468 -10 c 0,65,66
 441 -6 441 -6 389 -6 c 128,-1,67
 337 -6 337 -6 280 -7.5 c 128,-1,68
 223 -9 223 -9 169.5 -11 c 128,-1,69
 116 -13 116 -13 87 -13 c 0,70,71
 62 -13 62 -13 50.5 -3.5 c 128,-1,72
 39 6 39 6 39 21 c 0,73,74
 38 36 38 36 48.5 48.5 c 128,-1,75
 59 61 59 61 85 62 c 0,18,19
EndSplineSet
Validated: 33
EndChar

StartChar: Iacute
Encoding: 205 205 22
Width: 550
GlyphClass: 1
Flags: W
LayerCount: 2
Fore
SplineSet
460 912 m 4,0,1
 430 872 430 872 390.5 830 c 132,-1,2
 351 788 351 788 324 761 c 4,3,4
 305 742 305 742 285 740.5 c 132,-1,5
 265 739 265 739 255 749 c 4,6,7
 244 759 244 759 247.5 779.5 c 132,-1,8
 251 800 251 800 269 817 c 4,9,10
 302 847 302 847 333 891 c 132,-1,11
 364 935 364 935 390 971 c 4,12,13
 403 987 403 987 425 988 c 132,-1,14
 447 989 447 989 460 979 c 4,15,16
 469 969 469 969 471 949 c 132,-1,17
 473 929 473 929 460 912 c 4,0,1
85 62 m 0,18,19
 114 63 114 63 150 64 c 128,-1,20
 186 65 186 65 223 66 c 1,21,22
 224 90 224 90 226 126.5 c 128,-1,23
 228 163 228 163 228.5 207 c 128,-1,24
 229 251 229 251 229 302 c 128,-1,25
 229 353 229 353 228 405 c 0,26,27
 225 476 225 476 227 513 c 128,-1,28
 229 550 229 550 230 584 c 1,29,30
 190 585 190 585 154 585 c 128,-1,31
 118 585 118 585 94 584 c 0,32,33
 69 583 69 583 57.5 594.5 c 128,-1,34
 46 606 46 606 46 621 c 0,35,36
 45 636 45 636 56.5 648.5 c 128,-1,37
 68 661 68 661 93 662 c 0,38,39
 195 665 195 665 288.5 664 c 128,-1,40
 382 663 382 663 463 655 c 0,41,42
 487 653 487 653 496 641.5 c 128,-1,43
 505 630 505 630 506 617 c 0,44,45
 506 602 506 602 496 585 c 128,-1,46
 486 568 486 568 461 572 c 0,47,48
 442 575 442 575 405 577.5 c 128,-1,49
 368 580 368 580 324 582 c 1,50,51
 323 542 323 542 322 486.5 c 128,-1,52
 321 431 321 431 323 350 c 0,53,54
 325 265 325 265 321.5 192.5 c 128,-1,55
 318 120 318 120 318 67 c 1,56,57
 369 67 369 67 410.5 66.5 c 128,-1,58
 452 66 452 66 468 66 c 0,59,60
 492 66 492 66 499.5 55 c 128,-1,61
 507 44 507 44 508 31 c 0,62,63
 508 16 508 16 500.5 1 c 128,-1,64
 493 -14 493 -14 468 -10 c 0,65,66
 441 -6 441 -6 389 -6 c 128,-1,67
 337 -6 337 -6 280 -7.5 c 128,-1,68
 223 -9 223 -9 169.5 -11 c 128,-1,69
 116 -13 116 -13 87 -13 c 0,70,71
 62 -13 62 -13 50.5 -3.5 c 128,-1,72
 39 6 39 6 39 21 c 0,73,74
 38 36 38 36 48.5 48.5 c 128,-1,75
 59 61 59 61 85 62 c 0,18,19
EndSplineSet
Validated: 33
EndChar

StartChar: Icircumflex
Encoding: 206 206 23
Width: 550
GlyphClass: 1
Flags: W
LayerCount: 2
Fore
SplineSet
423 744 m 0,0,1
 418 745 418 745 403 771 c 128,-1,2
 388 797 388 797 367 832 c 128,-1,3
 346 867 346 867 322 906 c 128,-1,4
 298 945 298 945 275 971 c 1,5,6
 254 946 254 946 230.5 907.5 c 128,-1,7
 207 869 207 869 185.5 833.5 c 128,-1,8
 164 798 164 798 147 772 c 128,-1,9
 130 746 130 746 124 744 c 0,10,11
 100 738 100 738 85.5 742.5 c 128,-1,12
 71 747 71 747 64 760 c 0,13,14
 56 772 56 772 60.5 786 c 128,-1,15
 65 800 65 800 79 820 c 0,16,17
 91 837 91 837 113.5 869.5 c 128,-1,18
 136 902 136 902 160.5 937.5 c 128,-1,19
 185 973 185 973 207.5 1006 c 128,-1,20
 230 1039 230 1039 243 1058 c 0,21,22
 247 1065 247 1065 256 1066 c 128,-1,23
 265 1067 265 1067 273 1067 c 0,24,25
 280 1067 280 1067 288 1065.5 c 128,-1,26
 296 1064 296 1064 301 1058 c 0,27,28
 314 1041 314 1041 335 1009.5 c 128,-1,29
 356 978 356 978 378 943.5 c 128,-1,30
 400 909 400 909 420 876.5 c 128,-1,31
 440 844 440 844 452 826 c 0,32,33
 466 805 466 805 479.5 787 c 128,-1,34
 493 769 493 769 485 757 c 0,35,36
 478 744 478 744 463 741.5 c 128,-1,37
 448 739 448 739 423 744 c 0,0,1
85 62 m 0,38,39
 114 63 114 63 150 64 c 128,-1,40
 186 65 186 65 223 66 c 1,41,42
 224 90 224 90 226 126.5 c 128,-1,43
 228 163 228 163 228.5 207 c 128,-1,44
 229 251 229 251 229 302 c 128,-1,45
 229 353 229 353 228 405 c 0,46,47
 225 476 225 476 227 513 c 128,-1,48
 229 550 229 550 230 584 c 1,49,50
 190 585 190 585 154 585 c 128,-1,51
 118 585 118 585 94 584 c 0,52,53
 69 583 69 583 57.5 594.5 c 128,-1,54
 46 606 46 606 46 621 c 0,55,56
 45 636 45 636 56.5 648.5 c 128,-1,57
 68 661 68 661 93 662 c 0,58,59
 195 665 195 665 288.5 664 c 128,-1,60
 382 663 382 663 463 655 c 0,61,62
 487 653 487 653 496 641.5 c 128,-1,63
 505 630 505 630 506 617 c 0,64,65
 506 602 506 602 496 585 c 128,-1,66
 486 568 486 568 461 572 c 0,67,68
 442 575 442 575 405 577.5 c 128,-1,69
 368 580 368 580 324 582 c 1,70,71
 323 542 323 542 322 486.5 c 128,-1,72
 321 431 321 431 323 350 c 0,73,74
 325 265 325 265 321.5 192.5 c 128,-1,75
 318 120 318 120 318 67 c 1,76,77
 369 67 369 67 410.5 66.5 c 128,-1,78
 452 66 452 66 468 66 c 0,79,80
 492 66 492 66 499.5 55 c 128,-1,81
 507 44 507 44 508 31 c 0,82,83
 508 16 508 16 500.5 1 c 128,-1,84
 493 -14 493 -14 468 -10 c 0,85,86
 441 -6 441 -6 389 -6 c 128,-1,87
 337 -6 337 -6 280 -7.5 c 128,-1,88
 223 -9 223 -9 169.5 -11 c 128,-1,89
 116 -13 116 -13 87 -13 c 0,90,91
 62 -13 62 -13 50.5 -3.5 c 128,-1,92
 39 6 39 6 39 21 c 0,93,94
 38 36 38 36 48.5 48.5 c 128,-1,95
 59 61 59 61 85 62 c 0,38,39
EndSplineSet
Validated: 33
EndChar

StartChar: Idieresis
Encoding: 207 207 24
Width: 550
GlyphClass: 1
Flags: W
LayerCount: 2
Fore
SplineSet
363 740 m 0,0,1
 335 737 335 737 318.5 756.5 c 128,-1,2
 302 776 302 776 302 801 c 0,3,4
 302 825 302 825 321 842 c 128,-1,5
 340 859 340 859 363 860 c 0,6,7
 389 861 389 861 404.5 843.5 c 128,-1,8
 420 826 420 826 420 801 c 0,9,10
 420 777 420 777 404.5 760 c 128,-1,11
 389 743 389 743 363 740 c 0,0,1
186 740 m 0,12,13
 158 737 158 737 142 756.5 c 128,-1,14
 126 776 126 776 126 801 c 0,15,16
 126 825 126 825 145 842 c 128,-1,17
 164 859 164 859 186 860 c 0,18,19
 213 861 213 861 228.5 843.5 c 128,-1,20
 244 826 244 826 244 801 c 0,21,22
 244 778 244 778 228.5 760.5 c 128,-1,23
 213 743 213 743 186 740 c 0,12,13
85 62 m 0,24,25
 114 63 114 63 150 64 c 128,-1,26
 186 65 186 65 223 66 c 1,27,28
 224 90 224 90 226 126.5 c 128,-1,29
 228 163 228 163 228.5 207 c 128,-1,30
 229 251 229 251 229 302 c 128,-1,31
 229 353 229 353 228 405 c 0,32,33
 225 476 225 476 227 513 c 128,-1,34
 229 550 229 550 230 584 c 1,35,36
 190 585 190 585 154 585 c 128,-1,37
 118 585 118 585 94 584 c 0,38,39
 69 583 69 583 57.5 594.5 c 128,-1,40
 46 606 46 606 46 621 c 0,41,42
 45 636 45 636 56.5 648.5 c 128,-1,43
 68 661 68 661 93 662 c 0,44,45
 195 665 195 665 288.5 664 c 128,-1,46
 382 663 382 663 463 655 c 0,47,48
 487 653 487 653 496 641.5 c 128,-1,49
 505 630 505 630 506 617 c 0,50,51
 506 602 506 602 496 585 c 128,-1,52
 486 568 486 568 461 572 c 0,53,54
 442 575 442 575 405 577.5 c 128,-1,55
 368 580 368 580 324 582 c 1,56,57
 323 542 323 542 322 486.5 c 128,-1,58
 321 431 321 431 323 350 c 0,59,60
 325 265 325 265 321.5 192.5 c 128,-1,61
 318 120 318 120 318 67 c 1,62,63
 369 67 369 67 410.5 66.5 c 128,-1,64
 452 66 452 66 468 66 c 0,65,66
 492 66 492 66 499.5 55 c 128,-1,67
 507 44 507 44 508 31 c 0,68,69
 508 16 508 16 500.5 1 c 128,-1,70
 493 -14 493 -14 468 -10 c 0,71,72
 441 -6 441 -6 389 -6 c 128,-1,73
 337 -6 337 -6 280 -7.5 c 128,-1,74
 223 -9 223 -9 169.5 -11 c 128,-1,75
 116 -13 116 -13 87 -13 c 0,76,77
 62 -13 62 -13 50.5 -3.5 c 128,-1,78
 39 6 39 6 39 21 c 0,79,80
 38 36 38 36 48.5 48.5 c 128,-1,81
 59 61 59 61 85 62 c 0,24,25
EndSplineSet
Validated: 33
EndChar

StartChar: J
Encoding: 74 74 25
Width: 550
GlyphClass: 1
InSpiro: 1
Flags: W
LayerCount: 2
Fore
SplineSet
169 664 m 1,0,-1
 202.875 664 l 1,1,-1
 298.5 664 l 1,2,-1
 388.875 661.25 l 1,3,-1
 473 655 l 1,4,-1
 493.25 650.625 l 1,5,-1
 506 641.5 l 1,6,-1
 513 629.625 l 1,7,-1
 516 617 l 1,8,-1
 513.5 601.5 l 1,9,-1
 506 585 l 1,10,-1
 492.25 573.25 l 1,11,-1
 471 572 l 1,12,-1
 453.125 574.125 l 1,13,-1
 429.5 576.5 l 1,14,-1
 401.375 578.625 l 1,15,-1
 370 580 l 1,16,-1
 370.5 541.875 l 1,17,-1
 372 497.5 l 1,18,-1
 373.875 449.125 l 1,19,-1
 375.5 399 l 1,20,-1
 376.625 347.875 l 1,21,-1
 377 296.5 l 1,22,-1
 376.25 246.875 l 1,23,-1
 374 201 l 1,24,-1
 359.5 91.75 l 1,25,-1
 336 20 l 1,26,-1
 304 -19.75 l 1,27,-1
 264 -33 l 1,28,-1
 216.5 -26.75 l 1,29,-1
 174 -8 l 1,30,-1
 137 18.75 l 1,31,-1
 106 49 l 1,32,-1
 81 81 l 1,33,-1
 62 113 l 1,34,-1
 49.5 140.75 l 1,35,-1
 44 160 l 1,36,-1
 43.75 178.875 l 1,37,-1
 47 201.5 l 1,38,-1
 58 220.875 l 1,39,-1
 81 230 l 1,40,-1
 100.5 229.875 l 1,41,-1
 115 221.5 l 1,42,-1
 124 207.875 l 1,43,-1
 127 192 l 1,44,-1
 128.375 178.375 l 1,45,-1
 132.5 159.5 l 1,46,-1
 140.125 138 l 1,47,-1
 152 116.5 l 1,48,-1
 168.625 96.25 l 1,49,-1
 190.5 78.5 l 1,50,-1
 218.375 66.125 l 1,51,-1
 253 62 l 1,52,-1
 268.125 72.875 l 1,53,-1
 279.5 105.5 l 1,54,-1
 287.125 156.875 l 1,55,-1
 291 224 l 1,56,-1
 291.125 277.375 l 1,57,-1
 289.5 349.5 l 1,58,-1
 288.125 448.625 l 1,59,-1
 289 583 l 1,60,-1
 236.625 583.875 l 1,61,-1
 170 586 l 1,62,-1
 148.375 588.125 l 1,63,-1
 133.5 596.5 l 1,64,-1
 124.875 608.875 l 1,65,-1
 122 623 l 1,66,-1
 124.125 637.375 l 1,67,-1
 132.5 650.5 l 1,68,-1
 147.375 660.125 l 1,69,-1
 169 664 l 1,0,-1
  Spiro
    169 664 o
    202.875 664 o
    298.5 664 o
    388.875 661.25 o
    473 655 o
    493.25 650.625 o
    506 641.5 o
    513 629.625 o
    516 617 o
    513.5 601.5 o
    506 585 o
    492.25 573.25 o
    471 572 o
    453.125 574.125 o
    429.5 576.5 o
    401.375 578.625 o
    370 580 v
    370.5 541.875 o
    372 497.5 o
    373.875 449.125 o
    375.5 399 o
    376.625 347.875 o
    377 296.5 o
    376.25 246.875 o
    374 201 o
    359.5 91.75 o
    336 20 o
    304 -19.75 o
    264 -33 o
    216.5 -26.75 o
    174 -8 o
    137 18.75 o
    106 49 o
    81 81 o
    62 113 o
    49.5 140.75 o
    44 160 o
    43.75 178.875 o
    47 201.5 o
    58 220.875 o
    81 230 o
    100.5 229.875 o
    115 221.5 o
    124 207.875 o
    127 192 o
    128.375 178.375 o
    132.5 159.5 o
    140.125 138 o
    152 116.5 o
    168.625 96.25 o
    190.5 78.5 o
    218.375 66.125 o
    253 62 o
    268.125 72.875 o
    279.5 105.5 o
    287.125 156.875 o
    291 224 o
    291.125 277.375 o
    289.5 349.5 o
    288.125 448.625 o
    289 583 v
    236.625 583.875 o
    170 586 o
    148.375 588.125 o
    133.5 596.5 o
    124.875 608.875 o
    122 623 o
    124.125 637.375 o
    132.5 650.5 o
    147.375 660.125 o
    0 0 z
  EndSpiro
EndSplineSet
Validated: 1
EndChar

StartChar: K
Encoding: 75 75 26
Width: 550
GlyphClass: 1
InSpiro: 1
Flags: W
LayerCount: 2
Fore
SplineSet
412.5 -9.5 m 1,0,-1
 395 -0.625 l 1,1,-1
 356.5 25.5 l 1,2,-1
 319 55 l 1,3,-1
 283.625 95.125 l 1,4,-1
 238.5 142.625 l 1,5,-1
 202.625 187.5 l 1,6,-1
 163.125 236.625 l 1,7,-1
 131 284 l 1,8,-1
 131 265 l 1,9,-1
 133.125 191.625 l 1,10,-1
 135.5 127.5 l 1,11,-1
 137.625 71.625 l 1,12,-1
 139 23 l 1,13,-1
 133.25 4.375 l 1,14,-1
 120 -9.5 l 1,15,-1
 102.5 -17.875 l 1,16,-1
 84 -20 l 1,17,-1
 68 -17 l 1,18,-1
 54 -8 l 1,19,-1
 44.75 7 l 1,20,-1
 43 28 l 1,21,-1
 43.875 53.375 l 1,22,-1
 44.5 89.5 l 1,23,-1
 44.75 134.125 l 1,24,-1
 44.5 185 l 1,25,-1
 43.75 241.125 l 1,26,-1
 42.5 301.5 l 1,27,-1
 40.875 363.625 l 1,28,-1
 39 425 l 1,29,-1
 37.25 488.375 l 1,30,-1
 38 538.5 l 1,31,-1
 39.75 579.875 l 1,32,-1
 41 617 l 1,33,-1
 45.25 640.25 l 1,34,-1
 56 656 l 1,35,-1
 70.75 665 l 1,36,-1
 87 668 l 1,37,-1
 104.875 666 l 1,38,-1
 120.5 658 l 1,39,-1
 131.375 643 l 1,40,-1
 135 620 l 1,41,-1
 134.5 578.375 l 1,42,-1
 133 525.5 l 1,43,-1
 131.25 463.875 l 1,44,-1
 130 396 l 1,45,-1
 169 434 l 1,46,-1
 210 474 l 1,47,-1
 250.75 513.75 l 1,48,-1
 289 551 l 1,49,-1
 323.75 584.75 l 1,50,-1
 354 614 l 1,51,-1
 377.25 636.25 l 1,52,-1
 391 649 l 1,53,-1
 410.125 663.125 l 1,54,-1
 427.5 667.5 l 1,55,-1
 442.375 664.625 l 1,56,-1
 454 657 l 1,57,-1
 461.5 644.75 l 1,58,-1
 464 630 l 1,59,-1
 459.5 612.5 l 1,60,-1
 446 592 l 1,61,-1
 434 579 l 1,62,-1
 412 556 l 1,63,-1
 382.625 525.875 l 1,64,-1
 348.5 491.5 l 1,65,-1
 271 414 l 1,66,-1
 231.75 375 l 1,67,-1
 196 340 l 1,68,-1
 232.25 291.875 l 1,69,-1
 276.125 240.5 l 1,70,-1
 316 192.5 l 1,71,-1
 364.125 141.625 l 1,72,-1
 408.5 99.125 l 1,73,-1
 450 76 l 1,74,-1
 472.875 67 l 1,75,-1
 491.679969868 53.6182528959 l 1,76,-1
 502.875 42 l 1,77,-1
 507.835141144 27.1605424683 l 1,78,-1
 507.995462781 12.0265807605 l 1,79,-1
 504.791034395 -0.475184663504 l 1,80,-1
 495.868170153 -13.6859045045 l 1,81,-1
 482.574173119 -21.6568058259 l 1,82,-1
 464.875 -25 l 1,83,-1
 443.691500061 -20.1118185676 l 1,84,-1
 412.5 -9.5 l 1,0,-1
  Spiro
    412.5 -9.5 o
    395 -0.625 o
    356.5 25.5 o
    319 55 o
    283.625 95.125 o
    238.5 142.625 o
    202.625 187.5 o
    163.125 236.625 o
    131 284 v
    131 265 ]
    133.125 191.625 o
    135.5 127.5 o
    137.625 71.625 o
    139 23 o
    133.25 4.375 o
    120 -9.5 o
    102.5 -17.875 o
    84 -20 o
    68 -17 o
    54 -8 o
    44.75 7 o
    43 28 o
    43.875 53.375 o
    44.5 89.5 o
    44.75 134.125 o
    44.5 185 o
    43.75 241.125 o
    42.5 301.5 o
    40.875 363.625 o
    39 425 o
    37.25 488.375 o
    38 538.5 o
    39.75 579.875 o
    41 617 o
    45.25 640.25 o
    56 656 o
    70.75 665 o
    87 668 o
    104.875 666 o
    120.5 658 o
    131.375 643 o
    135 620 o
    134.5 578.375 o
    133 525.5 o
    131.25 463.875 o
    130 396 v
    169 434 o
    210 474 o
    250.75 513.75 o
    289 551 o
    323.75 584.75 o
    354 614 o
    377.25 636.25 o
    391 649 o
    410.125 663.125 o
    427.5 667.5 o
    442.375 664.625 o
    454 657 o
    461.5 644.75 o
    464 630 o
    459.5 612.5 o
    446 592 o
    434 579 o
    412 556 o
    382.625 525.875 o
    348.5 491.5 o
    271 414 o
    231.75 375 o
    196 340 v
    232.25 291.875 o
    276.125 240.5 o
    316 192.5 o
    364.125 141.625 o
    408.5 99.125 o
    450 76 o
    472.875 67 o
    491.68 53.6183 o
    502.875 42 o
    507.835 27.1605 o
    507.995 12.0266 o
    504.791 -0.475185 o
    495.868 -13.6859 o
    482.574 -21.6568 o
    464.875 -25 o
    443.692 -20.1118 o
    0 0 z
  EndSpiro
EndSplineSet
Validated: 1
EndChar

StartChar: L
Encoding: 76 76 27
Width: 550
GlyphClass: 1
InSpiro: 1
Flags: W
LayerCount: 2
Fore
SplineSet
468 34 m 1,0,-1
 425.033875521 24.1160029727 l 1,1,-1
 376 11 l 1,2,-1
 316.271216066 2.13800982846 l 1,3,-1
 256.959878028 -5.68680199555 l 1,4,-1
 193.893469307 -10.6922053186 l 1,5,-1
 141 -13 l 1,6,-1
 103.25 -13.75 l 1,7,-1
 84 -14 l 1,8,-1
 68 -11 l 1,9,-1
 54 -2 l 1,10,-1
 44.75 13 l 1,11,-1
 43 34 l 1,12,-1
 47.375 83.75 l 1,13,-1
 54.5 147 l 1,14,-1
 62.375 228.5 l 1,15,-1
 69 333 l 1,16,-1
 69.75 367.375 l 1,17,-1
 70 406.5 l 1,18,-1
 69.875 447.5 l 1,19,-1
 69.5 487.5 l 1,20,-1
 69 525.375 l 1,21,-1
 68.5 560 l 1,22,-1
 68.125 588.75 l 1,23,-1
 68 609 l 1,24,-1
 72.25 632.25 l 1,25,-1
 83 648 l 1,26,-1
 97.75 657 l 1,27,-1
 114 660 l 1,28,-1
 131.875 658 l 1,29,-1
 147.5 650 l 1,30,-1
 158.375 635 l 1,31,-1
 162 612 l 1,32,-1
 161.125 556.5 l 1,33,-1
 158.5 482 l 1,34,-1
 155.125 393.75 l 1,35,-1
 152 297 l 1,36,-1
 149.125 234.125 l 1,37,-1
 144.5 177.5 l 1,38,-1
 140.375 123.125 l 1,39,-1
 139 67 l 1,40,-1
 180.130167804 67.7011914489 l 1,41,-1
 232 73 l 1,42,-1
 281 80 l 1,43,-1
 328 90 l 1,44,-1
 371.313351038 99.6539700408 l 1,45,-1
 409.168062012 107.618083744 l 1,46,-1
 439.432889413 114.840633318 l 1,47,-1
 459.272603247 120.715218835 l 1,48,-1
 479.207023969 122.333511292 l 1,49,-1
 494.132093949 111.505663578 l 1,50,-1
 504 95 l 1,51,-1
 508.762928936 79.5848448614 l 1,52,-1
 508.026881714 65.4790354381 l 1,53,-1
 503.39130136 53.0632382513 l 1,54,-1
 492.303699318 42.882707521 l 1,55,-1
 468 34 l 1,0,-1
  Spiro
    468 34 o
    425.034 24.116 o
    376 11 o
    316.271 2.13801 o
    256.96 -5.6868 o
    193.893 -10.6922 o
    141 -13 o
    103.25 -13.75 o
    84 -14 o
    68 -11 o
    54 -2 o
    44.75 13 o
    43 34 o
    47.375 83.75 o
    54.5 147 o
    62.375 228.5 o
    69 333 o
    69.75 367.375 o
    70 406.5 o
    69.875 447.5 o
    69.5 487.5 o
    69 525.375 o
    68.5 560 o
    68.125 588.75 o
    68 609 o
    72.25 632.25 o
    83 648 o
    97.75 657 o
    114 660 o
    131.875 658 o
    147.5 650 o
    158.375 635 o
    162 612 o
    161.125 556.5 o
    158.5 482 o
    155.125 393.75 o
    152 297 o
    149.125 234.125 o
    144.5 177.5 o
    140.375 123.125 o
    139 67 v
    180.13 67.7012 o
    232 73 o
    281 80 o
    328 90 o
    371.313 99.654 o
    409.168 107.618 o
    439.433 114.841 o
    459.273 120.715 o
    479.207 122.334 o
    494.132 111.506 o
    504 95 o
    508.763 79.5848 o
    508.027 65.479 o
    503.391 53.0632 o
    492.304 42.8827 o
    0 0 z
  EndSpiro
EndSplineSet
EndChar

StartChar: M
Encoding: 77 77 28
Width: 550
GlyphClass: 1
InSpiro: 1
Flags: W
LayerCount: 2
Fore
SplineSet
325 16 m 1,0,-1
 316.75 5 l 1,1,-1
 304 -2 l 1,2,-1
 288.75 -5.75 l 1,3,-1
 273 -7 l 1,4,-1
 255.75 -6 l 1,5,-1
 242 -1 l 1,6,-1
 232.25 7.25 l 1,7,-1
 227 18 l 1,8,-1
 219.875 50.875 l 1,9,-1
 210.5 101.5 l 1,10,-1
 199.75 164.5 l 1,11,-1
 188.5 234.5 l 1,12,-1
 176.75 309.625 l 1,13,-1
 164.5 388 l 1,14,-1
 152.875 464.25 l 1,15,-1
 143 533 l 1,16,-1
 136.625 467.625 l 1,17,-1
 131.5 397.5 l 1,18,-1
 126.625 321.125 l 1,19,-1
 121 237 l 1,20,-1
 116.625 172.25 l 1,21,-1
 111.5 120 l 1,22,-1
 107.625 80.75 l 1,23,-1
 107 55 l 1,24,-1
 104.25 27.5 l 1,25,-1
 94 7 l 1,26,-1
 79.25 -5.5 l 1,27,-1
 58.0266606445 -10.2303660156 l 1,28,-1
 40.2093061523 -4.46959375 l 1,29,-1
 29.3061489258 10.8089761719 l 1,30,-1
 23.7216049805 32.8501917969 l 1,31,-1
 21.860090332 58.8989011719 l 1,32,-1
 23.4556743164 86.3251865234 l 1,33,-1
 28.2424262695 130.532851953 l 1,34,-1
 34.358831543 185.510656836 l 1,35,-1
 39.9433754883 245.247360547 l 1,36,-1
 44.4641967773 297.970950195 l 1,37,-1
 49.5168793945 355.954375391 l 1,38,-1
 54.9684580078 414.939674023 l 1,39,-1
 60.6859672852 470.668883984 l 1,40,-1
 66.8023725586 521.639195117 l 1,41,-1
 73.4506391602 566.347797266 l 1,42,-1
 80.4978017578 601.037665039 l 1,43,-1
 87.8108950195 621.951773047 l 1,44,-1
 101.240393555 639.735026563 l 1,45,-1
 120.254436035 651.006102734 l 1,46,-1
 140.8640625 656.766875 l 1,47,-1
 158 658 l 1,48,-1
 171.75 656.5 l 1,49,-1
 187 652 l 1,50,-1
 200.5 642 l 1,51,-1
 209 624 l 1,52,-1
 218.25 581.125 l 1,53,-1
 228 522.5 l 1,54,-1
 237.75 453.875 l 1,55,-1
 247 381 l 1,56,-1
 255.875 306.375 l 1,57,-1
 264.5 232.5 l 1,58,-1
 272.625 165.125 l 1,59,-1
 280 110 l 1,60,-1
 283.625 155.75 l 1,61,-1
 288.5 213 l 1,62,-1
 294.375 278.25 l 1,63,-1
 301 348 l 1,64,-1
 306.375 391.75 l 1,65,-1
 312.5 435 l 1,66,-1
 319.125 476.5 l 1,67,-1
 326 515 l 1,68,-1
 332.75 549.875 l 1,69,-1
 339 580.5 l 1,70,-1
 344.5 605.625 l 1,71,-1
 349 624 l 1,72,-1
 358.875 642.125 l 1,73,-1
 376.5 652.5 l 1,74,-1
 396.625 657.125 l 1,75,-1
 414 658 l 1,76,-1
 429.25 657 l 1,77,-1
 449 654 l 1,78,-1
 466.5 643.25 l 1,79,-1
 475 619 l 1,80,-1
 479.5 578.375 l 1,81,-1
 485 510.5 l 1,82,-1
 491.125 426.625 l 1,83,-1
 497.5 338 l 1,84,-1
 504 250 l 1,85,-1
 510.5 168 l 1,86,-1
 516.625 103.25 l 1,87,-1
 522 67 l 1,88,-1
 525.75 40.875 l 1,89,-1
 523 20.5 l 1,90,-1
 514.75 5.625 l 1,91,-1
 502 -4 l 1,92,-1
 485.625 -7.25 l 1,93,-1
 468.5 -3 l 1,94,-1
 452.875 10.75 l 1,95,-1
 441 36 l 1,96,-1
 435.125 66.375 l 1,97,-1
 429.5 117.5 l 1,98,-1
 424.25 183.5 l 1,99,-1
 419.5 258.5 l 1,100,-1
 415.25 339.75 l 1,101,-1
 411.5 424.5 l 1,102,-1
 408.375 507.125 l 1,103,-1
 406 582 l 1,104,-1
 397.25 534.625 l 1,105,-1
 387 474.5 l 1,106,-1
 377.5 406.625 l 1,107,-1
 371 336 l 1,108,-1
 366.375 280.625 l 1,109,-1
 360.5 226.5 l 1,110,-1
 354 175.5 l 1,111,-1
 347.5 129.5 l 1,112,-1
 341.125 89.375 l 1,113,-1
 335 56 l 1,114,-1
 329.5 31 l 1,115,-1
 325 16 l 1,0,-1
  Spiro
    325 16 o
    316.75 5 o
    304 -2 o
    288.75 -5.75 o
    273 -7 o
    255.75 -6 o
    242 -1 o
    232.25 7.25 o
    227 18 o
    219.875 50.875 o
    210.5 101.5 o
    199.75 164.5 o
    188.5 234.5 o
    176.75 309.625 o
    164.5 388 o
    152.875 464.25 o
    143 533 v
    136.625 467.625 o
    131.5 397.5 o
    126.625 321.125 o
    121 237 o
    116.625 172.25 o
    111.5 120 o
    107.625 80.75 o
    107 55 o
    104.25 27.5 o
    94 7 o
    79.25 -5.5 o
    58.0267 -10.2304 o
    40.2093 -4.46959 o
    29.3061 10.809 o
    23.7216 32.8502 o
    21.8601 58.8989 o
    23.4557 86.3252 o
    28.2424 130.533 o
    34.3588 185.511 o
    39.9434 245.247 o
    44.4642 297.971 o
    49.5169 355.954 o
    54.9685 414.94 o
    60.686 470.669 o
    66.8024 521.639 o
    73.4506 566.348 o
    80.4978 601.038 o
    87.8109 621.952 o
    101.24 639.735 o
    120.254 651.006 o
    140.864 656.767 o
    158 658 o
    171.75 656.5 o
    187 652 o
    200.5 642 o
    209 624 o
    218.25 581.125 o
    228 522.5 o
    237.75 453.875 o
    247 381 o
    255.875 306.375 o
    264.5 232.5 o
    272.625 165.125 o
    280 110 v
    283.625 155.75 o
    288.5 213 o
    294.375 278.25 o
    301 348 o
    306.375 391.75 o
    312.5 435 o
    319.125 476.5 o
    326 515 o
    332.75 549.875 o
    339 580.5 o
    344.5 605.625 o
    349 624 o
    358.875 642.125 o
    376.5 652.5 o
    396.625 657.125 o
    414 658 o
    429.25 657 o
    449 654 o
    466.5 643.25 o
    475 619 o
    479.5 578.375 o
    485 510.5 o
    491.125 426.625 o
    497.5 338 o
    504 250 o
    510.5 168 o
    516.625 103.25 o
    522 67 o
    525.75 40.875 o
    523 20.5 o
    514.75 5.625 o
    502 -4 o
    485.625 -7.25 o
    468.5 -3 o
    452.875 10.75 o
    441 36 o
    435.125 66.375 o
    429.5 117.5 o
    424.25 183.5 o
    419.5 258.5 o
    415.25 339.75 o
    411.5 424.5 o
    408.375 507.125 o
    406 582 v
    397.25 534.625 o
    387 474.5 o
    377.5 406.625 o
    371 336 o
    366.375 280.625 o
    360.5 226.5 o
    354 175.5 o
    347.5 129.5 o
    341.125 89.375 o
    335 56 o
    329.5 31 o
    0 0 z
  EndSpiro
EndSplineSet
Validated: 1
EndChar

StartChar: N
Encoding: 78 78 29
Width: 550
GlyphClass: 1
InSpiro: 1
Flags: W
LayerCount: 2
Fore
SplineSet
495.68 9.65 m 1,0,-1
 486.44 -1.3775 l 1,1,-1
 472.16 -8.395 l 1,2,-1
 455.08 -12.154375 l 1,3,-1
 437.44 -13.4075 l 1,4,-1
 418.875 -11.75 l 1,5,-1
 405.5 -6 l 1,6,-1
 395.875 2.5 l 1,7,-1
 390 12 l 1,8,-1
 373.25 44.625 l 1,9,-1
 345 94.5 l 1,10,-1
 309.25 156.875 l 1,11,-1
 270 227 l 1,12,-1
 229.25 302.375 l 1,13,-1
 189 380.5 l 1,14,-1
 153 456.625 l 1,15,-1
 124.540775 527.14 l 1,16,-1
 127.94345 458.423125 l 1,17,-1
 129.077675 384.9325 l 1,18,-1
 128.652340625 311.065 l 1,19,-1
 127.3763375 241.2175 l 1,20,-1
 125.533221875 176.8975 l 1,21,-1
 123.40655 119.6125 l 1,22,-1
 121.98876875 74.010625 l 1,23,-1
 122.272325 44.74 l 1,24,-1
 119.15320625 17.981875 l 1,25,-1
 107.5274 0.0175 l 1,26,-1
 90.79758125 -9.906875 l 1,27,-1
 72.366425 -12.545 l 1,28,-1
 53.36815625 -7.645625 l 1,29,-1
 41.74235 5.0425 l 1,30,-1
 35.78766875 24.514375 l 1,31,-1
 33.802775 49.765 l 1,32,-1
 34.3698875 86.69875 l 1,33,-1
 36.071225 147.25 l 1,34,-1
 38.197896875 222.750625 l 1,35,-1
 40.0410125 304.5325 l 1,36,-1
 41.45879375 388.70125 l 1,37,-1
 42.3094625 471.3625 l 1,38,-1
 41.884128125 544.350625 l 1,39,-1
 39.4739 599.5 l 1,40,-1
 44.152578125 631.91125 l 1,41,-1
 62.7255125 650.755 l 1,42,-1
 88.387353125 659.04625 l 1,43,-1
 114.33275 659.8 l 1,44,-1
 129.625 656.5 l 1,45,-1
 144.5 652 l 1,46,-1
 157.875 642 l 1,47,-1
 167 624 l 1,48,-1
 183.375 581.875 l 1,49,-1
 210.5 523.5 l 1,50,-1
 244.75 455.25 l 1,51,-1
 282.5 383.5 l 1,52,-1
 322 310.875 l 1,53,-1
 361.5 240 l 1,54,-1
 397.375 177.25 l 1,55,-1
 426.24 128.9475 l 1,56,-1
 427.22 180.9521875 l 1,57,-1
 427.92 244.73625 l 1,58,-1
 428.2 314.660625 l 1,59,-1
 427.895361584 383.314144305 l 1,60,-1
 423.429879484 449.809829319 l 1,61,-1
 415.617856386 512.97831081 l 1,62,-1
 406.223036697 562.946505672 l 1,63,-1
 394.550813509 598.709766505 l 1,64,-1
 390.935799823 619.525696207 l 1,65,-1
 396.415459871 637.823049247 l 1,66,-1
 408.88509336 651.45319429 l 1,67,-1
 426.24 658.2675 l 1,68,-1
 450.960215412 659.330717621 l 1,69,-1
 465.728232006 652.30121235 l 1,70,-1
 475.546291672 637.784461688 l 1,71,-1
 485.4166363 616.385943133 l 1,72,-1
 492.594949833 588.271500501 l 1,73,-1
 504.254586412 514.676738957 l 1,74,-1
 512.706290218 420.508243638 l 1,75,-1
 513.6 318.92125 l 1,76,-1
 511.78 217.1675 l 1,77,-1
 508.56 121.42875 l 1,78,-1
 503.38 47.1184375 l 1,79,-1
 495.68 9.65 l 1,0,-1
  Spiro
    495.68 9.65 o
    486.44 -1.3775 o
    472.16 -8.395 o
    455.08 -12.1544 o
    437.44 -13.4075 o
    418.875 -11.75 o
    405.5 -6 o
    395.875 2.5 o
    390 12 o
    373.25 44.625 o
    345 94.5 o
    309.25 156.875 o
    270 227 o
    229.25 302.375 o
    189 380.5 o
    153 456.625 o
    124.541 527.14 v
    127.943 458.423 o
    129.078 384.932 o
    128.652 311.065 o
    127.376 241.217 o
    125.533 176.897 o
    123.407 119.612 o
    121.989 74.0106 o
    122.272 44.74 o
    119.153 17.9819 o
    107.527 0.0175 o
    90.7976 -9.90687 o
    72.3664 -12.545 o
    53.3682 -7.64562 o
    41.7423 5.0425 o
    35.7877 24.5144 o
    33.8028 49.765 o
    34.3699 86.6987 o
    36.0712 147.25 o
    38.1979 222.751 o
    40.041 304.532 o
    41.4588 388.701 o
    42.3095 471.362 o
    41.8841 544.351 o
    39.4739 599.5 o
    44.1526 631.911 o
    62.7255 650.755 o
    88.3874 659.046 o
    114.333 659.8 o
    129.625 656.5 o
    144.5 652 o
    157.875 642 o
    167 624 o
    183.375 581.875 o
    210.5 523.5 o
    244.75 455.25 o
    282.5 383.5 o
    322 310.875 o
    361.5 240 o
    397.375 177.25 o
    426.24 128.947 v
    427.22 180.952 o
    427.92 244.736 o
    428.2 314.661 o
    427.895 383.314 o
    423.43 449.81 o
    415.618 512.978 o
    406.223 562.947 o
    394.551 598.71 o
    390.936 619.526 o
    396.415 637.823 o
    408.885 651.453 o
    426.24 658.267 o
    450.96 659.331 o
    465.728 652.301 o
    475.546 637.784 o
    485.417 616.386 o
    492.595 588.272 o
    504.255 514.677 o
    512.706 420.508 o
    513.6 318.921 o
    511.78 217.167 o
    508.56 121.429 o
    503.38 47.1184 o
    0 0 z
  EndSpiro
EndSplineSet
Validated: 1
EndChar

StartChar: Ntilde
Encoding: 209 209 30
Width: 550
GlyphClass: 1
Flags: W
LayerCount: 2
Fore
SplineSet
495.68 9.65 m 1,0,-1
 486.44 -1.3775 l 1,1,-1
 472.16 -8.395 l 1,2,-1
 455.08 -12.154375 l 1,3,-1
 437.44 -13.4075 l 1,4,-1
 418.875 -11.75 l 1,5,-1
 405.5 -6 l 1,6,-1
 395.875 2.5 l 1,7,-1
 390 12 l 1,8,-1
 373.25 44.625 l 1,9,-1
 345 94.5 l 1,10,-1
 309.25 156.875 l 1,11,-1
 270 227 l 1,12,-1
 229.25 302.375 l 1,13,-1
 189 380.5 l 1,14,-1
 153 456.625 l 1,15,-1
 124.540775 527.14 l 1,16,-1
 127.94345 458.423125 l 1,17,-1
 129.077675 384.9325 l 1,18,-1
 128.652340625 311.065 l 1,19,-1
 127.3763375 241.2175 l 1,20,-1
 125.533221875 176.8975 l 1,21,-1
 123.40655 119.6125 l 1,22,-1
 121.98876875 74.010625 l 1,23,-1
 122.272325 44.74 l 1,24,-1
 119.15320625 17.981875 l 1,25,-1
 107.5274 0.0175 l 1,26,-1
 90.79758125 -9.906875 l 1,27,-1
 72.366425 -12.545 l 1,28,-1
 53.36815625 -7.645625 l 1,29,-1
 41.74235 5.0425 l 1,30,-1
 35.78766875 24.514375 l 1,31,-1
 33.802775 49.765 l 1,32,-1
 34.3698875 86.69875 l 1,33,-1
 36.071225 147.25 l 1,34,-1
 38.197896875 222.750625 l 1,35,-1
 40.0410125 304.5325 l 1,36,-1
 41.45879375 388.70125 l 1,37,-1
 42.3094625 471.3625 l 1,38,-1
 41.884128125 544.350625 l 1,39,-1
 39.4739 599.5 l 1,40,-1
 44.152578125 631.91125 l 1,41,-1
 62.7255125 650.755 l 1,42,-1
 88.387353125 659.04625 l 1,43,-1
 114.33275 659.8 l 1,44,-1
 129.625 656.5 l 1,45,-1
 144.5 652 l 1,46,-1
 157.875 642 l 1,47,-1
 167 624 l 1,48,-1
 183.375 581.875 l 1,49,-1
 210.5 523.5 l 1,50,-1
 244.75 455.25 l 1,51,-1
 282.5 383.5 l 1,52,-1
 322 310.875 l 1,53,-1
 361.5 240 l 1,54,-1
 397.375 177.25 l 1,55,-1
 426.24 128.9475 l 1,56,-1
 427.22 180.9521875 l 1,57,-1
 427.92 244.73625 l 1,58,-1
 428.2 314.660625 l 1,59,-1
 427.895361584 383.314144305 l 1,60,-1
 423.429879484 449.809829319 l 1,61,-1
 415.617856386 512.97831081 l 1,62,-1
 406.223036697 562.946505672 l 1,63,-1
 394.550813509 598.709766505 l 1,64,-1
 390.935799823 619.525696207 l 1,65,-1
 396.415459871 637.823049247 l 1,66,-1
 408.88509336 651.45319429 l 1,67,-1
 426.24 658.2675 l 1,68,-1
 450.960215412 659.330717621 l 1,69,-1
 465.728232006 652.30121235 l 1,70,-1
 475.546291672 637.784461688 l 1,71,-1
 485.4166363 616.385943133 l 1,72,-1
 492.594949833 588.271500501 l 1,73,-1
 504.254586412 514.676738957 l 1,74,-1
 512.706290218 420.508243638 l 1,75,-1
 513.6 318.92125 l 1,76,-1
 511.78 217.1675 l 1,77,-1
 508.56 121.42875 l 1,78,-1
 503.38 47.1184375 l 1,79,-1
 495.68 9.65 l 1,0,-1
  Spiro
    495.68 9.65 o
    486.44 -1.3775 o
    472.16 -8.395 o
    455.08 -12.1544 o
    437.44 -13.4075 o
    418.875 -11.75 o
    405.5 -6 o
    395.875 2.5 o
    390 12 o
    373.25 44.625 o
    345 94.5 o
    309.25 156.875 o
    270 227 o
    229.25 302.375 o
    189 380.5 o
    153 456.625 o
    124.541 527.14 v
    127.943 458.423 o
    129.078 384.932 o
    128.652 311.065 o
    127.376 241.217 o
    125.533 176.897 o
    123.407 119.612 o
    121.989 74.0106 o
    122.272 44.74 o
    119.153 17.9819 o
    107.527 0.0175 o
    90.7976 -9.90687 o
    72.3664 -12.545 o
    53.3682 -7.64562 o
    41.7423 5.0425 o
    35.7877 24.5144 o
    33.8028 49.765 o
    34.3699 86.6987 o
    36.0712 147.25 o
    38.1979 222.751 o
    40.041 304.532 o
    41.4588 388.701 o
    42.3095 471.362 o
    41.8841 544.351 o
    39.4739 599.5 o
    44.1526 631.911 o
    62.7255 650.755 o
    88.3874 659.046 o
    114.333 659.8 o
    129.625 656.5 o
    144.5 652 o
    157.875 642 o
    167 624 o
    183.375 581.875 o
    210.5 523.5 o
    244.75 455.25 o
    282.5 383.5 o
    322 310.875 o
    361.5 240 o
    397.375 177.25 o
    426.24 128.947 v
    427.22 180.952 o
    427.92 244.736 o
    428.2 314.661 o
    427.895 383.314 o
    423.43 449.81 o
    415.618 512.978 o
    406.223 562.947 o
    394.551 598.71 o
    390.936 619.526 o
    396.415 637.823 o
    408.885 651.453 o
    426.24 658.267 o
    450.96 659.331 o
    465.728 652.301 o
    475.546 637.784 o
    485.417 616.386 o
    492.595 588.272 o
    504.255 514.677 o
    512.706 420.508 o
    513.6 318.921 o
    511.78 217.167 o
    508.56 121.429 o
    503.38 47.1184 o
    0 0 z
  EndSpiro
439 888 m 0,80,81
 452 884 452 884 453.5 866.5 c 128,-1,82
 455 849 455 849 448 833 c 0,83,84
 421 783 421 783 393.5 761.5 c 128,-1,85
 366 740 366 740 341 740 c 0,86,87
 310 740 310 740 291 754.5 c 128,-1,88
 272 769 272 769 255 792 c 0,89,90
 242 810 242 810 233.5 817 c 128,-1,91
 225 824 225 824 209 824 c 0,92,93
 191 824 191 824 184 812 c 128,-1,94
 177 800 177 800 159 768 c 0,95,96
 153 758 153 758 138 755 c 128,-1,97
 123 752 123 752 112 754 c 0,98,99
 105 755 105 755 99 763.5 c 128,-1,100
 93 772 93 772 96 783 c 0,101,102
 115 837 115 837 143.5 871 c 128,-1,103
 172 905 172 905 200 905 c 0,104,105
 227 905 227 905 246 899 c 128,-1,106
 265 893 265 893 286 862 c 0,107,108
 298 845 298 845 307.5 833 c 128,-1,109
 317 821 317 821 333 821 c 256,110,111
 349 821 349 821 359.5 825 c 128,-1,112
 370 829 370 829 389 862 c 0,113,114
 395 873 395 873 408 883.5 c 128,-1,115
 421 894 421 894 439 888 c 0,80,81
EndSplineSet
Validated: 33
EndChar

StartChar: O
Encoding: 79 79 31
Width: 550
GlyphClass: 1
Flags: W
LayerCount: 2
Fore
SplineSet
245 -23 m 4,0,1
 201 -22 201 -22 164.5 -2 c 132,-1,2
 128 18 128 18 102 52.5 c 132,-1,3
 76 87 76 87 61.5 133 c 132,-1,4
 47 179 47 179 48 230 c 4,5,6
 48 290 48 290 51.5 372.5 c 132,-1,7
 55 455 55 455 84 532 c 4,8,9
 107 592 107 592 166 631.5 c 132,-1,10
 225 671 225 671 300 671 c 4,11,12
 337 671 337 671 371.5 656.5 c 132,-1,13
 406 642 406 642 433 614.5 c 132,-1,14
 460 587 460 587 478.5 546 c 132,-1,15
 497 505 497 505 501 452 c 4,16,17
 504 419 504 419 505 378 c 132,-1,18
 506 337 506 337 505 296.5 c 132,-1,19
 504 256 504 256 500.5 219 c 132,-1,20
 497 182 497 182 490 157 c 4,21,22
 475 102 475 102 451.5 66.5 c 132,-1,23
 428 31 428 31 397.5 11.5 c 132,-1,24
 367 -8 367 -8 328.5 -15.5 c 132,-1,25
 290 -23 290 -23 245 -23 c 4,0,1
245 56 m 4,26,27
 293 56 293 56 338 82 c 132,-1,28
 383 108 383 108 402 170 c 4,29,30
 404 177 404 177 407.5 205.5 c 132,-1,31
 411 234 411 234 413.5 274 c 132,-1,32
 416 314 416 314 416.5 360.5 c 132,-1,33
 417 407 417 407 413 451 c 4,34,35
 408 511 408 511 373.5 553 c 132,-1,36
 339 595 339 595 289 595 c 4,37,38
 237 595 237 595 203.5 556.5 c 132,-1,39
 170 518 170 518 155 455 c 4,40,41
 143 405 143 405 140 352 c 132,-1,42
 137 299 137 299 139 245 c 4,43,44
 140 211 140 211 146 177 c 132,-1,45
 152 143 152 143 164 116 c 132,-1,46
 176 89 176 89 196 72.5 c 132,-1,47
 216 56 216 56 245 56 c 4,26,27
EndSplineSet
Validated: 33
EndChar

StartChar: Ograve
Encoding: 210 210 32
Width: 550
GlyphClass: 1
Flags: W
LayerCount: 2
Fore
SplineSet
260 761 m 4,0,1
 233 788 233 788 193.5 830 c 132,-1,2
 154 872 154 872 124 912 c 4,3,4
 111 929 111 929 113 949 c 132,-1,5
 115 969 115 969 124 979 c 4,6,7
 137 989 137 989 159 988 c 132,-1,8
 181 987 181 987 194 971 c 4,9,10
 220 935 220 935 251 891 c 132,-1,11
 282 847 282 847 315 817 c 4,12,13
 333 800 333 800 336.5 779.5 c 132,-1,14
 340 759 340 759 329 749 c 4,15,16
 319 739 319 739 299 740.5 c 132,-1,17
 279 742 279 742 260 761 c 4,0,1
245 -23 m 0,18,19
 201 -22 201 -22 164.5 -2 c 128,-1,20
 128 18 128 18 102 52.5 c 128,-1,21
 76 87 76 87 61.5 133 c 128,-1,22
 47 179 47 179 48 230 c 0,23,24
 48 290 48 290 51.5 372.5 c 128,-1,25
 55 455 55 455 84 532 c 0,26,27
 107 592 107 592 166 631.5 c 128,-1,28
 225 671 225 671 300 671 c 0,29,30
 337 671 337 671 371.5 656.5 c 128,-1,31
 406 642 406 642 433 614.5 c 128,-1,32
 460 587 460 587 478.5 546 c 128,-1,33
 497 505 497 505 501 452 c 0,34,35
 504 419 504 419 505 378 c 128,-1,36
 506 337 506 337 505 296.5 c 128,-1,37
 504 256 504 256 500.5 219 c 128,-1,38
 497 182 497 182 490 157 c 0,39,40
 475 102 475 102 451.5 66.5 c 128,-1,41
 428 31 428 31 397.5 11.5 c 128,-1,42
 367 -8 367 -8 328.5 -15.5 c 128,-1,43
 290 -23 290 -23 245 -23 c 0,18,19
245 56 m 0,44,45
 293 56 293 56 338 82 c 128,-1,46
 383 108 383 108 402 170 c 0,47,48
 404 177 404 177 407.5 205.5 c 128,-1,49
 411 234 411 234 413.5 274 c 128,-1,50
 416 314 416 314 416.5 360.5 c 128,-1,51
 417 407 417 407 413 451 c 0,52,53
 408 511 408 511 373.5 553 c 128,-1,54
 339 595 339 595 289 595 c 0,55,56
 237 595 237 595 203.5 556.5 c 128,-1,57
 170 518 170 518 155 455 c 0,58,59
 143 405 143 405 140 352 c 128,-1,60
 137 299 137 299 139 245 c 0,61,62
 140 211 140 211 146 177 c 128,-1,63
 152 143 152 143 164 116 c 128,-1,64
 176 89 176 89 196 72.5 c 128,-1,65
 216 56 216 56 245 56 c 0,44,45
EndSplineSet
Validated: 33
EndChar

StartChar: Oacute
Encoding: 211 211 33
Width: 550
GlyphClass: 1
Flags: W
LayerCount: 2
Fore
SplineSet
467 912 m 4,0,1
 437 872 437 872 397.5 830 c 132,-1,2
 358 788 358 788 331 761 c 4,3,4
 312 742 312 742 292 740.5 c 132,-1,5
 272 739 272 739 262 749 c 4,6,7
 251 759 251 759 254.5 779.5 c 132,-1,8
 258 800 258 800 276 817 c 4,9,10
 309 847 309 847 340 891 c 132,-1,11
 371 935 371 935 397 971 c 4,12,13
 410 987 410 987 432 988 c 132,-1,14
 454 989 454 989 467 979 c 4,15,16
 476 969 476 969 478 949 c 132,-1,17
 480 929 480 929 467 912 c 4,0,1
245 -23 m 0,18,19
 201 -22 201 -22 164.5 -2 c 128,-1,20
 128 18 128 18 102 52.5 c 128,-1,21
 76 87 76 87 61.5 133 c 128,-1,22
 47 179 47 179 48 230 c 0,23,24
 48 290 48 290 51.5 372.5 c 128,-1,25
 55 455 55 455 84 532 c 0,26,27
 107 592 107 592 166 631.5 c 128,-1,28
 225 671 225 671 300 671 c 0,29,30
 337 671 337 671 371.5 656.5 c 128,-1,31
 406 642 406 642 433 614.5 c 128,-1,32
 460 587 460 587 478.5 546 c 128,-1,33
 497 505 497 505 501 452 c 0,34,35
 504 419 504 419 505 378 c 128,-1,36
 506 337 506 337 505 296.5 c 128,-1,37
 504 256 504 256 500.5 219 c 128,-1,38
 497 182 497 182 490 157 c 0,39,40
 475 102 475 102 451.5 66.5 c 128,-1,41
 428 31 428 31 397.5 11.5 c 128,-1,42
 367 -8 367 -8 328.5 -15.5 c 128,-1,43
 290 -23 290 -23 245 -23 c 0,18,19
245 56 m 0,44,45
 293 56 293 56 338 82 c 128,-1,46
 383 108 383 108 402 170 c 0,47,48
 404 177 404 177 407.5 205.5 c 128,-1,49
 411 234 411 234 413.5 274 c 128,-1,50
 416 314 416 314 416.5 360.5 c 128,-1,51
 417 407 417 407 413 451 c 0,52,53
 408 511 408 511 373.5 553 c 128,-1,54
 339 595 339 595 289 595 c 0,55,56
 237 595 237 595 203.5 556.5 c 128,-1,57
 170 518 170 518 155 455 c 0,58,59
 143 405 143 405 140 352 c 128,-1,60
 137 299 137 299 139 245 c 0,61,62
 140 211 140 211 146 177 c 128,-1,63
 152 143 152 143 164 116 c 128,-1,64
 176 89 176 89 196 72.5 c 128,-1,65
 216 56 216 56 245 56 c 0,44,45
EndSplineSet
Validated: 33
EndChar

StartChar: Ocircumflex
Encoding: 212 212 34
Width: 550
GlyphClass: 1
Flags: W
LayerCount: 2
Fore
SplineSet
426 744 m 0,0,1
 421 745 421 745 406 771 c 128,-1,2
 391 797 391 797 370 832 c 128,-1,3
 349 867 349 867 325 906 c 128,-1,4
 301 945 301 945 278 971 c 1,5,6
 257 946 257 946 233.5 907.5 c 128,-1,7
 210 869 210 869 188.5 833.5 c 128,-1,8
 167 798 167 798 150 772 c 128,-1,9
 133 746 133 746 127 744 c 0,10,11
 103 738 103 738 88.5 742.5 c 128,-1,12
 74 747 74 747 67 760 c 0,13,14
 59 772 59 772 63.5 786 c 128,-1,15
 68 800 68 800 82 820 c 0,16,17
 94 837 94 837 116.5 869.5 c 128,-1,18
 139 902 139 902 163.5 937.5 c 128,-1,19
 188 973 188 973 210.5 1006 c 128,-1,20
 233 1039 233 1039 246 1058 c 0,21,22
 250 1065 250 1065 259 1066 c 128,-1,23
 268 1067 268 1067 276 1067 c 0,24,25
 283 1067 283 1067 291 1065.5 c 128,-1,26
 299 1064 299 1064 304 1058 c 0,27,28
 317 1041 317 1041 338 1009.5 c 128,-1,29
 359 978 359 978 381 943.5 c 128,-1,30
 403 909 403 909 423 876.5 c 128,-1,31
 443 844 443 844 455 826 c 0,32,33
 469 805 469 805 482.5 787 c 128,-1,34
 496 769 496 769 488 757 c 0,35,36
 481 744 481 744 466 741.5 c 128,-1,37
 451 739 451 739 426 744 c 0,0,1
245 -23 m 0,38,39
 201 -22 201 -22 164.5 -2 c 128,-1,40
 128 18 128 18 102 52.5 c 128,-1,41
 76 87 76 87 61.5 133 c 128,-1,42
 47 179 47 179 48 230 c 0,43,44
 48 290 48 290 51.5 372.5 c 128,-1,45
 55 455 55 455 84 532 c 0,46,47
 107 592 107 592 166 631.5 c 128,-1,48
 225 671 225 671 300 671 c 0,49,50
 337 671 337 671 371.5 656.5 c 128,-1,51
 406 642 406 642 433 614.5 c 128,-1,52
 460 587 460 587 478.5 546 c 128,-1,53
 497 505 497 505 501 452 c 0,54,55
 504 419 504 419 505 378 c 128,-1,56
 506 337 506 337 505 296.5 c 128,-1,57
 504 256 504 256 500.5 219 c 128,-1,58
 497 182 497 182 490 157 c 0,59,60
 475 102 475 102 451.5 66.5 c 128,-1,61
 428 31 428 31 397.5 11.5 c 128,-1,62
 367 -8 367 -8 328.5 -15.5 c 128,-1,63
 290 -23 290 -23 245 -23 c 0,38,39
245 56 m 0,64,65
 293 56 293 56 338 82 c 128,-1,66
 383 108 383 108 402 170 c 0,67,68
 404 177 404 177 407.5 205.5 c 128,-1,69
 411 234 411 234 413.5 274 c 128,-1,70
 416 314 416 314 416.5 360.5 c 128,-1,71
 417 407 417 407 413 451 c 0,72,73
 408 511 408 511 373.5 553 c 128,-1,74
 339 595 339 595 289 595 c 0,75,76
 237 595 237 595 203.5 556.5 c 128,-1,77
 170 518 170 518 155 455 c 0,78,79
 143 405 143 405 140 352 c 128,-1,80
 137 299 137 299 139 245 c 0,81,82
 140 211 140 211 146 177 c 128,-1,83
 152 143 152 143 164 116 c 128,-1,84
 176 89 176 89 196 72.5 c 128,-1,85
 216 56 216 56 245 56 c 0,64,65
EndSplineSet
Validated: 33
EndChar

StartChar: Otilde
Encoding: 213 213 35
Width: 550
GlyphClass: 1
Flags: W
LayerCount: 2
Fore
SplineSet
441 888 m 0,0,1
 454 884 454 884 455.5 866.5 c 128,-1,2
 457 849 457 849 450 833 c 0,3,4
 423 783 423 783 395.5 761.5 c 128,-1,5
 368 740 368 740 343 740 c 0,6,7
 312 740 312 740 293 754.5 c 128,-1,8
 274 769 274 769 257 792 c 0,9,10
 244 810 244 810 235.5 817 c 128,-1,11
 227 824 227 824 211 824 c 0,12,13
 193 824 193 824 186 812 c 128,-1,14
 179 800 179 800 161 768 c 0,15,16
 155 758 155 758 140 755 c 128,-1,17
 125 752 125 752 114 754 c 0,18,19
 107 755 107 755 101 763.5 c 128,-1,20
 95 772 95 772 98 783 c 0,21,22
 117 837 117 837 145.5 871 c 128,-1,23
 174 905 174 905 202 905 c 0,24,25
 229 905 229 905 248 899 c 128,-1,26
 267 893 267 893 288 862 c 0,27,28
 300 845 300 845 309.5 833 c 128,-1,29
 319 821 319 821 335 821 c 256,30,31
 351 821 351 821 361.5 825 c 128,-1,32
 372 829 372 829 391 862 c 0,33,34
 397 873 397 873 410 883.5 c 128,-1,35
 423 894 423 894 441 888 c 0,0,1
245 -23 m 0,36,37
 201 -22 201 -22 164.5 -2 c 128,-1,38
 128 18 128 18 102 52.5 c 128,-1,39
 76 87 76 87 61.5 133 c 128,-1,40
 47 179 47 179 48 230 c 0,41,42
 48 290 48 290 51.5 372.5 c 128,-1,43
 55 455 55 455 84 532 c 0,44,45
 107 592 107 592 166 631.5 c 128,-1,46
 225 671 225 671 300 671 c 0,47,48
 337 671 337 671 371.5 656.5 c 128,-1,49
 406 642 406 642 433 614.5 c 128,-1,50
 460 587 460 587 478.5 546 c 128,-1,51
 497 505 497 505 501 452 c 0,52,53
 504 419 504 419 505 378 c 128,-1,54
 506 337 506 337 505 296.5 c 128,-1,55
 504 256 504 256 500.5 219 c 128,-1,56
 497 182 497 182 490 157 c 0,57,58
 475 102 475 102 451.5 66.5 c 128,-1,59
 428 31 428 31 397.5 11.5 c 128,-1,60
 367 -8 367 -8 328.5 -15.5 c 128,-1,61
 290 -23 290 -23 245 -23 c 0,36,37
245 56 m 0,62,63
 293 56 293 56 338 82 c 128,-1,64
 383 108 383 108 402 170 c 0,65,66
 404 177 404 177 407.5 205.5 c 128,-1,67
 411 234 411 234 413.5 274 c 128,-1,68
 416 314 416 314 416.5 360.5 c 128,-1,69
 417 407 417 407 413 451 c 0,70,71
 408 511 408 511 373.5 553 c 128,-1,72
 339 595 339 595 289 595 c 0,73,74
 237 595 237 595 203.5 556.5 c 128,-1,75
 170 518 170 518 155 455 c 0,76,77
 143 405 143 405 140 352 c 128,-1,78
 137 299 137 299 139 245 c 0,79,80
 140 211 140 211 146 177 c 128,-1,81
 152 143 152 143 164 116 c 128,-1,82
 176 89 176 89 196 72.5 c 128,-1,83
 216 56 216 56 245 56 c 0,62,63
EndSplineSet
Validated: 33
EndChar

StartChar: Odieresis
Encoding: 214 214 36
Width: 550
GlyphClass: 1
Flags: W
LayerCount: 2
Fore
SplineSet
367 740 m 0,0,1
 339 737 339 737 322.5 756.5 c 128,-1,2
 306 776 306 776 306 801 c 0,3,4
 306 825 306 825 325 842 c 128,-1,5
 344 859 344 859 367 860 c 0,6,7
 393 861 393 861 408.5 843.5 c 128,-1,8
 424 826 424 826 424 801 c 0,9,10
 424 777 424 777 408.5 760 c 128,-1,11
 393 743 393 743 367 740 c 0,0,1
190 740 m 0,12,13
 162 737 162 737 146 756.5 c 128,-1,14
 130 776 130 776 130 801 c 0,15,16
 130 825 130 825 149 842 c 128,-1,17
 168 859 168 859 190 860 c 0,18,19
 217 861 217 861 232.5 843.5 c 128,-1,20
 248 826 248 826 248 801 c 0,21,22
 248 778 248 778 232.5 760.5 c 128,-1,23
 217 743 217 743 190 740 c 0,12,13
245 -23 m 0,24,25
 201 -22 201 -22 164.5 -2 c 128,-1,26
 128 18 128 18 102 52.5 c 128,-1,27
 76 87 76 87 61.5 133 c 128,-1,28
 47 179 47 179 48 230 c 0,29,30
 48 290 48 290 51.5 372.5 c 128,-1,31
 55 455 55 455 84 532 c 0,32,33
 107 592 107 592 166 631.5 c 128,-1,34
 225 671 225 671 300 671 c 0,35,36
 337 671 337 671 371.5 656.5 c 128,-1,37
 406 642 406 642 433 614.5 c 128,-1,38
 460 587 460 587 478.5 546 c 128,-1,39
 497 505 497 505 501 452 c 0,40,41
 504 419 504 419 505 378 c 128,-1,42
 506 337 506 337 505 296.5 c 128,-1,43
 504 256 504 256 500.5 219 c 128,-1,44
 497 182 497 182 490 157 c 0,45,46
 475 102 475 102 451.5 66.5 c 128,-1,47
 428 31 428 31 397.5 11.5 c 128,-1,48
 367 -8 367 -8 328.5 -15.5 c 128,-1,49
 290 -23 290 -23 245 -23 c 0,24,25
245 56 m 0,50,51
 293 56 293 56 338 82 c 128,-1,52
 383 108 383 108 402 170 c 0,53,54
 404 177 404 177 407.5 205.5 c 128,-1,55
 411 234 411 234 413.5 274 c 128,-1,56
 416 314 416 314 416.5 360.5 c 128,-1,57
 417 407 417 407 413 451 c 0,58,59
 408 511 408 511 373.5 553 c 128,-1,60
 339 595 339 595 289 595 c 0,61,62
 237 595 237 595 203.5 556.5 c 128,-1,63
 170 518 170 518 155 455 c 0,64,65
 143 405 143 405 140 352 c 128,-1,66
 137 299 137 299 139 245 c 0,67,68
 140 211 140 211 146 177 c 128,-1,69
 152 143 152 143 164 116 c 128,-1,70
 176 89 176 89 196 72.5 c 128,-1,71
 216 56 216 56 245 56 c 0,50,51
EndSplineSet
Validated: 33
EndChar

StartChar: P
Encoding: 80 80 37
Width: 550
GlyphClass: 1
Flags: W
LayerCount: 2
Fore
SplineSet
244.997070312 215 m 4,0,1
 204.997070312 215 204.997070312 215 177.168945312 218 c 132,-1,2
 149.340820312 221 149.340820312 221 130.569335938 225 c 5,3,4
 129.7890625 159 129.7890625 159 131.068359375 111.5 c 132,-1,5
 132.346679688 64 132.346679688 64 132.998046875 23 c 4,6,7
 132.795898438 2 132.795898438 2 114.694335938 -8.5 c 132,-1,8
 96.5927734375 -19 96.5927734375 -19 77.6494140625 -18 c 4,9,10
 60.70703125 -17 60.70703125 -17 47.30859375 -6.5 c 132,-1,11
 33.91015625 4 33.91015625 4 37.28515625 28 c 4,12,13
 39.4306640625 48 39.4306640625 48 41.8369140625 90 c 132,-1,14
 44.2421875 132 44.2421875 132 46.3359375 186 c 132,-1,15
 48.4287109375 240 48.4287109375 240 50.5380859375 303 c 132,-1,16
 52.646484375 366 52.646484375 366 55.140625 427 c 4,17,18
 57.921875 493 57.921875 493 60.2548828125 525 c 132,-1,19
 62.587890625 557 62.587890625 557 65.36328125 588 c 4,20,21
 64.4208984375 589 64.4208984375 589 63.0068359375 590.5 c 132,-1,22
 61.5927734375 592 61.5927734375 592 60.6494140625 593 c 4,23,24
 49.56640625 609 49.56640625 609 61.09765625 627 c 132,-1,25
 72.6279296875 645 72.6279296875 645 85.7998046875 648 c 4,26,27
 105.029296875 652 105.029296875 652 135.229492188 655.5 c 132,-1,28
 165.430664062 659 165.430664062 659 194.544921875 661 c 132,-1,29
 223.659179688 663 223.659179688 663 246.716796875 664 c 132,-1,30
 269.774414062 665 269.774414062 665 276.774414062 665 c 4,31,32
 323.774414062 665 323.774414062 665 364.029296875 652 c 132,-1,33
 404.28515625 639 404.28515625 639 432.352539062 614 c 132,-1,34
 460.420898438 589 460.420898438 589 475.272460938 551.5 c 132,-1,35
 490.124023438 514 490.124023438 514 488.375 466 c 4,36,37
 485.396484375 414 485.396484375 414 466.260742188 368 c 132,-1,38
 447.125976562 322 447.125976562 322 414.678710938 288 c 132,-1,39
 382.23046875 254 382.23046875 254 339.114257812 234.5 c 132,-1,40
 295.997070312 215 295.997070312 215 244.997070312 215 c 4,0,1
272.420898438 589 m 4,41,42
 255.420898438 589 255.420898438 589 220.77734375 586.5 c 132,-1,43
 186.133789062 584 186.133789062 584 153.961914062 581 c 5,44,45
 150.327148438 535 150.327148438 535 143.673828125 462.5 c 132,-1,46
 137.021484375 390 137.021484375 390 133.15234375 305 c 5,47,48
 146.866210938 300 146.866210938 300 167.108398438 295.5 c 132,-1,49
 187.350585938 291 187.350585938 291 221.350585938 291 c 4,50,51
 283.350585938 291 283.350585938 291 318.938476562 310 c 132,-1,52
 354.52734375 329 354.52734375 329 372.602539062 356.5 c 132,-1,53
 390.677734375 384 390.677734375 384 395.982421875 415.5 c 132,-1,54
 401.286132812 447 401.286132812 447 402.71875 472 c 4,55,56
 404.666015625 506 404.666015625 506 391.483398438 529 c 132,-1,57
 378.30078125 552 378.30078125 552 358.545898438 565 c 132,-1,58
 338.790039062 578 338.790039062 578 315.10546875 583.5 c 132,-1,59
 291.420898438 589 291.420898438 589 272.420898438 589 c 4,41,42
EndSplineSet
Validated: 33
EndChar

StartChar: Q
Encoding: 81 81 38
Width: 550
GlyphClass: 1
Flags: W
LayerCount: 2
Fore
SplineSet
269 -23 m 0,0,1
 216 -23 216 -23 175.5 -2.5 c 128,-1,2
 135 18 135 18 107.5 52.5 c 128,-1,3
 80 87 80 87 65 133.5 c 128,-1,4
 50 180 50 180 48 230 c 0,5,6
 46 288 46 288 51 369.5 c 128,-1,7
 56 451 56 451 85 528 c 0,8,9
 108 588 108 588 166.5 629.5 c 128,-1,10
 225 671 225 671 300 671 c 0,11,12
 374 671 374 671 431.5 619.5 c 128,-1,13
 489 568 489 568 501 452 c 0,14,15
 504 419 504 419 505.5 377.5 c 128,-1,16
 507 336 507 336 506 294.5 c 128,-1,17
 505 253 505 253 502 215 c 128,-1,18
 499 177 499 177 494 152 c 0,19,20
 483 97 483 97 458.5 62 c 128,-1,21
 434 27 434 27 402 8 c 1,22,23
 433 -37 433 -37 462.5 -74 c 128,-1,24
 492 -111 492 -111 508 -132 c 0,25,26
 518 -146 518 -146 509.5 -165.5 c 128,-1,27
 501 -185 501 -185 491 -192 c 0,28,29
 477 -202 477 -202 459.5 -197 c 128,-1,30
 442 -192 442 -192 429 -176 c 0,31,32
 417 -161 417 -161 386 -115.5 c 128,-1,33
 355 -70 355 -70 323 -19 c 1,34,35
 310 -21 310 -21 296 -22 c 128,-1,36
 282 -23 282 -23 269 -23 c 0,0,1
269 56 m 2,37,-1
 279 56 l 1,38,39
 269 75 269 75 260.5 92 c 128,-1,40
 252 109 252 109 247 122 c 0,41,42
 236 151 236 151 239.5 170.5 c 128,-1,43
 243 190 243 190 256 200 c 0,44,45
 268 210 268 210 283.5 207 c 128,-1,46
 299 204 299 204 307 181 c 0,47,48
 316 156 316 156 328.5 130.5 c 128,-1,49
 341 105 341 105 356 80 c 1,50,51
 375 93 375 93 388.5 114 c 128,-1,52
 402 135 402 135 409 166 c 0,53,54
 410 173 410 173 413 202 c 128,-1,55
 416 231 416 231 417.5 271.5 c 128,-1,56
 419 312 419 312 418.5 359.5 c 128,-1,57
 418 407 418 407 413 451 c 0,58,59
 406 517 406 517 372.5 556 c 128,-1,60
 339 595 339 595 289 595 c 0,61,62
 237 595 237 595 203 557.5 c 128,-1,63
 169 520 169 520 154 457 c 0,64,65
 142 407 142 407 138.5 351.5 c 128,-1,66
 135 296 135 296 139 245 c 0,67,68
 142 205 142 205 152.5 170.5 c 128,-1,69
 163 136 163 136 180 110.5 c 128,-1,70
 197 85 197 85 219.5 70.5 c 128,-1,71
 242 56 242 56 269 56 c 2,37,-1
EndSplineSet
Validated: 33
EndChar

StartChar: R
Encoding: 82 82 39
Width: 550
GlyphClass: 1
Flags: W
LayerCount: 2
Fore
SplineSet
427 7 m 4,0,1
 414 24 414 24 385.5 54.5 c 132,-1,2
 357 85 357 85 318 119 c 132,-1,3
 279 153 279 153 231.5 186.5 c 132,-1,4
 184 220 184 220 134 242 c 5,5,6
 138 172 138 172 144 119 c 132,-1,7
 150 66 150 66 153 23 c 4,8,9
 154 2 154 2 136.5 -8.5 c 132,-1,10
 119 -19 119 -19 100 -18 c 4,11,12
 83 -17 83 -17 69 -6.5 c 132,-1,13
 55 4 55 4 57 28 c 4,14,15
 58 49 58 49 59.5 67 c 132,-1,16
 61 85 61 85 61.5 111 c 132,-1,17
 62 137 62 137 61.5 176.5 c 132,-1,18
 61 216 61 216 60 279 c 4,19,20
 59 317 59 317 61.5 357 c 132,-1,21
 64 397 64 397 62 465 c 4,22,23
 61 510 61 510 57 554.5 c 132,-1,24
 53 599 53 599 53 617 c 6,25,-1
 53 622 l 6,26,27
 52 630 52 630 55.5 638.5 c 132,-1,28
 59 647 59 647 65 653 c 4,29,30
 71 660 71 660 80 664 c 132,-1,31
 89 668 89 668 99 668 c 4,32,33
 107 668 107 668 114.5 666 c 132,-1,34
 122 664 122 664 128 660 c 4,35,36
 228 655 228 655 299 631 c 132,-1,37
 370 607 370 607 414 573 c 132,-1,38
 458 539 458 539 478.5 498.5 c 132,-1,39
 499 458 499 458 499 420 c 4,40,41
 499 378 499 378 480.5 350.5 c 132,-1,42
 462 323 462 323 428.5 306.5 c 132,-1,43
 395 290 395 290 348 281 c 132,-1,44
 301 272 301 272 245 268 c 5,45,46
 295 242 295 242 338.5 211.5 c 132,-1,47
 382 181 382 181 416 150.5 c 132,-1,48
 450 120 450 120 473 92.5 c 132,-1,49
 496 65 496 65 506 44 c 4,50,51
 513 28 513 28 506 13 c 132,-1,52
 499 -2 499 -2 489 -9 c 4,53,54
 475 -19 475 -19 458.5 -15.5 c 132,-1,55
 442 -12 442 -12 427 7 c 4,0,1
146 465 m 4,56,57
 146 443 146 443 142.5 406.5 c 132,-1,58
 139 370 139 370 136 336 c 5,59,60
 144 335 144 335 158 334.5 c 132,-1,61
 172 334 172 334 195 335 c 4,62,63
 297 340 297 340 355 355 c 132,-1,64
 413 370 413 370 413 416 c 4,65,66
 413 450 413 450 384 478 c 132,-1,67
 355 506 355 506 313 527.5 c 132,-1,68
 271 549 271 549 224 563 c 132,-1,69
 177 577 177 577 142 583 c 5,70,71
 143 555 143 555 144 527 c 132,-1,72
 145 499 145 499 146 465 c 4,56,57
EndSplineSet
Validated: 33
EndChar

StartChar: S
Encoding: 83 83 40
Width: 550
GlyphClass: 1
Flags: W
LayerCount: 2
Fore
SplineSet
52 62 m 4,0,1
 39 87 39 87 44 103.5 c 132,-1,2
 49 120 49 120 64 127 c 4,3,4
 83 135 83 135 97 134 c 132,-1,5
 111 133 111 133 128 108 c 4,6,7
 144 84 144 84 173 68 c 132,-1,8
 202 52 202 52 242 52 c 4,9,10
 270 52 270 52 301 62 c 132,-1,11
 332 72 332 72 358 90.5 c 132,-1,12
 384 109 384 109 401.5 135.5 c 132,-1,13
 419 162 419 162 419 194 c 4,14,15
 419 216 419 216 412.5 238 c 132,-1,16
 406 260 406 260 385 279 c 132,-1,17
 364 298 364 298 322.5 313 c 132,-1,18
 281 328 281 328 212 335 c 4,19,20
 178 339 178 339 151.5 353 c 132,-1,21
 125 367 125 367 107 386.5 c 132,-1,22
 89 406 89 406 80 429 c 132,-1,23
 71 452 71 452 71 473 c 4,24,25
 71 512 71 512 88.5 549 c 132,-1,26
 106 586 106 586 140 614 c 132,-1,27
 174 642 174 642 224.5 659.5 c 132,-1,28
 275 677 275 677 341 677 c 4,29,30
 351 677 351 677 369 676 c 132,-1,31
 387 675 387 675 406.5 673 c 132,-1,32
 426 671 426 671 443.5 668 c 132,-1,33
 461 665 461 665 470 662 c 4,34,35
 489 655 489 655 496 640.5 c 132,-1,36
 503 626 503 626 501 611 c 4,37,38
 498 588 498 588 478.5 586.5 c 132,-1,39
 459 585 459 585 445 589 c 4,40,41
 425 594 425 594 402.5 598.5 c 132,-1,42
 380 603 380 603 333 603 c 4,43,44
 302 603 302 603 271.5 595.5 c 132,-1,45
 241 588 241 588 217.5 574 c 132,-1,46
 194 560 194 560 179.5 540.5 c 132,-1,47
 165 521 165 521 165 496 c 4,48,49
 165 461 165 461 196 435.5 c 132,-1,50
 227 410 227 410 286 407 c 4,51,52
 353 404 353 404 397 384.5 c 132,-1,53
 441 365 441 365 466.5 337 c 132,-1,54
 492 309 492 309 502 275.5 c 132,-1,55
 512 242 512 242 512 210 c 4,56,57
 512 155 512 155 489.5 111 c 132,-1,58
 467 67 467 67 429 36.5 c 132,-1,59
 391 6 391 6 341.5 -10.5 c 132,-1,60
 292 -27 292 -27 238 -27 c 4,61,62
 169 -27 169 -27 119.5 0.5 c 132,-1,63
 70 28 70 28 52 62 c 4,0,1
EndSplineSet
Validated: 33
EndChar

StartChar: Scaron
Encoding: 352 352 41
Width: 550
GlyphClass: 1
Flags: W
LayerCount: 2
Fore
SplineSet
417 931 m 0,0,1
 392 917 392 917 357 893 c 128,-1,2
 322 869 322 869 278 835 c 1,3,4
 234 869 234 869 199 893 c 128,-1,5
 164 917 164 917 139 931 c 0,6,7
 117 944 117 944 97 940.5 c 128,-1,8
 77 937 77 937 70 924 c 0,9,10
 62 912 62 912 70.5 893 c 128,-1,11
 79 874 79 874 101 862 c 0,12,13
 138 843 138 843 176.5 808 c 128,-1,14
 215 773 215 773 249 746 c 0,15,16
 256 741 256 741 263.5 739 c 128,-1,17
 271 737 271 737 279 737 c 0,18,19
 286 737 286 737 293.5 739.5 c 128,-1,20
 301 742 301 742 307 746 c 0,21,22
 341 773 341 773 379.5 808 c 128,-1,23
 418 843 418 843 455 862 c 0,24,25
 477 874 477 874 485.5 893 c 128,-1,26
 494 912 494 912 486 924 c 0,27,28
 479 937 479 937 459 940.5 c 128,-1,29
 439 944 439 944 417 931 c 0,0,1
52 62 m 0,30,31
 39 87 39 87 44 103.5 c 128,-1,32
 49 120 49 120 64 127 c 0,33,34
 83 135 83 135 97 134 c 128,-1,35
 111 133 111 133 128 108 c 0,36,37
 144 84 144 84 173 68 c 128,-1,38
 202 52 202 52 242 52 c 0,39,40
 270 52 270 52 301 62 c 128,-1,41
 332 72 332 72 358 90.5 c 128,-1,42
 384 109 384 109 401.5 135.5 c 128,-1,43
 419 162 419 162 419 194 c 0,44,45
 419 216 419 216 412.5 238 c 128,-1,46
 406 260 406 260 385 279 c 128,-1,47
 364 298 364 298 322.5 313 c 128,-1,48
 281 328 281 328 212 335 c 0,49,50
 178 339 178 339 151.5 353 c 128,-1,51
 125 367 125 367 107 386.5 c 128,-1,52
 89 406 89 406 80 429 c 128,-1,53
 71 452 71 452 71 473 c 0,54,55
 71 512 71 512 88.5 549 c 128,-1,56
 106 586 106 586 140 614 c 128,-1,57
 174 642 174 642 224.5 659.5 c 128,-1,58
 275 677 275 677 341 677 c 0,59,60
 351 677 351 677 369 676 c 128,-1,61
 387 675 387 675 406.5 673 c 128,-1,62
 426 671 426 671 443.5 668 c 128,-1,63
 461 665 461 665 470 662 c 0,64,65
 489 655 489 655 496 640.5 c 128,-1,66
 503 626 503 626 501 611 c 0,67,68
 498 588 498 588 478.5 586.5 c 128,-1,69
 459 585 459 585 445 589 c 0,70,71
 425 594 425 594 402.5 598.5 c 128,-1,72
 380 603 380 603 333 603 c 0,73,74
 302 603 302 603 271.5 595.5 c 128,-1,75
 241 588 241 588 217.5 574 c 128,-1,76
 194 560 194 560 179.5 540.5 c 128,-1,77
 165 521 165 521 165 496 c 0,78,79
 165 461 165 461 196 435.5 c 128,-1,80
 227 410 227 410 286 407 c 0,81,82
 353 404 353 404 397 384.5 c 128,-1,83
 441 365 441 365 466.5 337 c 128,-1,84
 492 309 492 309 502 275.5 c 128,-1,85
 512 242 512 242 512 210 c 0,86,87
 512 155 512 155 489.5 111 c 128,-1,88
 467 67 467 67 429 36.5 c 128,-1,89
 391 6 391 6 341.5 -10.5 c 128,-1,90
 292 -27 292 -27 238 -27 c 0,91,92
 169 -27 169 -27 119.5 0.5 c 128,-1,93
 70 28 70 28 52 62 c 0,30,31
EndSplineSet
Validated: 41
EndChar

StartChar: T
Encoding: 84 84 42
Width: 550
GlyphClass: 1
InSpiro: 1
Flags: W
LayerCount: 2
Fore
SplineSet
88 667 m 0,0,1
 107 664 107 664 154 661.5 c 128,-1,2
 201 659 201 659 257 658 c 128,-1,3
 313 657 313 657 370.5 656 c 128,-1,4
 428 655 428 655 468 655 c 0,5,6
 492 655 492 655 501 642.5 c 128,-1,7
 510 630 510 630 511 617 c 0,8,9
 511 602 511 602 501 586.5 c 128,-1,10
 491 571 491 571 466 572 c 0,11,12
 447 573 447 573 408.5 574.5 c 128,-1,13
 370 576 370 576 324 577 c 1,14,15
 324 529 324 529 325.5 456 c 128,-1,16
 327 383 327 383 329 306 c 128,-1,17
 331 229 331 229 333 155 c 128,-1,18
 335 81 335 81 336 31 c 0,19,20
 334 10 334 10 317 -1.5 c 128,-1,21
 300 -13 300 -13 281 -12 c 0,22,23
 264 -12 264 -12 251 0 c 128,-1,24
 238 12 238 12 240 36 c 0,25,26
 242 66 242 66 240.5 135.5 c 128,-1,27
 239 205 239 205 236.5 285.5 c 128,-1,28
 234 366 234 366 231.5 447 c 128,-1,29
 229 528 229 528 230 580 c 1,30,31
 184 582 184 582 146 584 c 128,-1,32
 108 586 108 586 89 589 c 0,33,34
 64 593 64 593 52.5 602 c 128,-1,35
 41 611 41 611 41 626 c 0,36,37
 40 641 40 641 51.5 656 c 128,-1,38
 63 671 63 671 88 667 c 0,0,1
  Spiro
    88 667 o
    114 664.125 o
    154 661.5 o
    203.25 659.375 o
    257 658 o
    313.375 657 o
    370.5 656 o
    423.625 655.25 o
    468 655 o
    488.25 651.875 o
    501 642.5 o
    508 629.875 o
    511 617 o
    508.5 601.875 o
    501 586.5 o
    487.25 575.125 o
    466 572 o
    442.125 573.125 o
    408.5 574.5 o
    368.125 575.875 o
    324 577 v
    324.375 522.75 o
    325.5 456 o
    327.125 382 o
    329 306 o
    331 229.75 o
    333 155 o
    334.75 87 o
    336 31 o
    330.25 12.375 o
    317 -1.5 o
    299.5 -9.875 o
    281 -12 o
    265 -9 o
    251 0 o
    241.75 15 o
    240 36 o
    241.125 75.875 o
    240.5 135.5 o
    238.75 207.75 o
    236.5 285.5 o
    234 366.125 o
    231.5 447 o
    229.875 520.75 o
    230 580 v
    186 582 o
    146 584 o
    112.75 586.25 o
    89 589 o
    67.375 594.25 o
    52.5 602 o
    43.875 612.5 o
    41 626 o
    43.125 641 o
    51.5 656 o
    66.375 666.25 o
    0 0 z
  EndSpiro
EndSplineSet
Validated: 33
EndChar

StartChar: U
Encoding: 85 85 43
Width: 550
GlyphClass: 1
InSpiro: 1
Flags: W
LayerCount: 2
Fore
SplineSet
517 243 m 0,0,1
 514 167 514 167 488.5 114.5 c 128,-1,2
 463 62 463 62 426.5 31 c 128,-1,3
 390 0 390 0 346.5 -13.5 c 128,-1,4
 303 -27 303 -27 266 -27 c 0,5,6
 234 -27 234 -27 196.5 -14.5 c 128,-1,7
 159 -2 159 -2 126.5 26.5 c 128,-1,8
 94 55 94 55 71.5 103.5 c 128,-1,9
 49 152 49 152 47 223 c 0,10,11
 46 279 46 279 44.5 334.5 c 128,-1,12
 43 390 43 390 42.5 439.5 c 128,-1,13
 42 489 42 489 42.5 532.5 c 128,-1,14
 43 576 43 576 44 610 c 0,15,16
 45 636 45 636 59.5 649.5 c 128,-1,17
 74 663 74 663 91 663 c 0,18,19
 107 663 107 663 118.5 652.5 c 128,-1,20
 130 642 130 642 130 615 c 0,21,22
 130 594 130 594 130 539 c 128,-1,23
 130 484 130 484 131 422.5 c 128,-1,24
 132 361 132 361 133 306.5 c 128,-1,25
 134 252 134 252 135 232 c 0,26,27
 137 202 137 202 144.5 171 c 128,-1,28
 152 140 152 140 168 115 c 128,-1,29
 184 90 184 90 209.5 74 c 128,-1,30
 235 58 235 58 273 58 c 0,31,32
 336 58 336 58 379.5 101 c 128,-1,33
 423 144 423 144 429 238 c 0,34,35
 432 281 432 281 433 336.5 c 128,-1,36
 434 392 434 392 433.5 444 c 128,-1,37
 433 496 433 496 432.5 539.5 c 128,-1,38
 432 583 432 583 432 602 c 0,39,40
 432 646 432 646 445.5 655 c 128,-1,41
 459 664 459 664 475 664 c 0,42,43
 492 664 492 664 504 650.5 c 128,-1,44
 516 637 516 637 517 612 c 0,45,46
 520 553 520 553 520.5 454.5 c 128,-1,47
 521 356 521 356 517 243 c 0,0,1
  Spiro
    517 243 o
    508.375 172.875 o
    488.5 114.5 o
    460.25 67.375 o
    426.5 31 o
    388.25 4.375 o
    346.5 -13.5 o
    304.625 -23.625 o
    266 -27 o
    232.625 -23.875 o
    196.5 -14.5 o
    160.25 2 o
    126.5 26.5 o
    96.5 60 o
    71.5 103.5 o
    54.125 157.625 o
    47 223 o
    45.875 278.875 o
    44.5 334.5 o
    43.25 388.5 o
    42.5 439.5 o
    42.25 487.5 o
    42.5 532.5 o
    43.125 573.625 o
    44 610 o
    48.375 632.875 o
    59.5 649.5 o
    74.625 659.625 o
    91 663 o
    105.875 660.375 o
    118.5 652.5 o
    127.125 637.875 o
    130 615 o
    130 539 o
    130.25 482.375 o
    131 422.5 o
    132 362.75 o
    133 306.5 o
    134 260.625 o
    135 232 o
    138.375 201.75 o
    144.5 171 o
    154.125 141.5 o
    168 115 o
    186.375 92.25 o
    209.5 74 o
    238.125 62 o
    273 58 o
    331.125 68.75 o
    379.5 101 o
    413.625 156.75 o
    429 238 o
    431.5 284.125 o
    433 336.5 o
    433.625 391.125 o
    433.5 444 o
    433 493.875 o
    432.5 539.5 o
    432.125 576.875 o
    432 602 o
    435.375 637.25 o
    445.5 655 o
    459.625 661.75 o
    475 664 o
    490.75 660.625 o
    504 650.5 o
    513.25 634.125 o
    517 612 o
    519.375 543.125 o
    520.5 454.5 o
    519.875 352.375 o
    0 0 z
  EndSpiro
EndSplineSet
Validated: 33
EndChar

StartChar: Ugrave
Encoding: 217 217 44
Width: 550
GlyphClass: 1
Flags: W
LayerCount: 2
Fore
SplineSet
257 761 m 4,0,1
 230 788 230 788 190.5 830 c 132,-1,2
 151 872 151 872 121 912 c 4,3,4
 108 929 108 929 110 949 c 132,-1,5
 112 969 112 969 121 979 c 4,6,7
 134 989 134 989 156 988 c 132,-1,8
 178 987 178 987 191 971 c 4,9,10
 217 935 217 935 248 891 c 132,-1,11
 279 847 279 847 312 817 c 4,12,13
 330 800 330 800 333.5 779.5 c 132,-1,14
 337 759 337 759 326 749 c 4,15,16
 316 739 316 739 296 740.5 c 132,-1,17
 276 742 276 742 257 761 c 4,0,1
517 243 m 0,18,19
 514 167 514 167 488.5 114.5 c 128,-1,20
 463 62 463 62 426.5 31 c 128,-1,21
 390 0 390 0 346.5 -13.5 c 128,-1,22
 303 -27 303 -27 266 -27 c 0,23,24
 234 -27 234 -27 196.5 -14.5 c 128,-1,25
 159 -2 159 -2 126.5 26.5 c 128,-1,26
 94 55 94 55 71.5 103.5 c 128,-1,27
 49 152 49 152 47 223 c 0,28,29
 46 279 46 279 44.5 334.5 c 128,-1,30
 43 390 43 390 42.5 439.5 c 128,-1,31
 42 489 42 489 42.5 532.5 c 128,-1,32
 43 576 43 576 44 610 c 0,33,34
 45 636 45 636 59.5 649.5 c 128,-1,35
 74 663 74 663 91 663 c 0,36,37
 107 663 107 663 118.5 652.5 c 128,-1,38
 130 642 130 642 130 615 c 0,39,40
 130 594 130 594 130 539 c 128,-1,41
 130 484 130 484 131 422.5 c 128,-1,42
 132 361 132 361 133 306.5 c 128,-1,43
 134 252 134 252 135 232 c 0,44,45
 137 202 137 202 144.5 171 c 128,-1,46
 152 140 152 140 168 115 c 128,-1,47
 184 90 184 90 209.5 74 c 128,-1,48
 235 58 235 58 273 58 c 0,49,50
 336 58 336 58 379.5 101 c 128,-1,51
 423 144 423 144 429 238 c 0,52,53
 432 281 432 281 433 336.5 c 128,-1,54
 434 392 434 392 433.5 444 c 128,-1,55
 433 496 433 496 432.5 539.5 c 128,-1,56
 432 583 432 583 432 602 c 0,57,58
 432 646 432 646 445.5 655 c 128,-1,59
 459 664 459 664 475 664 c 0,60,61
 492 664 492 664 504 650.5 c 128,-1,62
 516 637 516 637 517 612 c 0,63,64
 520 553 520 553 520.5 454.5 c 128,-1,65
 521 356 521 356 517 243 c 0,18,19
EndSplineSet
Validated: 33
EndChar

StartChar: Uacute
Encoding: 218 218 45
Width: 550
GlyphClass: 1
Flags: W
LayerCount: 2
Fore
SplineSet
468 912 m 4,0,1
 438 872 438 872 398.5 830 c 132,-1,2
 359 788 359 788 332 761 c 4,3,4
 313 742 313 742 293 740.5 c 132,-1,5
 273 739 273 739 263 749 c 4,6,7
 252 759 252 759 255.5 779.5 c 132,-1,8
 259 800 259 800 277 817 c 4,9,10
 310 847 310 847 341 891 c 132,-1,11
 372 935 372 935 398 971 c 4,12,13
 411 987 411 987 433 988 c 132,-1,14
 455 989 455 989 468 979 c 4,15,16
 477 969 477 969 479 949 c 132,-1,17
 481 929 481 929 468 912 c 4,0,1
517 243 m 0,18,19
 514 167 514 167 488.5 114.5 c 128,-1,20
 463 62 463 62 426.5 31 c 128,-1,21
 390 0 390 0 346.5 -13.5 c 128,-1,22
 303 -27 303 -27 266 -27 c 0,23,24
 234 -27 234 -27 196.5 -14.5 c 128,-1,25
 159 -2 159 -2 126.5 26.5 c 128,-1,26
 94 55 94 55 71.5 103.5 c 128,-1,27
 49 152 49 152 47 223 c 0,28,29
 46 279 46 279 44.5 334.5 c 128,-1,30
 43 390 43 390 42.5 439.5 c 128,-1,31
 42 489 42 489 42.5 532.5 c 128,-1,32
 43 576 43 576 44 610 c 0,33,34
 45 636 45 636 59.5 649.5 c 128,-1,35
 74 663 74 663 91 663 c 0,36,37
 107 663 107 663 118.5 652.5 c 128,-1,38
 130 642 130 642 130 615 c 0,39,40
 130 594 130 594 130 539 c 128,-1,41
 130 484 130 484 131 422.5 c 128,-1,42
 132 361 132 361 133 306.5 c 128,-1,43
 134 252 134 252 135 232 c 0,44,45
 137 202 137 202 144.5 171 c 128,-1,46
 152 140 152 140 168 115 c 128,-1,47
 184 90 184 90 209.5 74 c 128,-1,48
 235 58 235 58 273 58 c 0,49,50
 336 58 336 58 379.5 101 c 128,-1,51
 423 144 423 144 429 238 c 0,52,53
 432 281 432 281 433 336.5 c 128,-1,54
 434 392 434 392 433.5 444 c 128,-1,55
 433 496 433 496 432.5 539.5 c 128,-1,56
 432 583 432 583 432 602 c 0,57,58
 432 646 432 646 445.5 655 c 128,-1,59
 459 664 459 664 475 664 c 0,60,61
 492 664 492 664 504 650.5 c 128,-1,62
 516 637 516 637 517 612 c 0,63,64
 520 553 520 553 520.5 454.5 c 128,-1,65
 521 356 521 356 517 243 c 0,18,19
EndSplineSet
Validated: 33
EndChar

StartChar: Ucircumflex
Encoding: 219 219 46
Width: 550
GlyphClass: 1
Flags: W
LayerCount: 2
Fore
SplineSet
431 764 m 0,0,1
 426 765 426 765 411 790.5 c 128,-1,2
 396 816 396 816 375 851.5 c 128,-1,3
 354 887 354 887 330 926 c 128,-1,4
 306 965 306 965 283 991 c 1,5,6
 262 965 262 965 238.5 927 c 128,-1,7
 215 889 215 889 193.5 853.5 c 128,-1,8
 172 818 172 818 155 791.5 c 128,-1,9
 138 765 138 765 132 764 c 0,10,11
 108 758 108 758 93.5 762.5 c 128,-1,12
 79 767 79 767 72 780 c 0,13,14
 64 792 64 792 68.5 806 c 128,-1,15
 73 820 73 820 87 840 c 0,16,17
 99 857 99 857 121.5 889.5 c 128,-1,18
 144 922 144 922 168.5 957.5 c 128,-1,19
 193 993 193 993 215.5 1026 c 128,-1,20
 238 1059 238 1059 251 1078 c 0,21,22
 255 1085 255 1085 264 1086 c 128,-1,23
 273 1087 273 1087 281 1087 c 0,24,25
 288 1087 288 1087 296 1085.5 c 128,-1,26
 304 1084 304 1084 309 1078 c 0,27,28
 322 1061 322 1061 343 1029.5 c 128,-1,29
 364 998 364 998 386 963.5 c 128,-1,30
 408 929 408 929 428 896.5 c 128,-1,31
 448 864 448 864 460 846 c 0,32,33
 474 825 474 825 487.5 807 c 128,-1,34
 501 789 501 789 493 777 c 0,35,36
 486 764 486 764 471 761.5 c 128,-1,37
 456 759 456 759 431 764 c 0,0,1
517 243 m 0,38,39
 514 167 514 167 488.5 114.5 c 128,-1,40
 463 62 463 62 426.5 31 c 128,-1,41
 390 0 390 0 346.5 -13.5 c 128,-1,42
 303 -27 303 -27 266 -27 c 0,43,44
 234 -27 234 -27 196.5 -14.5 c 128,-1,45
 159 -2 159 -2 126.5 26.5 c 128,-1,46
 94 55 94 55 71.5 103.5 c 128,-1,47
 49 152 49 152 47 223 c 0,48,49
 46 279 46 279 44.5 334.5 c 128,-1,50
 43 390 43 390 42.5 439.5 c 128,-1,51
 42 489 42 489 42.5 532.5 c 128,-1,52
 43 576 43 576 44 610 c 0,53,54
 45 636 45 636 59.5 649.5 c 128,-1,55
 74 663 74 663 91 663 c 0,56,57
 107 663 107 663 118.5 652.5 c 128,-1,58
 130 642 130 642 130 615 c 0,59,60
 130 594 130 594 130 539 c 128,-1,61
 130 484 130 484 131 422.5 c 128,-1,62
 132 361 132 361 133 306.5 c 128,-1,63
 134 252 134 252 135 232 c 0,64,65
 137 202 137 202 144.5 171 c 128,-1,66
 152 140 152 140 168 115 c 128,-1,67
 184 90 184 90 209.5 74 c 128,-1,68
 235 58 235 58 273 58 c 0,69,70
 336 58 336 58 379.5 101 c 128,-1,71
 423 144 423 144 429 238 c 0,72,73
 432 281 432 281 433 336.5 c 128,-1,74
 434 392 434 392 433.5 444 c 128,-1,75
 433 496 433 496 432.5 539.5 c 128,-1,76
 432 583 432 583 432 602 c 0,77,78
 432 646 432 646 445.5 655 c 128,-1,79
 459 664 459 664 475 664 c 0,80,81
 492 664 492 664 504 650.5 c 128,-1,82
 516 637 516 637 517 612 c 0,83,84
 520 553 520 553 520.5 454.5 c 128,-1,85
 521 356 521 356 517 243 c 0,38,39
EndSplineSet
Validated: 33
EndChar

StartChar: Udieresis
Encoding: 220 220 47
Width: 550
GlyphClass: 1
Flags: W
LayerCount: 2
Fore
SplineSet
371 740 m 0,0,1
 343 737 343 737 326.5 756.5 c 128,-1,2
 310 776 310 776 310 801 c 0,3,4
 310 825 310 825 329 842 c 128,-1,5
 348 859 348 859 371 860 c 0,6,7
 397 861 397 861 412.5 843.5 c 128,-1,8
 428 826 428 826 428 801 c 0,9,10
 428 777 428 777 412.5 760 c 128,-1,11
 397 743 397 743 371 740 c 0,0,1
194 740 m 0,12,13
 166 737 166 737 150 756.5 c 128,-1,14
 134 776 134 776 134 801 c 0,15,16
 134 825 134 825 153 842 c 128,-1,17
 172 859 172 859 194 860 c 0,18,19
 221 861 221 861 236.5 843.5 c 128,-1,20
 252 826 252 826 252 801 c 0,21,22
 252 778 252 778 236.5 760.5 c 128,-1,23
 221 743 221 743 194 740 c 0,12,13
517 243 m 0,24,25
 514 167 514 167 488.5 114.5 c 128,-1,26
 463 62 463 62 426.5 31 c 128,-1,27
 390 0 390 0 346.5 -13.5 c 128,-1,28
 303 -27 303 -27 266 -27 c 0,29,30
 234 -27 234 -27 196.5 -14.5 c 128,-1,31
 159 -2 159 -2 126.5 26.5 c 128,-1,32
 94 55 94 55 71.5 103.5 c 128,-1,33
 49 152 49 152 47 223 c 0,34,35
 46 279 46 279 44.5 334.5 c 128,-1,36
 43 390 43 390 42.5 439.5 c 128,-1,37
 42 489 42 489 42.5 532.5 c 128,-1,38
 43 576 43 576 44 610 c 0,39,40
 45 636 45 636 59.5 649.5 c 128,-1,41
 74 663 74 663 91 663 c 0,42,43
 107 663 107 663 118.5 652.5 c 128,-1,44
 130 642 130 642 130 615 c 0,45,46
 130 594 130 594 130 539 c 128,-1,47
 130 484 130 484 131 422.5 c 128,-1,48
 132 361 132 361 133 306.5 c 128,-1,49
 134 252 134 252 135 232 c 0,50,51
 137 202 137 202 144.5 171 c 128,-1,52
 152 140 152 140 168 115 c 128,-1,53
 184 90 184 90 209.5 74 c 128,-1,54
 235 58 235 58 273 58 c 0,55,56
 336 58 336 58 379.5 101 c 128,-1,57
 423 144 423 144 429 238 c 0,58,59
 432 281 432 281 433 336.5 c 128,-1,60
 434 392 434 392 433.5 444 c 128,-1,61
 433 496 433 496 432.5 539.5 c 128,-1,62
 432 583 432 583 432 602 c 0,63,64
 432 646 432 646 445.5 655 c 128,-1,65
 459 664 459 664 475 664 c 0,66,67
 492 664 492 664 504 650.5 c 128,-1,68
 516 637 516 637 517 612 c 0,69,70
 520 553 520 553 520.5 454.5 c 128,-1,71
 521 356 521 356 517 243 c 0,24,25
EndSplineSet
Validated: 33
EndChar

StartChar: V
Encoding: 86 86 48
Width: 550
GlyphClass: 1
Flags: W
LayerCount: 2
Fore
SplineSet
503 661 m 0,0,1
 518 654 518 654 526.5 635.5 c 128,-1,2
 535 617 535 617 523 590 c 0,3,4
 514 570 514 570 487 495.5 c 128,-1,5
 460 421 460 421 429 331.5 c 128,-1,6
 398 242 398 242 369.5 155.5 c 128,-1,7
 341 69 341 69 330 25 c 0,8,9
 324 3 324 3 310 -4.5 c 128,-1,10
 296 -12 296 -12 280 -11 c 0,11,12
 267 -11 267 -11 250.5 -4.5 c 128,-1,13
 234 2 234 2 226 23 c 0,14,15
 206 74 206 74 175.5 161.5 c 128,-1,16
 145 249 145 249 115.5 336.5 c 128,-1,17
 86 424 86 424 63.5 496 c 128,-1,18
 41 568 41 568 36 590 c 0,19,20
 29 619 29 619 35 636.5 c 128,-1,21
 41 654 41 654 56 661 c 0,22,23
 72 668 72 668 89.5 660 c 128,-1,24
 107 652 107 652 117 621 c 0,25,26
 124 599 124 599 143.5 535.5 c 128,-1,27
 163 472 163 472 186.5 396 c 128,-1,28
 210 320 210 320 234.5 243.5 c 128,-1,29
 259 167 259 167 275 120 c 1,30,31
 297 185 297 185 323.5 264.5 c 128,-1,32
 350 344 350 344 373.5 416.5 c 128,-1,33
 397 489 397 489 415 545.5 c 128,-1,34
 433 602 433 602 439 621 c 0,35,36
 449 652 449 652 468 660 c 128,-1,37
 487 668 487 668 503 661 c 0,0,1
EndSplineSet
Validated: 33
EndChar

StartChar: W
Encoding: 87 87 49
Width: 550
GlyphClass: 1
Flags: W
LayerCount: 2
Fore
SplineSet
235 642 m 4,0,1
 241 655 241 655 256 660 c 132,-1,2
 271 665 271 665 287 665 c 4,3,4
 306 666 306 666 318 659 c 132,-1,5
 330 652 330 652 333 640 c 4,6,7
 337 623 337 623 342.5 586.5 c 132,-1,8
 348 550 348 550 354 503 c 132,-1,9
 360 456 360 456 366 401 c 132,-1,10
 372 346 372 346 379 291 c 4,11,12
 385 242 385 242 392.5 195 c 132,-1,13
 400 148 400 148 407 108 c 5,14,15
 416 182 416 182 423 268.5 c 132,-1,16
 430 355 430 355 437 461 c 4,17,18
 441 516 441 516 442.5 552 c 132,-1,19
 444 588 444 588 443 603 c 4,20,21
 442 634 442 634 456 651 c 132,-1,22
 470 668 470 668 487 667 c 4,23,24
 507 666 507 666 514 646 c 132,-1,25
 521 626 521 626 521 598 c 4,26,27
 521 583 521 583 518.5 542 c 132,-1,28
 516 501 516 501 512 452 c 4,29,30
 507 395 507 395 501 326.5 c 132,-1,31
 495 258 495 258 488.5 197 c 132,-1,32
 482 136 482 136 474.5 88.5 c 132,-1,33
 467 41 467 41 459 26 c 4,34,35
 449 5 449 5 428.5 -3 c 132,-1,36
 408 -11 408 -11 392 -10 c 4,37,38
 379 -10 379 -10 363 -4 c 132,-1,39
 347 2 347 2 341 24 c 4,40,41
 332 59 332 59 322 123 c 132,-1,42
 312 187 312 187 305 263 c 4,43,44
 301 301 301 301 297.5 341 c 132,-1,45
 294 381 294 381 291 418 c 132,-1,46
 288 455 288 455 285 488.5 c 132,-1,47
 282 522 282 522 279 547 c 5,48,49
 275 499 275 499 267 421.5 c 132,-1,50
 259 344 259 344 250 265.5 c 132,-1,51
 241 187 241 187 232 119.5 c 132,-1,52
 223 52 223 52 216 24 c 4,53,54
 210 2 210 2 188 -4.5 c 132,-1,55
 166 -11 166 -11 150 -10 c 4,56,57
 137 -10 137 -10 115 -6 c 132,-1,58
 93 -2 93 -2 89 29 c 4,59,60
 87 47 87 47 79 90 c 132,-1,61
 71 133 71 133 65 189 c 260,62,63
 59 245 59 245 53.5 308.5 c 132,-1,64
 48 372 48 372 42.5 429 c 132,-1,65
 37 486 37 486 33 530 c 132,-1,66
 29 574 29 574 28 591 c 4,67,68
 26 621 26 621 33 639 c 132,-1,69
 40 657 40 657 55 664 c 4,70,71
 71 671 71 671 90.5 662 c 132,-1,72
 110 653 110 653 109 622 c 4,73,74
 109 605 109 605 111.5 563.5 c 132,-1,75
 114 522 114 522 118 468 c 132,-1,76
 122 414 122 414 127.5 350 c 132,-1,77
 133 286 133 286 139 224 c 4,78,79
 143 183 143 183 147.5 144 c 132,-1,80
 152 105 152 105 156 70 c 5,81,82
 163 124 163 124 173.5 214.5 c 132,-1,83
 184 305 184 305 195.5 394 c 132,-1,84
 207 483 207 483 217.5 554.5 c 132,-1,85
 228 626 228 626 235 642 c 4,0,1
EndSplineSet
Validated: 33
EndChar

StartChar: X
Encoding: 88 88 50
Width: 550
GlyphClass: 1
Flags: W
LayerCount: 2
Fore
SplineSet
429 5 m 0,0,1
 414 21 414 21 395 51 c 128,-1,2
 376 81 376 81 356 116.5 c 128,-1,3
 336 152 336 152 314.5 190.5 c 128,-1,4
 293 229 293 229 274 262 c 1,5,6
 254 233 254 233 229.5 192.5 c 128,-1,7
 205 152 205 152 182 113 c 128,-1,8
 159 74 159 74 141 42 c 128,-1,9
 123 10 123 10 115 0 c 0,10,11
 97 -24 97 -24 80 -22.5 c 128,-1,12
 63 -21 63 -21 50 -9 c 0,13,14
 40 1 40 1 36 17 c 128,-1,15
 32 33 32 33 48 59 c 0,16,17
 58 76 58 76 80.5 109.5 c 128,-1,18
 103 143 103 143 128.5 182.5 c 128,-1,19
 154 222 154 222 180 263 c 128,-1,20
 206 304 206 304 225 336 c 1,21,22
 204 368 204 368 180 403.5 c 128,-1,23
 156 439 156 439 134 472 c 128,-1,24
 112 505 112 505 93.5 533.5 c 128,-1,25
 75 562 75 562 64 578 c 0,26,27
 48 603 48 603 49 620.5 c 128,-1,28
 50 638 50 638 63 648 c 256,29,30
 76 658 76 658 97 659 c 128,-1,31
 118 660 118 660 138 635 c 0,32,33
 148 622 148 622 166.5 594 c 128,-1,34
 185 566 185 566 205.5 532.5 c 128,-1,35
 226 499 226 499 247.5 464 c 128,-1,36
 269 429 269 429 285 403 c 1,37,38
 301 432 301 432 321.5 468 c 128,-1,39
 342 504 342 504 361 537.5 c 128,-1,40
 380 571 380 571 397 598 c 128,-1,41
 414 625 414 625 423 638 c 0,42,43
 439 661 439 661 457.5 662.5 c 128,-1,44
 476 664 476 664 489 654 c 0,45,46
 500 645 500 645 504 628.5 c 128,-1,47
 508 612 508 612 495 591 c 0,48,49
 485 574 485 574 464.5 541 c 128,-1,50
 444 508 444 508 420.5 470.5 c 128,-1,51
 397 433 397 433 374 395.5 c 128,-1,52
 351 358 351 358 336 332 c 0,53,54
 335 331 335 331 334 329.5 c 128,-1,55
 333 328 333 328 332 327 c 0,56,57
 354 292 354 292 377.5 253 c 128,-1,58
 401 214 401 214 422.5 177.5 c 128,-1,59
 444 141 444 141 463 110 c 128,-1,60
 482 79 482 79 495 61 c 0,61,62
 514 36 514 36 514.5 20.5 c 128,-1,63
 515 5 515 5 506 -5 c 0,64,65
 495 -18 495 -18 474.5 -20 c 128,-1,66
 454 -22 454 -22 429 5 c 0,0,1
EndSplineSet
Validated: 33
EndChar

StartChar: Y
Encoding: 89 89 51
Width: 550
GlyphClass: 1
Flags: W
LayerCount: 2
Fore
SplineSet
513 588 m 0,0,1
 505 569 505 569 494 549.5 c 128,-1,2
 483 530 483 530 473 506 c 0,3,4
 460 475 460 475 439 438.5 c 128,-1,5
 418 402 418 402 397 356 c 0,6,7
 365 284 365 284 319.5 194.5 c 128,-1,8
 274 105 274 105 216 -11 c 0,9,10
 208 -27 208 -27 189 -34.5 c 128,-1,11
 170 -42 170 -42 152 -28 c 0,12,13
 139 -18 139 -18 133 -1.5 c 128,-1,14
 127 15 127 15 138 35 c 0,15,16
 165 89 165 89 189.5 137.5 c 128,-1,17
 214 186 214 186 236 229 c 1,18,19
 211 275 211 275 188 314 c 128,-1,20
 165 353 165 353 146 389 c 0,21,22
 117 442 117 442 88.5 488 c 128,-1,23
 60 534 60 534 42 583 c 0,24,25
 30 616 30 616 38.5 634 c 128,-1,26
 47 652 47 652 62 659 c 0,27,28
 78 667 78 667 100 661 c 128,-1,29
 122 655 122 655 133 618 c 0,30,31
 150 562 150 562 175 517 c 128,-1,32
 200 472 200 472 225 429 c 0,33,34
 241 401 241 401 255 373.5 c 128,-1,35
 269 346 269 346 280 320 c 1,36,37
 285 330 285 330 289.5 339 c 128,-1,38
 294 348 294 348 298 358 c 0,39,40
 322 411 322 411 346.5 458 c 128,-1,41
 371 505 371 505 391 554 c 0,42,43
 398 571 398 571 407.5 588 c 128,-1,44
 417 605 417 605 424 624 c 0,45,46
 437 658 437 658 456.5 665 c 128,-1,47
 476 672 476 672 492 665 c 0,48,49
 505 658 505 658 515.5 639 c 128,-1,50
 526 620 526 620 513 588 c 0,0,1
EndSplineSet
Validated: 33
EndChar

StartChar: Yacute
Encoding: 221 221 52
Width: 550
GlyphClass: 1
Flags: W
LayerCount: 2
Fore
SplineSet
457 912 m 4,0,1
 427 872 427 872 387.5 830 c 132,-1,2
 348 788 348 788 321 761 c 4,3,4
 302 742 302 742 282 740.5 c 132,-1,5
 262 739 262 739 252 749 c 4,6,7
 241 759 241 759 244.5 779.5 c 132,-1,8
 248 800 248 800 266 817 c 4,9,10
 299 847 299 847 330 891 c 132,-1,11
 361 935 361 935 387 971 c 4,12,13
 400 987 400 987 422 988 c 132,-1,14
 444 989 444 989 457 979 c 4,15,16
 466 969 466 969 468 949 c 132,-1,17
 470 929 470 929 457 912 c 4,0,1
513 588 m 0,18,19
 505 569 505 569 494 549.5 c 128,-1,20
 483 530 483 530 473 506 c 0,21,22
 460 475 460 475 439 438.5 c 128,-1,23
 418 402 418 402 397 356 c 0,24,25
 365 284 365 284 319.5 194.5 c 128,-1,26
 274 105 274 105 216 -11 c 0,27,28
 208 -27 208 -27 189 -34.5 c 128,-1,29
 170 -42 170 -42 152 -28 c 0,30,31
 139 -18 139 -18 133 -1.5 c 128,-1,32
 127 15 127 15 138 35 c 0,33,34
 165 89 165 89 189.5 137.5 c 128,-1,35
 214 186 214 186 236 229 c 1,36,37
 211 275 211 275 188 314 c 128,-1,38
 165 353 165 353 146 389 c 0,39,40
 117 442 117 442 88.5 488 c 128,-1,41
 60 534 60 534 42 583 c 0,42,43
 30 616 30 616 38.5 634 c 128,-1,44
 47 652 47 652 62 659 c 0,45,46
 78 667 78 667 100 661 c 128,-1,47
 122 655 122 655 133 618 c 0,48,49
 150 562 150 562 175 517 c 128,-1,50
 200 472 200 472 225 429 c 0,51,52
 241 401 241 401 255 373.5 c 128,-1,53
 269 346 269 346 280 320 c 1,54,55
 285 330 285 330 289.5 339 c 128,-1,56
 294 348 294 348 298 358 c 0,57,58
 322 411 322 411 346.5 458 c 128,-1,59
 371 505 371 505 391 554 c 0,60,61
 398 571 398 571 407.5 588 c 128,-1,62
 417 605 417 605 424 624 c 0,63,64
 437 658 437 658 456.5 665 c 128,-1,65
 476 672 476 672 492 665 c 0,66,67
 505 658 505 658 515.5 639 c 128,-1,68
 526 620 526 620 513 588 c 0,18,19
EndSplineSet
Validated: 33
EndChar

StartChar: Ydieresis
Encoding: 376 376 53
Width: 550
GlyphClass: 1
Flags: W
LayerCount: 2
Fore
SplineSet
368 740 m 0,0,1
 340 737 340 737 323.5 756.5 c 128,-1,2
 307 776 307 776 307 801 c 0,3,4
 307 825 307 825 326 842 c 128,-1,5
 345 859 345 859 368 860 c 0,6,7
 394 861 394 861 409.5 843.5 c 128,-1,8
 425 826 425 826 425 801 c 0,9,10
 425 777 425 777 409.5 760 c 128,-1,11
 394 743 394 743 368 740 c 0,0,1
191 740 m 0,12,13
 163 737 163 737 147 756.5 c 128,-1,14
 131 776 131 776 131 801 c 0,15,16
 131 825 131 825 150 842 c 128,-1,17
 169 859 169 859 191 860 c 0,18,19
 218 861 218 861 233.5 843.5 c 128,-1,20
 249 826 249 826 249 801 c 0,21,22
 249 778 249 778 233.5 760.5 c 128,-1,23
 218 743 218 743 191 740 c 0,12,13
513 588 m 0,24,25
 505 569 505 569 494 549.5 c 128,-1,26
 483 530 483 530 473 506 c 0,27,28
 460 475 460 475 439 438.5 c 128,-1,29
 418 402 418 402 397 356 c 0,30,31
 365 284 365 284 319.5 194.5 c 128,-1,32
 274 105 274 105 216 -11 c 0,33,34
 208 -27 208 -27 189 -34.5 c 128,-1,35
 170 -42 170 -42 152 -28 c 0,36,37
 139 -18 139 -18 133 -1.5 c 128,-1,38
 127 15 127 15 138 35 c 0,39,40
 165 89 165 89 189.5 137.5 c 128,-1,41
 214 186 214 186 236 229 c 1,42,43
 211 275 211 275 188 314 c 128,-1,44
 165 353 165 353 146 389 c 0,45,46
 117 442 117 442 88.5 488 c 128,-1,47
 60 534 60 534 42 583 c 0,48,49
 30 616 30 616 38.5 634 c 128,-1,50
 47 652 47 652 62 659 c 0,51,52
 78 667 78 667 100 661 c 128,-1,53
 122 655 122 655 133 618 c 0,54,55
 150 562 150 562 175 517 c 128,-1,56
 200 472 200 472 225 429 c 0,57,58
 241 401 241 401 255 373.5 c 128,-1,59
 269 346 269 346 280 320 c 1,60,61
 285 330 285 330 289.5 339 c 128,-1,62
 294 348 294 348 298 358 c 0,63,64
 322 411 322 411 346.5 458 c 128,-1,65
 371 505 371 505 391 554 c 0,66,67
 398 571 398 571 407.5 588 c 128,-1,68
 417 605 417 605 424 624 c 0,69,70
 437 658 437 658 456.5 665 c 128,-1,71
 476 672 476 672 492 665 c 0,72,73
 505 658 505 658 515.5 639 c 128,-1,74
 526 620 526 620 513 588 c 0,24,25
EndSplineSet
Validated: 33
EndChar

StartChar: Z
Encoding: 90 90 54
Width: 550
GlyphClass: 1
Flags: W
LayerCount: 2
Fore
SplineSet
44 49 m 0,0,1
 44 57 44 57 51 77 c 128,-1,2
 58 97 58 97 83 141 c 0,3,4
 98 167 98 167 136 226 c 128,-1,5
 174 285 174 285 219 351.5 c 128,-1,6
 264 418 264 418 308 481.5 c 128,-1,7
 352 545 352 545 379 580 c 1,8,9
 342 579 342 579 302 578.5 c 128,-1,10
 262 578 262 578 224.5 577.5 c 128,-1,11
 187 577 187 577 154 576.5 c 128,-1,12
 121 576 121 576 97 575 c 0,13,14
 75 574 75 574 66 587 c 128,-1,15
 57 600 57 600 57 615 c 0,16,17
 56 631 56 631 72.5 646.5 c 128,-1,18
 89 662 89 662 113 662 c 0,19,20
 144 662 144 662 170 656.5 c 128,-1,21
 196 651 196 651 230 651 c 0,22,23
 298 650 298 650 361 654.5 c 128,-1,24
 424 659 424 659 466 661 c 0,25,26
 482 662 482 662 493.5 647 c 128,-1,27
 505 632 505 632 506 613 c 0,28,29
 506 607 506 607 498.5 596.5 c 128,-1,30
 491 586 491 586 480.5 574.5 c 128,-1,31
 470 563 470 563 459 550.5 c 128,-1,32
 448 538 448 538 442 528 c 0,33,34
 413 481 413 481 374 425 c 128,-1,35
 335 369 335 369 294.5 310 c 128,-1,36
 254 251 254 251 214.5 190 c 128,-1,37
 175 129 175 129 145 72 c 1,38,39
 250 79 250 79 336.5 79 c 128,-1,40
 423 79 423 79 466 73 c 0,41,42
 494 68 494 68 503 58 c 128,-1,43
 512 48 512 48 513 35 c 0,44,45
 514 19 514 19 504.5 5.5 c 128,-1,46
 495 -8 495 -8 464 -8 c 0,47,48
 451 -8 451 -8 406.5 -7 c 128,-1,49
 362 -6 362 -6 305.5 -5 c 128,-1,50
 249 -4 249 -4 189 -3.5 c 128,-1,51
 129 -3 129 -3 85 -5 c 0,52,53
 66 -6 66 -6 55 14 c 128,-1,54
 44 34 44 34 44 49 c 0,0,1
EndSplineSet
Validated: 33
EndChar

StartChar: Zcaron
Encoding: 381 381 55
Width: 550
GlyphClass: 1
Flags: W
LayerCount: 2
Fore
SplineSet
423 931 m 4,0,1
 398 917 398 917 363 893 c 132,-1,2
 328 869 328 869 284 835 c 5,3,4
 240 869 240 869 205 893 c 132,-1,5
 170 917 170 917 145 931 c 4,6,7
 123 944 123 944 103 940.5 c 132,-1,8
 83 937 83 937 76 924 c 4,9,10
 68 912 68 912 76.5 893 c 132,-1,11
 85 874 85 874 107 862 c 4,12,13
 144 843 144 843 182.5 808 c 132,-1,14
 221 773 221 773 255 746 c 4,15,16
 262 741 262 741 269.5 739 c 132,-1,17
 277 737 277 737 285 737 c 4,18,19
 292 737 292 737 299.5 739.5 c 132,-1,20
 307 742 307 742 313 746 c 4,21,22
 347 773 347 773 385.5 808 c 132,-1,23
 424 843 424 843 461 862 c 4,24,25
 483 874 483 874 491.5 893 c 132,-1,26
 500 912 500 912 492 924 c 4,27,28
 485 937 485 937 465 940.5 c 132,-1,29
 445 944 445 944 423 931 c 4,0,1
44 49 m 0,30,31
 44 57 44 57 51 77 c 128,-1,32
 58 97 58 97 83 141 c 0,33,34
 98 167 98 167 136 226 c 128,-1,35
 174 285 174 285 219 351.5 c 128,-1,36
 264 418 264 418 308 481.5 c 128,-1,37
 352 545 352 545 379 580 c 1,38,39
 342 579 342 579 302 578.5 c 128,-1,40
 262 578 262 578 224.5 577.5 c 128,-1,41
 187 577 187 577 154 576.5 c 128,-1,42
 121 576 121 576 97 575 c 0,43,44
 75 574 75 574 66 587 c 128,-1,45
 57 600 57 600 57 615 c 0,46,47
 56 631 56 631 72.5 646.5 c 128,-1,48
 89 662 89 662 113 662 c 0,49,50
 144 662 144 662 170 656.5 c 128,-1,51
 196 651 196 651 230 651 c 0,52,53
 298 650 298 650 361 654.5 c 128,-1,54
 424 659 424 659 466 661 c 0,55,56
 482 662 482 662 493.5 647 c 128,-1,57
 505 632 505 632 506 613 c 0,58,59
 506 607 506 607 498.5 596.5 c 128,-1,60
 491 586 491 586 480.5 574.5 c 128,-1,61
 470 563 470 563 459 550.5 c 128,-1,62
 448 538 448 538 442 528 c 0,63,64
 413 481 413 481 374 425 c 128,-1,65
 335 369 335 369 294.5 310 c 128,-1,66
 254 251 254 251 214.5 190 c 128,-1,67
 175 129 175 129 145 72 c 1,68,69
 250 79 250 79 336.5 79 c 128,-1,70
 423 79 423 79 466 73 c 0,71,72
 494 68 494 68 503 58 c 128,-1,73
 512 48 512 48 513 35 c 0,74,75
 514 19 514 19 504.5 5.5 c 128,-1,76
 495 -8 495 -8 464 -8 c 0,77,78
 451 -8 451 -8 406.5 -7 c 128,-1,79
 362 -6 362 -6 305.5 -5 c 128,-1,80
 249 -4 249 -4 189 -3.5 c 128,-1,81
 129 -3 129 -3 85 -5 c 0,82,83
 66 -6 66 -6 55 14 c 128,-1,84
 44 34 44 34 44 49 c 0,30,31
EndSplineSet
Validated: 41
EndChar

StartChar: a
Encoding: 97 97 56
Width: 550
GlyphClass: 1
InSpiro: 1
Flags: W
LayerCount: 2
Fore
SplineSet
488 408 m 1,0,-1
 481 350.25 l 1,1,-1
 476 299 l 1,2,-1
 473.25 252.125 l 1,3,-1
 473 207.5 l 1,4,-1
 475.375 163.75 l 1,5,-1
 480.5 119.5 l 1,6,-1
 495 68 l 1,7,-1
 509 34 l 1,8,-1
 519.97260755 10.0797155418 l 1,9,-1
 518.012168334 -8.54445700579 l 1,10,-1
 507.566245947 -22.3406822315 l 1,11,-1
 493.082403981 -31.7771247242 l 1,12,-1
 476.959985955 -36.4880308989 l 1,13,-1
 459.72567703 -36.8098940537 l 1,14,-1
 441.789121223 -28.8510960443 l 1,15,-1
 423.559962547 -8.72001872659 l 1,16,-1
 416.186370273 4.53489119337 l 1,17,-1
 408.344613411 17.6142393925 l 1,18,-1
 389 7 l 1,19,-1
 344 -14 l 1,20,-1
 293.25 -27.75 l 1,21,-1
 243 -29 l 1,22,-1
 203.875 -23.5 l 1,23,-1
 168.5 -9 l 1,24,-1
 137.625 12.375 l 1,25,-1
 112 38.5 l 1,26,-1
 91.625 68.5 l 1,27,-1
 76.5 101.5 l 1,28,-1
 67.125 135.375 l 1,29,-1
 64 168 l 1,30,-1
 69.625 252.375 l 1,31,-1
 86.5 321.5 l 1,32,-1
 112.5 376.75 l 1,33,-1
 145.5 419.5 l 1,34,-1
 185 450.625 l 1,35,-1
 230.5 471 l 1,36,-1
 279.625 482.25 l 1,37,-1
 330 486 l 1,38,-1
 377.125 481.25 l 1,39,-1
 416.5 467 l 1,40,-1
 452.125 442.75 l 1,41,-1
 488 408 l 1,0,-1
  Spiro
    488 408 v
    481 350.25 o
    476 299 o
    473.25 252.125 o
    473 207.5 o
    475.375 163.75 o
    480.5 119.5 o
    495 68 o
    509 34 o
    519.973 10.0797 o
    518.012 -8.54446 o
    507.566 -22.3407 o
    493.082 -31.7771 o
    476.96 -36.488 o
    459.726 -36.8099 o
    441.789 -28.8511 o
    423.56 -8.72002 o
    416.186 4.53489 o
    408.345 17.6142 o
    389 7 o
    344 -14 o
    293.25 -27.75 o
    243 -29 o
    203.875 -23.5 o
    168.5 -9 o
    137.625 12.375 o
    112 38.5 o
    91.625 68.5 o
    76.5 101.5 o
    67.125 135.375 o
    64 168 o
    69.625 252.375 o
    86.5 321.5 o
    112.5 376.75 o
    145.5 419.5 o
    185 450.625 o
    230.5 471 o
    279.625 482.25 o
    330 486 o
    377.125 481.25 o
    416.5 467 o
    452.125 442.75 o
    0 0 z
  EndSpiro
161 198 m 1,42,-1
 162.25 175.125 l 1,43,-1
 166 150.5 l 1,44,-1
 172.375 126.125 l 1,45,-1
 181.5 104 l 1,46,-1
 193.5 84.625 l 1,47,-1
 208.5 68.5 l 1,48,-1
 226.375 57.625 l 1,49,-1
 248 51 l 1,50,-1
 269.375 49 l 1,51,-1
 293.174865862 50.3005325561 l 1,52,-1
 317.32298144 56.6897139639 l 1,53,-1
 341.236528818 66.6506565283 l 1,54,-1
 364.43096055 79.9678056845 l 1,55,-1
 378 88 l 1,56,-1
 394 101 l 1,57,-1
 390 123 l 1,58,-1
 388 150 l 1,59,-1
 384 190 l 1,60,-1
 384.5 227.375 l 1,61,-1
 386 269.5 l 1,62,-1
 389 317.125 l 1,63,-1
 394 371 l 1,64,-1
 375.375 384.875 l 1,65,-1
 357.5 394.5 l 1,66,-1
 336.625 400.125 l 1,67,-1
 309 402 l 1,68,-1
 288.25 399.5 l 1,69,-1
 264 392 l 1,70,-1
 238.875 378.625 l 1,71,-1
 215.5 358.5 l 1,72,-1
 194.625 331.125 l 1,73,-1
 177 296 l 1,74,-1
 165 252 l 1,75,-1
 161 198 l 1,42,-1
  Spiro
    161 198 o
    162.25 175.125 o
    166 150.5 o
    172.375 126.125 o
    181.5 104 o
    193.5 84.625 o
    208.5 68.5 o
    226.375 57.625 o
    248 51 o
    269.375 49 o
    293.175 50.3005 o
    317.323 56.6897 o
    341.237 66.6507 o
    364.431 79.9678 o
    378 88 o
    394 101 c
    390 123 o
    388 150 o
    384 190 v
    384.5 227.375 o
    386 269.5 o
    389 317.125 o
    394 371 v
    375.375 384.875 o
    357.5 394.5 o
    336.625 400.125 o
    309 402 o
    288.25 399.5 o
    264 392 o
    238.875 378.625 o
    215.5 358.5 o
    194.625 331.125 o
    177 296 o
    165 252 o
    0 0 z
  EndSpiro
EndSplineSet
Validated: 1
EndChar

StartChar: agrave
Encoding: 224 224 57
Width: 550
GlyphClass: 1
Flags: W
LayerCount: 2
Fore
SplineSet
488 408 m 1,0,-1
 481 350.25 l 1,1,-1
 476 299 l 1,2,-1
 473.25 252.125 l 1,3,-1
 473 207.5 l 1,4,-1
 475.375 163.75 l 1,5,-1
 480.5 119.5 l 1,6,-1
 495 68 l 1,7,-1
 509 34 l 1,8,-1
 519.97260755 10.0797155418 l 1,9,-1
 518.012168334 -8.54445700579 l 1,10,-1
 507.566245947 -22.3406822315 l 1,11,-1
 493.082403981 -31.7771247242 l 1,12,-1
 476.959985955 -36.4880308989 l 1,13,-1
 459.72567703 -36.8098940537 l 1,14,-1
 441.789121223 -28.8510960443 l 1,15,-1
 423.559962547 -8.72001872659 l 1,16,-1
 416.186370273 4.53489119337 l 1,17,-1
 408.344613411 17.6142393925 l 1,18,-1
 389 7 l 1,19,-1
 344 -14 l 1,20,-1
 293.25 -27.75 l 1,21,-1
 243 -29 l 1,22,-1
 203.875 -23.5 l 1,23,-1
 168.5 -9 l 1,24,-1
 137.625 12.375 l 1,25,-1
 112 38.5 l 1,26,-1
 91.625 68.5 l 1,27,-1
 76.5 101.5 l 1,28,-1
 67.125 135.375 l 1,29,-1
 64 168 l 1,30,-1
 69.625 252.375 l 1,31,-1
 86.5 321.5 l 1,32,-1
 112.5 376.75 l 1,33,-1
 145.5 419.5 l 1,34,-1
 185 450.625 l 1,35,-1
 230.5 471 l 1,36,-1
 279.625 482.25 l 1,37,-1
 330 486 l 1,38,-1
 377.125 481.25 l 1,39,-1
 416.5 467 l 1,40,-1
 452.125 442.75 l 1,41,-1
 488 408 l 1,0,-1
  Spiro
    488 408 v
    481 350.25 o
    476 299 o
    473.25 252.125 o
    473 207.5 o
    475.375 163.75 o
    480.5 119.5 o
    495 68 o
    509 34 o
    519.973 10.0797 o
    518.012 -8.54446 o
    507.566 -22.3407 o
    493.082 -31.7771 o
    476.96 -36.488 o
    459.726 -36.8099 o
    441.789 -28.8511 o
    423.56 -8.72002 o
    416.186 4.53489 o
    408.345 17.6142 o
    389 7 o
    344 -14 o
    293.25 -27.75 o
    243 -29 o
    203.875 -23.5 o
    168.5 -9 o
    137.625 12.375 o
    112 38.5 o
    91.625 68.5 o
    76.5 101.5 o
    67.125 135.375 o
    64 168 o
    69.625 252.375 o
    86.5 321.5 o
    112.5 376.75 o
    145.5 419.5 o
    185 450.625 o
    230.5 471 o
    279.625 482.25 o
    330 486 o
    377.125 481.25 o
    416.5 467 o
    452.125 442.75 o
    0 0 z
  EndSpiro
161 198 m 1,42,-1
 162.25 175.125 l 1,43,-1
 166 150.5 l 1,44,-1
 172.375 126.125 l 1,45,-1
 181.5 104 l 1,46,-1
 193.5 84.625 l 1,47,-1
 208.5 68.5 l 1,48,-1
 226.375 57.625 l 1,49,-1
 248 51 l 1,50,-1
 269.375 49 l 1,51,-1
 293.174865862 50.3005325561 l 1,52,-1
 317.32298144 56.6897139639 l 1,53,-1
 341.236528818 66.6506565283 l 1,54,-1
 364.43096055 79.9678056845 l 1,55,-1
 378 88 l 1,56,-1
 394 101 l 1,57,-1
 390 123 l 1,58,-1
 388 150 l 1,59,-1
 384 190 l 1,60,-1
 384.5 227.375 l 1,61,-1
 386 269.5 l 1,62,-1
 389 317.125 l 1,63,-1
 394 371 l 1,64,-1
 375.375 384.875 l 1,65,-1
 357.5 394.5 l 1,66,-1
 336.625 400.125 l 1,67,-1
 309 402 l 1,68,-1
 288.25 399.5 l 1,69,-1
 264 392 l 1,70,-1
 238.875 378.625 l 1,71,-1
 215.5 358.5 l 1,72,-1
 194.625 331.125 l 1,73,-1
 177 296 l 1,74,-1
 165 252 l 1,75,-1
 161 198 l 1,42,-1
  Spiro
    161 198 o
    162.25 175.125 o
    166 150.5 o
    172.375 126.125 o
    181.5 104 o
    193.5 84.625 o
    208.5 68.5 o
    226.375 57.625 o
    248 51 o
    269.375 49 o
    293.175 50.3005 o
    317.323 56.6897 o
    341.237 66.6507 o
    364.431 79.9678 o
    378 88 o
    394 101 c
    390 123 o
    388 150 o
    384 190 v
    384.5 227.375 o
    386 269.5 o
    389 317.125 o
    394 371 v
    375.375 384.875 o
    357.5 394.5 o
    336.625 400.125 o
    309 402 o
    288.25 399.5 o
    264 392 o
    238.875 378.625 o
    215.5 358.5 o
    194.625 331.125 o
    177 296 o
    165 252 o
    0 0 z
  EndSpiro
264 551 m 4,76,77
 237 578 237 578 197.5 620 c 132,-1,78
 158 662 158 662 128 702 c 4,79,80
 115 719 115 719 117 739 c 132,-1,81
 119 759 119 759 128 769 c 4,82,83
 139 779 139 779 163 778 c 4,84,85
 185 777 185 777 198 761 c 4,86,87
 224 725 224 725 255 681 c 132,-1,88
 286 637 286 637 319 607 c 4,89,90
 337 590 337 590 340.5 569.5 c 132,-1,91
 344 549 344 549 333 539 c 4,92,93
 323 529 323 529 303 530.5 c 132,-1,94
 283 532 283 532 264 551 c 4,76,77
EndSplineSet
Validated: 33
EndChar

StartChar: aacute
Encoding: 225 225 58
Width: 550
GlyphClass: 1
Flags: W
LayerCount: 2
Fore
SplineSet
488 408 m 1,0,-1
 481 350.25 l 1,1,-1
 476 299 l 1,2,-1
 473.25 252.125 l 1,3,-1
 473 207.5 l 1,4,-1
 475.375 163.75 l 1,5,-1
 480.5 119.5 l 1,6,-1
 495 68 l 1,7,-1
 509 34 l 1,8,-1
 519.97260755 10.0797155418 l 1,9,-1
 518.012168334 -8.54445700579 l 1,10,-1
 507.566245947 -22.3406822315 l 1,11,-1
 493.082403981 -31.7771247242 l 1,12,-1
 476.959985955 -36.4880308989 l 1,13,-1
 459.72567703 -36.8098940537 l 1,14,-1
 441.789121223 -28.8510960443 l 1,15,-1
 423.559962547 -8.72001872659 l 1,16,-1
 416.186370273 4.53489119337 l 1,17,-1
 408.344613411 17.6142393925 l 1,18,-1
 389 7 l 1,19,-1
 344 -14 l 1,20,-1
 293.25 -27.75 l 1,21,-1
 243 -29 l 1,22,-1
 203.875 -23.5 l 1,23,-1
 168.5 -9 l 1,24,-1
 137.625 12.375 l 1,25,-1
 112 38.5 l 1,26,-1
 91.625 68.5 l 1,27,-1
 76.5 101.5 l 1,28,-1
 67.125 135.375 l 1,29,-1
 64 168 l 1,30,-1
 69.625 252.375 l 1,31,-1
 86.5 321.5 l 1,32,-1
 112.5 376.75 l 1,33,-1
 145.5 419.5 l 1,34,-1
 185 450.625 l 1,35,-1
 230.5 471 l 1,36,-1
 279.625 482.25 l 1,37,-1
 330 486 l 1,38,-1
 377.125 481.25 l 1,39,-1
 416.5 467 l 1,40,-1
 452.125 442.75 l 1,41,-1
 488 408 l 1,0,-1
  Spiro
    488 408 v
    481 350.25 o
    476 299 o
    473.25 252.125 o
    473 207.5 o
    475.375 163.75 o
    480.5 119.5 o
    495 68 o
    509 34 o
    519.973 10.0797 o
    518.012 -8.54446 o
    507.566 -22.3407 o
    493.082 -31.7771 o
    476.96 -36.488 o
    459.726 -36.8099 o
    441.789 -28.8511 o
    423.56 -8.72002 o
    416.186 4.53489 o
    408.345 17.6142 o
    389 7 o
    344 -14 o
    293.25 -27.75 o
    243 -29 o
    203.875 -23.5 o
    168.5 -9 o
    137.625 12.375 o
    112 38.5 o
    91.625 68.5 o
    76.5 101.5 o
    67.125 135.375 o
    64 168 o
    69.625 252.375 o
    86.5 321.5 o
    112.5 376.75 o
    145.5 419.5 o
    185 450.625 o
    230.5 471 o
    279.625 482.25 o
    330 486 o
    377.125 481.25 o
    416.5 467 o
    452.125 442.75 o
    0 0 z
  EndSpiro
161 198 m 1,42,-1
 162.25 175.125 l 1,43,-1
 166 150.5 l 1,44,-1
 172.375 126.125 l 1,45,-1
 181.5 104 l 1,46,-1
 193.5 84.625 l 1,47,-1
 208.5 68.5 l 1,48,-1
 226.375 57.625 l 1,49,-1
 248 51 l 1,50,-1
 269.375 49 l 1,51,-1
 293.174865862 50.3005325561 l 1,52,-1
 317.32298144 56.6897139639 l 1,53,-1
 341.236528818 66.6506565283 l 1,54,-1
 364.43096055 79.9678056845 l 1,55,-1
 378 88 l 1,56,-1
 394 101 l 1,57,-1
 390 123 l 1,58,-1
 388 150 l 1,59,-1
 384 190 l 1,60,-1
 384.5 227.375 l 1,61,-1
 386 269.5 l 1,62,-1
 389 317.125 l 1,63,-1
 394 371 l 1,64,-1
 375.375 384.875 l 1,65,-1
 357.5 394.5 l 1,66,-1
 336.625 400.125 l 1,67,-1
 309 402 l 1,68,-1
 288.25 399.5 l 1,69,-1
 264 392 l 1,70,-1
 238.875 378.625 l 1,71,-1
 215.5 358.5 l 1,72,-1
 194.625 331.125 l 1,73,-1
 177 296 l 1,74,-1
 165 252 l 1,75,-1
 161 198 l 1,42,-1
  Spiro
    161 198 o
    162.25 175.125 o
    166 150.5 o
    172.375 126.125 o
    181.5 104 o
    193.5 84.625 o
    208.5 68.5 o
    226.375 57.625 o
    248 51 o
    269.375 49 o
    293.175 50.3005 o
    317.323 56.6897 o
    341.237 66.6507 o
    364.431 79.9678 o
    378 88 o
    394 101 c
    390 123 o
    388 150 o
    384 190 v
    384.5 227.375 o
    386 269.5 o
    389 317.125 o
    394 371 v
    375.375 384.875 o
    357.5 394.5 o
    336.625 400.125 o
    309 402 o
    288.25 399.5 o
    264 392 o
    238.875 378.625 o
    215.5 358.5 o
    194.625 331.125 o
    177 296 o
    165 252 o
    0 0 z
  EndSpiro
470 702 m 4,76,77
 440 662 440 662 400.5 620 c 132,-1,78
 361 578 361 578 334 551 c 4,79,80
 315 532 315 532 295 530.5 c 132,-1,81
 275 529 275 529 265 539 c 4,82,83
 254 549 254 549 257.5 569.5 c 132,-1,84
 261 590 261 590 279 607 c 4,85,86
 312 637 312 637 343 681 c 4,87,88
 395 755 395 755 400 761 c 4,89,90
 413 777 413 777 435 778 c 4,91,92
 461 779 461 779 470 769 c 132,-1,93
 479 759 479 759 481 739 c 132,-1,94
 483 719 483 719 470 702 c 4,76,77
EndSplineSet
Validated: 33
EndChar

StartChar: acircumflex
Encoding: 226 226 59
Width: 550
GlyphClass: 1
Flags: W
LayerCount: 2
Fore
SplineSet
488 408 m 5,0,-1
 481 350.25 l 5,1,-1
 476 299 l 5,2,-1
 473.25 252.125 l 5,3,-1
 473 207.5 l 5,4,-1
 475.375 163.75 l 5,5,-1
 480.5 119.5 l 5,6,-1
 495 68 l 5,7,-1
 509 34 l 5,8,-1
 519.97260755 10.0797155418 l 5,9,-1
 518.012168334 -8.54445700579 l 5,10,-1
 507.566245947 -22.3406822315 l 5,11,-1
 493.082403981 -31.7771247242 l 5,12,-1
 476.959985955 -36.4880308989 l 5,13,-1
 459.72567703 -36.8098940537 l 5,14,-1
 441.789121223 -28.8510960443 l 5,15,-1
 423.559962547 -8.72001872659 l 5,16,-1
 416.186370273 4.53489119337 l 5,17,-1
 408.344613411 17.6142393925 l 5,18,-1
 389 7 l 5,19,-1
 344 -14 l 5,20,-1
 293.25 -27.75 l 5,21,-1
 243 -29 l 5,22,-1
 203.875 -23.5 l 5,23,-1
 168.5 -9 l 5,24,-1
 137.625 12.375 l 5,25,-1
 112 38.5 l 5,26,-1
 91.625 68.5 l 5,27,-1
 76.5 101.5 l 5,28,-1
 67.125 135.375 l 5,29,-1
 64 168 l 5,30,-1
 69.625 252.375 l 5,31,-1
 86.5 321.5 l 5,32,-1
 112.5 376.75 l 5,33,-1
 145.5 419.5 l 5,34,-1
 185 450.625 l 5,35,-1
 230.5 471 l 5,36,-1
 279.625 482.25 l 5,37,-1
 330 486 l 5,38,-1
 377.125 481.25 l 5,39,-1
 416.5 467 l 5,40,-1
 452.125 442.75 l 5,41,-1
 488 408 l 5,0,-1
  Spiro
    488 408 v
    481 350.25 o
    476 299 o
    473.25 252.125 o
    473 207.5 o
    475.375 163.75 o
    480.5 119.5 o
    495 68 o
    509 34 o
    519.973 10.0797 o
    518.012 -8.54446 o
    507.566 -22.3407 o
    493.082 -31.7771 o
    476.96 -36.488 o
    459.726 -36.8099 o
    441.789 -28.8511 o
    423.56 -8.72002 o
    416.186 4.53489 o
    408.345 17.6142 o
    389 7 o
    344 -14 o
    293.25 -27.75 o
    243 -29 o
    203.875 -23.5 o
    168.5 -9 o
    137.625 12.375 o
    112 38.5 o
    91.625 68.5 o
    76.5 101.5 o
    67.125 135.375 o
    64 168 o
    69.625 252.375 o
    86.5 321.5 o
    112.5 376.75 o
    145.5 419.5 o
    185 450.625 o
    230.5 471 o
    279.625 482.25 o
    330 486 o
    377.125 481.25 o
    416.5 467 o
    452.125 442.75 o
    0 0 z
  EndSpiro
161 198 m 5,42,-1
 162.25 175.125 l 5,43,-1
 166 150.5 l 5,44,-1
 172.375 126.125 l 5,45,-1
 181.5 104 l 5,46,-1
 193.5 84.625 l 5,47,-1
 208.5 68.5 l 5,48,-1
 226.375 57.625 l 5,49,-1
 248 51 l 5,50,-1
 269.375 49 l 5,51,-1
 293.174865862 50.3005325561 l 5,52,-1
 317.32298144 56.6897139639 l 5,53,-1
 341.236528818 66.6506565283 l 5,54,-1
 364.43096055 79.9678056845 l 5,55,-1
 378 88 l 5,56,-1
 394 101 l 5,57,-1
 390 123 l 5,58,-1
 388 150 l 5,59,-1
 384 190 l 5,60,-1
 384.5 227.375 l 5,61,-1
 386 269.5 l 5,62,-1
 389 317.125 l 5,63,-1
 394 371 l 5,64,-1
 375.375 384.875 l 5,65,-1
 357.5 394.5 l 5,66,-1
 336.625 400.125 l 5,67,-1
 309 402 l 5,68,-1
 288.25 399.5 l 5,69,-1
 264 392 l 5,70,-1
 238.875 378.625 l 5,71,-1
 215.5 358.5 l 5,72,-1
 194.625 331.125 l 5,73,-1
 177 296 l 5,74,-1
 165 252 l 5,75,-1
 161 198 l 5,42,-1
  Spiro
    161 198 o
    162.25 175.125 o
    166 150.5 o
    172.375 126.125 o
    181.5 104 o
    193.5 84.625 o
    208.5 68.5 o
    226.375 57.625 o
    248 51 o
    269.375 49 o
    293.175 50.3005 o
    317.323 56.6897 o
    341.237 66.6507 o
    364.431 79.9678 o
    378 88 o
    394 101 c
    390 123 o
    388 150 o
    384 190 v
    384.5 227.375 o
    386 269.5 o
    389 317.125 o
    394 371 v
    375.375 384.875 o
    357.5 394.5 o
    336.625 400.125 o
    309 402 o
    288.25 399.5 o
    264 392 o
    238.875 378.625 o
    215.5 358.5 o
    194.625 331.125 o
    177 296 o
    165 252 o
    0 0 z
  EndSpiro
432 534 m 0,76,77
 427 535 427 535 412 561 c 128,-1,78
 397 587 397 587 376 622 c 128,-1,79
 355 657 355 657 331 696 c 128,-1,80
 307 735 307 735 284 761 c 1,81,82
 263 736 263 736 239.5 697.5 c 128,-1,83
 216 659 216 659 194.5 623.5 c 128,-1,84
 173 588 173 588 156 562 c 128,-1,85
 139 536 139 536 133 534 c 0,86,87
 109 528 109 528 94.5 532.5 c 128,-1,88
 80 537 80 537 73 550 c 0,89,90
 65 562 65 562 69.5 576 c 128,-1,91
 74 590 74 590 88 610 c 0,92,93
 100 627 100 627 122.5 659.5 c 128,-1,94
 145 692 145 692 169.5 727.5 c 128,-1,95
 194 763 194 763 216.5 796 c 128,-1,96
 239 829 239 829 252 848 c 0,97,98
 256 855 256 855 265 856 c 128,-1,99
 274 857 274 857 282 857 c 0,100,101
 289 857 289 857 297 855.5 c 128,-1,102
 305 854 305 854 310 848 c 0,103,104
 323 831 323 831 344 799.5 c 128,-1,105
 365 768 365 768 387 733.5 c 128,-1,106
 409 699 409 699 429 666.5 c 128,-1,107
 449 634 449 634 461 616 c 0,108,109
 475 595 475 595 488.5 577 c 128,-1,110
 502 559 502 559 494 547 c 0,111,112
 487 534 487 534 472 531.5 c 128,-1,113
 457 529 457 529 432 534 c 0,76,77
EndSplineSet
Validated: 33
EndChar

StartChar: atilde
Encoding: 227 227 60
Width: 550
GlyphClass: 1
Flags: W
LayerCount: 2
Fore
SplineSet
488 408 m 5,0,-1
 481 350.25 l 5,1,-1
 476 299 l 5,2,-1
 473.25 252.125 l 5,3,-1
 473 207.5 l 5,4,-1
 475.375 163.75 l 5,5,-1
 480.5 119.5 l 5,6,-1
 495 68 l 5,7,-1
 509 34 l 5,8,-1
 519.97260755 10.0797155418 l 5,9,-1
 518.012168334 -8.54445700579 l 5,10,-1
 507.566245947 -22.3406822315 l 5,11,-1
 493.082403981 -31.7771247242 l 5,12,-1
 476.959985955 -36.4880308989 l 5,13,-1
 459.72567703 -36.8098940537 l 5,14,-1
 441.789121223 -28.8510960443 l 5,15,-1
 423.559962547 -8.72001872659 l 5,16,-1
 416.186370273 4.53489119337 l 5,17,-1
 408.344613411 17.6142393925 l 5,18,-1
 389 7 l 5,19,-1
 344 -14 l 5,20,-1
 293.25 -27.75 l 5,21,-1
 243 -29 l 5,22,-1
 203.875 -23.5 l 5,23,-1
 168.5 -9 l 5,24,-1
 137.625 12.375 l 5,25,-1
 112 38.5 l 5,26,-1
 91.625 68.5 l 5,27,-1
 76.5 101.5 l 5,28,-1
 67.125 135.375 l 5,29,-1
 64 168 l 5,30,-1
 69.625 252.375 l 5,31,-1
 86.5 321.5 l 5,32,-1
 112.5 376.75 l 5,33,-1
 145.5 419.5 l 5,34,-1
 185 450.625 l 5,35,-1
 230.5 471 l 5,36,-1
 279.625 482.25 l 5,37,-1
 330 486 l 5,38,-1
 377.125 481.25 l 5,39,-1
 416.5 467 l 5,40,-1
 452.125 442.75 l 5,41,-1
 488 408 l 5,0,-1
  Spiro
    488 408 v
    481 350.25 o
    476 299 o
    473.25 252.125 o
    473 207.5 o
    475.375 163.75 o
    480.5 119.5 o
    495 68 o
    509 34 o
    519.973 10.0797 o
    518.012 -8.54446 o
    507.566 -22.3407 o
    493.082 -31.7771 o
    476.96 -36.488 o
    459.726 -36.8099 o
    441.789 -28.8511 o
    423.56 -8.72002 o
    416.186 4.53489 o
    408.345 17.6142 o
    389 7 o
    344 -14 o
    293.25 -27.75 o
    243 -29 o
    203.875 -23.5 o
    168.5 -9 o
    137.625 12.375 o
    112 38.5 o
    91.625 68.5 o
    76.5 101.5 o
    67.125 135.375 o
    64 168 o
    69.625 252.375 o
    86.5 321.5 o
    112.5 376.75 o
    145.5 419.5 o
    185 450.625 o
    230.5 471 o
    279.625 482.25 o
    330 486 o
    377.125 481.25 o
    416.5 467 o
    452.125 442.75 o
    0 0 z
  EndSpiro
161 198 m 5,42,-1
 162.25 175.125 l 5,43,-1
 166 150.5 l 5,44,-1
 172.375 126.125 l 5,45,-1
 181.5 104 l 5,46,-1
 193.5 84.625 l 5,47,-1
 208.5 68.5 l 5,48,-1
 226.375 57.625 l 5,49,-1
 248 51 l 5,50,-1
 269.375 49 l 5,51,-1
 293.174865862 50.3005325561 l 5,52,-1
 317.32298144 56.6897139639 l 5,53,-1
 341.236528818 66.6506565283 l 5,54,-1
 364.43096055 79.9678056845 l 5,55,-1
 378 88 l 5,56,-1
 394 101 l 5,57,-1
 390 123 l 5,58,-1
 388 150 l 5,59,-1
 384 190 l 5,60,-1
 384.5 227.375 l 5,61,-1
 386 269.5 l 5,62,-1
 389 317.125 l 5,63,-1
 394 371 l 5,64,-1
 375.375 384.875 l 5,65,-1
 357.5 394.5 l 5,66,-1
 336.625 400.125 l 5,67,-1
 309 402 l 5,68,-1
 288.25 399.5 l 5,69,-1
 264 392 l 5,70,-1
 238.875 378.625 l 5,71,-1
 215.5 358.5 l 5,72,-1
 194.625 331.125 l 5,73,-1
 177 296 l 5,74,-1
 165 252 l 5,75,-1
 161 198 l 5,42,-1
  Spiro
    161 198 o
    162.25 175.125 o
    166 150.5 o
    172.375 126.125 o
    181.5 104 o
    193.5 84.625 o
    208.5 68.5 o
    226.375 57.625 o
    248 51 o
    269.375 49 o
    293.175 50.3005 o
    317.323 56.6897 o
    341.237 66.6507 o
    364.431 79.9678 o
    378 88 o
    394 101 c
    390 123 o
    388 150 o
    384 190 v
    384.5 227.375 o
    386 269.5 o
    389 317.125 o
    394 371 v
    375.375 384.875 o
    357.5 394.5 o
    336.625 400.125 o
    309 402 o
    288.25 399.5 o
    264 392 o
    238.875 378.625 o
    215.5 358.5 o
    194.625 331.125 o
    177 296 o
    165 252 o
    0 0 z
  EndSpiro
447 678 m 0,76,77
 460 674 460 674 461.5 656.5 c 128,-1,78
 463 639 463 639 456 623 c 0,79,80
 429 573 429 573 401.5 551.5 c 128,-1,81
 374 530 374 530 349 530 c 0,82,83
 318 530 318 530 299 544.5 c 128,-1,84
 280 559 280 559 263 582 c 0,85,86
 250 600 250 600 241.5 607 c 128,-1,87
 233 614 233 614 217 614 c 0,88,89
 199 614 199 614 192 602 c 128,-1,90
 185 590 185 590 167 558 c 0,91,92
 161 548 161 548 146 545 c 128,-1,93
 131 542 131 542 120 544 c 0,94,95
 113 545 113 545 107 553.5 c 128,-1,96
 101 562 101 562 104 573 c 0,97,98
 123 627 123 627 151.5 661 c 128,-1,99
 180 695 180 695 208 695 c 0,100,101
 235 695 235 695 254 689 c 128,-1,102
 273 683 273 683 294 652 c 0,103,104
 306 635 306 635 315.5 623 c 128,-1,105
 325 611 325 611 341 611 c 256,106,107
 357 611 357 611 367.5 615 c 128,-1,108
 378 619 378 619 397 652 c 0,109,110
 403 663 403 663 416 673.5 c 128,-1,111
 429 684 429 684 447 678 c 0,76,77
EndSplineSet
Validated: 33
EndChar

StartChar: adieresis
Encoding: 228 228 61
Width: 550
GlyphClass: 1
Flags: W
LayerCount: 2
Fore
SplineSet
488 408 m 1,0,-1
 481 350.25 l 1,1,-1
 476 299 l 1,2,-1
 473.25 252.125 l 1,3,-1
 473 207.5 l 1,4,-1
 475.375 163.75 l 1,5,-1
 480.5 119.5 l 1,6,-1
 495 68 l 1,7,-1
 509 34 l 1,8,-1
 519.97260755 10.0797155418 l 1,9,-1
 518.012168334 -8.54445700579 l 1,10,-1
 507.566245947 -22.3406822315 l 1,11,-1
 493.082403981 -31.7771247242 l 1,12,-1
 476.959985955 -36.4880308989 l 1,13,-1
 459.72567703 -36.8098940537 l 1,14,-1
 441.789121223 -28.8510960443 l 1,15,-1
 423.559962547 -8.72001872659 l 1,16,-1
 416.186370273 4.53489119337 l 1,17,-1
 408.344613411 17.6142393925 l 1,18,-1
 389 7 l 1,19,-1
 344 -14 l 1,20,-1
 293.25 -27.75 l 1,21,-1
 243 -29 l 1,22,-1
 203.875 -23.5 l 1,23,-1
 168.5 -9 l 1,24,-1
 137.625 12.375 l 1,25,-1
 112 38.5 l 1,26,-1
 91.625 68.5 l 1,27,-1
 76.5 101.5 l 1,28,-1
 67.125 135.375 l 1,29,-1
 64 168 l 1,30,-1
 69.625 252.375 l 1,31,-1
 86.5 321.5 l 1,32,-1
 112.5 376.75 l 1,33,-1
 145.5 419.5 l 1,34,-1
 185 450.625 l 1,35,-1
 230.5 471 l 1,36,-1
 279.625 482.25 l 1,37,-1
 330 486 l 1,38,-1
 377.125 481.25 l 1,39,-1
 416.5 467 l 1,40,-1
 452.125 442.75 l 1,41,-1
 488 408 l 1,0,-1
  Spiro
    488 408 v
    481 350.25 o
    476 299 o
    473.25 252.125 o
    473 207.5 o
    475.375 163.75 o
    480.5 119.5 o
    495 68 o
    509 34 o
    519.973 10.0797 o
    518.012 -8.54446 o
    507.566 -22.3407 o
    493.082 -31.7771 o
    476.96 -36.488 o
    459.726 -36.8099 o
    441.789 -28.8511 o
    423.56 -8.72002 o
    416.186 4.53489 o
    408.345 17.6142 o
    389 7 o
    344 -14 o
    293.25 -27.75 o
    243 -29 o
    203.875 -23.5 o
    168.5 -9 o
    137.625 12.375 o
    112 38.5 o
    91.625 68.5 o
    76.5 101.5 o
    67.125 135.375 o
    64 168 o
    69.625 252.375 o
    86.5 321.5 o
    112.5 376.75 o
    145.5 419.5 o
    185 450.625 o
    230.5 471 o
    279.625 482.25 o
    330 486 o
    377.125 481.25 o
    416.5 467 o
    452.125 442.75 o
    0 0 z
  EndSpiro
161 198 m 1,42,-1
 162.25 175.125 l 1,43,-1
 166 150.5 l 1,44,-1
 172.375 126.125 l 1,45,-1
 181.5 104 l 1,46,-1
 193.5 84.625 l 1,47,-1
 208.5 68.5 l 1,48,-1
 226.375 57.625 l 1,49,-1
 248 51 l 1,50,-1
 269.375 49 l 1,51,-1
 293.174865862 50.3005325561 l 1,52,-1
 317.32298144 56.6897139639 l 1,53,-1
 341.236528818 66.6506565283 l 1,54,-1
 364.43096055 79.9678056845 l 1,55,-1
 378 88 l 1,56,-1
 394 101 l 1,57,-1
 390 123 l 1,58,-1
 388 150 l 1,59,-1
 384 190 l 1,60,-1
 384.5 227.375 l 1,61,-1
 386 269.5 l 1,62,-1
 389 317.125 l 1,63,-1
 394 371 l 1,64,-1
 375.375 384.875 l 1,65,-1
 357.5 394.5 l 1,66,-1
 336.625 400.125 l 1,67,-1
 309 402 l 1,68,-1
 288.25 399.5 l 1,69,-1
 264 392 l 1,70,-1
 238.875 378.625 l 1,71,-1
 215.5 358.5 l 1,72,-1
 194.625 331.125 l 1,73,-1
 177 296 l 1,74,-1
 165 252 l 1,75,-1
 161 198 l 1,42,-1
  Spiro
    161 198 o
    162.25 175.125 o
    166 150.5 o
    172.375 126.125 o
    181.5 104 o
    193.5 84.625 o
    208.5 68.5 o
    226.375 57.625 o
    248 51 o
    269.375 49 o
    293.175 50.3005 o
    317.323 56.6897 o
    341.237 66.6507 o
    364.431 79.9678 o
    378 88 o
    394 101 c
    390 123 o
    388 150 o
    384 190 v
    384.5 227.375 o
    386 269.5 o
    389 317.125 o
    394 371 v
    375.375 384.875 o
    357.5 394.5 o
    336.625 400.125 o
    309 402 o
    288.25 399.5 o
    264 392 o
    238.875 378.625 o
    215.5 358.5 o
    194.625 331.125 o
    177 296 o
    165 252 o
    0 0 z
  EndSpiro
396 530 m 4,76,77
 368 527 368 527 351.5 546.5 c 132,-1,78
 335 566 335 566 335 591 c 4,79,80
 335 615 335 615 354 632 c 132,-1,81
 373 649 373 649 396 650 c 4,82,83
 422 651 422 651 437.5 633.5 c 132,-1,84
 453 616 453 616 453 591 c 4,85,86
 453 567 453 567 437.5 550 c 132,-1,87
 422 533 422 533 396 530 c 4,76,77
219 530 m 4,88,89
 191 527 191 527 175 546.5 c 132,-1,90
 159 566 159 566 159 591 c 4,91,92
 159 615 159 615 178 632 c 132,-1,93
 197 649 197 649 219 650 c 4,94,95
 246 651 246 651 261.5 633.5 c 132,-1,96
 277 616 277 616 277 591 c 4,97,98
 277 568 277 568 261.5 550.5 c 132,-1,99
 246 533 246 533 219 530 c 4,88,89
EndSplineSet
Validated: 33
EndChar

StartChar: aring
Encoding: 229 229 62
Width: 550
GlyphClass: 1
Flags: W
LayerCount: 2
Fore
SplineSet
488 408 m 1,0,-1
 481 350.25 l 1,1,-1
 476 299 l 1,2,-1
 473.25 252.125 l 1,3,-1
 473 207.5 l 1,4,-1
 475.375 163.75 l 1,5,-1
 480.5 119.5 l 1,6,-1
 495 68 l 1,7,-1
 509 34 l 1,8,-1
 519.97260755 10.0797155418 l 1,9,-1
 518.012168334 -8.54445700579 l 1,10,-1
 507.566245947 -22.3406822315 l 1,11,-1
 493.082403981 -31.7771247242 l 1,12,-1
 476.959985955 -36.4880308989 l 1,13,-1
 459.72567703 -36.8098940537 l 1,14,-1
 441.789121223 -28.8510960443 l 1,15,-1
 423.559962547 -8.72001872659 l 1,16,-1
 416.186370273 4.53489119337 l 1,17,-1
 408.344613411 17.6142393925 l 1,18,-1
 389 7 l 1,19,-1
 344 -14 l 1,20,-1
 293.25 -27.75 l 1,21,-1
 243 -29 l 1,22,-1
 203.875 -23.5 l 1,23,-1
 168.5 -9 l 1,24,-1
 137.625 12.375 l 1,25,-1
 112 38.5 l 1,26,-1
 91.625 68.5 l 1,27,-1
 76.5 101.5 l 1,28,-1
 67.125 135.375 l 1,29,-1
 64 168 l 1,30,-1
 69.625 252.375 l 1,31,-1
 86.5 321.5 l 1,32,-1
 112.5 376.75 l 1,33,-1
 145.5 419.5 l 1,34,-1
 185 450.625 l 1,35,-1
 230.5 471 l 1,36,-1
 279.625 482.25 l 1,37,-1
 330 486 l 1,38,-1
 377.125 481.25 l 1,39,-1
 416.5 467 l 1,40,-1
 452.125 442.75 l 1,41,-1
 488 408 l 1,0,-1
  Spiro
    488 408 v
    481 350.25 o
    476 299 o
    473.25 252.125 o
    473 207.5 o
    475.375 163.75 o
    480.5 119.5 o
    495 68 o
    509 34 o
    519.973 10.0797 o
    518.012 -8.54446 o
    507.566 -22.3407 o
    493.082 -31.7771 o
    476.96 -36.488 o
    459.726 -36.8099 o
    441.789 -28.8511 o
    423.56 -8.72002 o
    416.186 4.53489 o
    408.345 17.6142 o
    389 7 o
    344 -14 o
    293.25 -27.75 o
    243 -29 o
    203.875 -23.5 o
    168.5 -9 o
    137.625 12.375 o
    112 38.5 o
    91.625 68.5 o
    76.5 101.5 o
    67.125 135.375 o
    64 168 o
    69.625 252.375 o
    86.5 321.5 o
    112.5 376.75 o
    145.5 419.5 o
    185 450.625 o
    230.5 471 o
    279.625 482.25 o
    330 486 o
    377.125 481.25 o
    416.5 467 o
    452.125 442.75 o
    0 0 z
  EndSpiro
161 198 m 1,42,-1
 162.25 175.125 l 1,43,-1
 166 150.5 l 1,44,-1
 172.375 126.125 l 1,45,-1
 181.5 104 l 1,46,-1
 193.5 84.625 l 1,47,-1
 208.5 68.5 l 1,48,-1
 226.375 57.625 l 1,49,-1
 248 51 l 1,50,-1
 269.375 49 l 1,51,-1
 293.174865862 50.3005325561 l 1,52,-1
 317.32298144 56.6897139639 l 1,53,-1
 341.236528818 66.6506565283 l 1,54,-1
 364.43096055 79.9678056845 l 1,55,-1
 378 88 l 1,56,-1
 394 101 l 1,57,-1
 390 123 l 1,58,-1
 388 150 l 1,59,-1
 384 190 l 1,60,-1
 384.5 227.375 l 1,61,-1
 386 269.5 l 1,62,-1
 389 317.125 l 1,63,-1
 394 371 l 1,64,-1
 375.375 384.875 l 1,65,-1
 357.5 394.5 l 1,66,-1
 336.625 400.125 l 1,67,-1
 309 402 l 1,68,-1
 288.25 399.5 l 1,69,-1
 264 392 l 1,70,-1
 238.875 378.625 l 1,71,-1
 215.5 358.5 l 1,72,-1
 194.625 331.125 l 1,73,-1
 177 296 l 1,74,-1
 165 252 l 1,75,-1
 161 198 l 1,42,-1
  Spiro
    161 198 o
    162.25 175.125 o
    166 150.5 o
    172.375 126.125 o
    181.5 104 o
    193.5 84.625 o
    208.5 68.5 o
    226.375 57.625 o
    248 51 o
    269.375 49 o
    293.175 50.3005 o
    317.323 56.6897 o
    341.237 66.6507 o
    364.431 79.9678 o
    378 88 o
    394 101 c
    390 123 o
    388 150 o
    384 190 v
    384.5 227.375 o
    386 269.5 o
    389 317.125 o
    394 371 v
    375.375 384.875 o
    357.5 394.5 o
    336.625 400.125 o
    309 402 o
    288.25 399.5 o
    264 392 o
    238.875 378.625 o
    215.5 358.5 o
    194.625 331.125 o
    177 296 o
    165 252 o
    0 0 z
  EndSpiro
305 530 m 4,76,77
 256 530 256 530 229 558 c 132,-1,78
 202 586 202 586 202 628 c 4,79,80
 202 644 202 644 207 661.5 c 132,-1,81
 212 679 212 679 225.5 694 c 132,-1,82
 239 709 239 709 261.5 719 c 132,-1,83
 284 729 284 729 318 729 c 4,84,85
 377 729 377 729 395 696.5 c 132,-1,86
 413 664 413 664 413 617 c 4,87,88
 413 586 413 586 380 558 c 132,-1,89
 347 530 347 530 305 530 c 4,76,77
312 581 m 4,90,91
 328 581 328 581 342.5 595.5 c 132,-1,92
 357 610 357 610 357 626 c 4,93,94
 357 637 357 637 349 658.5 c 132,-1,95
 341 680 341 680 314 680 c 4,96,97
 289 680 289 680 276.5 663.5 c 132,-1,98
 264 647 264 647 265 627 c 4,99,100
 266 610 266 610 277 595.5 c 132,-1,101
 288 581 288 581 312 581 c 4,90,91
EndSplineSet
Validated: 33
EndChar

StartChar: b
Encoding: 98 98 63
Width: 550
GlyphClass: 1
Flags: W
LayerCount: 2
Fore
SplineSet
505 258 m 0,0,1
 506 192 506 192 489 141 c 128,-1,2
 472 90 472 90 443.5 56 c 128,-1,3
 415 22 415 22 377.5 4.5 c 128,-1,4
 340 -13 340 -13 302 -13 c 0,5,6
 256 -13 256 -13 220.5 -0.5 c 128,-1,7
 185 12 185 12 160 31 c 1,8,9
 158 6 158 6 145.5 -1.5 c 128,-1,10
 133 -9 133 -9 119 -10 c 0,11,12
 103 -11 103 -11 88 -1.5 c 128,-1,13
 73 8 73 8 73 41 c 0,14,15
 73 103 73 103 72.5 192 c 128,-1,16
 72 281 72 281 72.5 371 c 128,-1,17
 73 461 73 461 74 541.5 c 128,-1,18
 75 622 75 622 76 666 c 0,19,20
 76 697 76 697 88 707 c 128,-1,21
 100 717 100 717 116 718 c 0,22,23
 134 719 134 719 150 709 c 128,-1,24
 166 699 166 699 165 666 c 0,25,26
 165 641 165 641 164.5 580.5 c 128,-1,27
 164 520 164 520 164 445 c 1,28,29
 190 463 190 463 225 475 c 128,-1,30
 260 487 260 487 309 487 c 0,31,32
 356 486 356 486 393 468.5 c 128,-1,33
 430 451 430 451 455 421 c 128,-1,34
 480 391 480 391 493 349 c 128,-1,35
 506 307 506 307 505 258 c 0,0,1
288 410 m 0,36,37
 249 411 249 411 217 395.5 c 128,-1,38
 185 380 185 380 163 361 c 1,39,40
 163 292 163 292 162.5 224.5 c 128,-1,41
 162 157 162 157 161 107 c 1,42,43
 183 85 183 85 211 76 c 128,-1,44
 239 67 239 67 276 67 c 0,45,46
 344 67 344 67 380 117.5 c 128,-1,47
 416 168 416 168 415 250 c 0,48,49
 414 281 414 281 405.5 309.5 c 128,-1,50
 397 338 397 338 381 360 c 128,-1,51
 365 382 365 382 341.5 395.5 c 128,-1,52
 318 409 318 409 288 410 c 0,36,37
EndSplineSet
Validated: 33
EndChar

StartChar: c
Encoding: 99 99 64
Width: 550
GlyphClass: 1
InSpiro: 1
Flags: W
LayerCount: 2
Fore
SplineSet
449.475694157 455.373341532 m 1,0,-1
 470.311332135 435.341696191 l 1,1,-1
 477.877665575 416.008661684 l 1,2,-1
 476.513343837 397.922983615 l 1,3,-1
 470.55701628 381.633407592 l 1,4,-1
 458.780022106 367.287048011 l 1,5,-1
 443.098329535 357.503125325 l 1,6,-1
 423.272206219 356.227210267 l 1,7,-1
 400 371 l 1,8,-1
 382 388 l 1,9,-1
 365 401 l 1,10,-1
 338 410 l 1,11,-1
 309 408 l 1,12,-1
 288.75 405.625 l 1,13,-1
 266 398.5 l 1,14,-1
 242.625 385.625 l 1,15,-1
 220.5 366 l 1,16,-1
 200.25 338.875 l 1,17,-1
 182.5 303.5 l 1,18,-1
 163 264 l 1,19,-1
 156 208 l 1,20,-1
 155.75 185.875 l 1,21,-1
 157 161.5 l 1,22,-1
 161.125 136.875 l 1,23,-1
 176.5 111 l 1,24,-1
 190 90.5 l 1,25,-1
 209.5 73 l 1,26,-1
 235.875 60.5 l 1,27,-1
 270 55 l 1,28,-1
 315 53 l 1,29,-1
 352.618753359 60.6913926388 l 1,30,-1
 401 86 l 1,31,-1
 422 98 l 1,32,-1
 445.657356137 105.879907634 l 1,33,-1
 462.941641793 99.8007140707 l 1,34,-1
 476.479239942 89.1090555771 l 1,35,-1
 485.494774459 75.1190542413 l 1,36,-1
 489.212869217 59.1448321517 l 1,37,-1
 483.3919411 40.9190455884 l 1,38,-1
 465 22 l 1,39,-1
 449.881897272 11.7124543792 l 1,40,-1
 428 0 l 1,41,-1
 399.763598011 -11.4553825707 l 1,42,-1
 369.587672407 -21.4674572259 l 1,43,-1
 334.414440827 -28.5064134861 l 1,44,-1
 293.985678167 -31.2930153309 l 1,45,-1
 259 -29 l 1,46,-1
 214.75 -23.875 l 1,47,-1
 176 -10.5 l 1,48,-1
 143 9.625 l 1,49,-1
 116 35 l 1,50,-1
 94.875 65.125 l 1,51,-1
 79.5 99.5 l 1,52,-1
 70.375 136.375 l 1,53,-1
 68 174 l 1,54,-1
 74.25 249.875 l 1,55,-1
 93.5 313.5 l 1,56,-1
 119.125 368.625 l 1,57,-1
 152 413 l 1,58,-1
 188.625 449.125 l 1,59,-1
 230 479 l 1,60,-1
 283 494 l 1,61,-1
 330 493 l 1,62,-1
 375 488 l 1,63,-1
 416 474 l 1,64,-1
 449.475694157 455.373341532 l 1,0,-1
  Spiro
    449.476 455.373 o
    470.311 435.342 o
    477.878 416.009 o
    476.513 397.923 o
    470.557 381.633 o
    458.78 367.287 o
    443.098 357.503 o
    423.272 356.227 o
    400 371 o
    382 388 o
    365 401 o
    338 410 o
    309 408 o
    288.75 405.625 o
    266 398.5 o
    242.625 385.625 o
    220.5 366 o
    200.25 338.875 o
    182.5 303.5 o
    163 264 o
    156 208 o
    155.75 185.875 o
    157 161.5 o
    161.125 136.875 o
    176.5 111 o
    190 90.5 o
    209.5 73 o
    235.875 60.5 o
    270 55 o
    315 53 o
    352.619 60.6914 o
    401 86 o
    422 98 o
    445.657 105.88 o
    462.942 99.8007 o
    476.479 89.1091 o
    485.495 75.1191 o
    489.213 59.1448 o
    483.392 40.919 o
    465 22 o
    449.882 11.7125 o
    428 0 o
    399.764 -11.4554 o
    369.588 -21.4675 o
    334.414 -28.5064 o
    293.986 -31.293 o
    259 -29 o
    214.75 -23.875 o
    176 -10.5 o
    143 9.625 o
    116 35 o
    94.875 65.125 o
    79.5 99.5 o
    70.375 136.375 o
    68 174 o
    74.25 249.875 o
    93.5 313.5 o
    119.125 368.625 o
    152 413 o
    188.625 449.125 o
    230 479 o
    283 494 o
    330 493 o
    375 488 o
    416 474 o
    0 0 z
  EndSpiro
EndSplineSet
Validated: 1
EndChar

StartChar: ccedilla
Encoding: 231 231 65
Width: 550
GlyphClass: 1
Flags: W
LayerCount: 2
Fore
SplineSet
313 -29.982421875 m 20,0,-1
 320 -40.625 l 1,1,-1
 333 -53.5 l 1,2,-1
 348.125 -65.875 l 1,3,-1
 363.5 -78 l 1,4,-1
 378 -90.5 l 1,5,-1
 390.5 -104 l 1,6,-1
 399.125 -118.75 l 1,7,-1
 402 -135 l 1,8,-1
 400.5 -155.125 l 1,9,-1
 396 -175.5 l 1,10,-1
 387.875 -195 l 1,11,-1
 375.5 -212.5 l 1,12,-1
 358.5 -227.5 l 1,13,-1
 336.5 -239.5 l 1,14,-1
 308.875 -247.375 l 1,15,-1
 275 -250 l 1,16,-1
 231.5 -245.5 l 1,17,-1
 201 -232 l 1,18,-1
 179.75 -212.5 l 1,19,-1
 164 -190 l 1,20,-1
 157.625 -172.625 l 1,21,-1
 158.5 -154.5 l 1,22,-1
 164.625 -139.375 l 1,23,-1
 174 -131 l 1,24,-1
 186.875 -127.125 l 1,25,-1
 199.5 -127.5 l 1,26,-1
 211.125 -133.875 l 1,27,-1
 221 -148 l 1,28,-1
 229.75 -163.375 l 1,29,-1
 242 -177.5 l 1,30,-1
 258.75 -187.625 l 1,31,-1
 281 -191 l 1,32,-1
 304.125 -188 l 1,33,-1
 319.5 -179 l 1,34,-1
 328.125 -164.25 l 1,35,-1
 331 -144 l 1,36,-1
 327.5 -126 l 1,37,-1
 317 -112 l 1,38,-1
 302.25 -100.25 l 1,39,-1
 286 -89 l 1,40,-1
 269.625 -77.375 l 1,41,-1
 254.5 -64.5 l 1,42,-1
 243.125 -48.625 l 1,43,-1
 238 -26.5677966102 l 1,44,-1
 231 -25.87890625 l 17,45,-1
 214.75 -23.875 l 1,46,-1
 176 -10.5 l 1,47,-1
 143 9.625 l 1,48,-1
 116 35 l 1,49,-1
 94.875 65.125 l 1,50,-1
 79.5 99.5 l 1,51,-1
 70.375 136.375 l 1,52,-1
 68 174 l 1,53,-1
 74.25 249.875 l 1,54,-1
 93.5 313.5 l 1,55,-1
 119.125 368.625 l 1,56,-1
 152 413 l 1,57,-1
 188.625 449.125 l 1,58,-1
 230 479 l 1,59,-1
 283 494 l 1,60,-1
 330 493 l 1,61,-1
 375 488 l 1,62,-1
 416 474 l 8,63,-1
 449.476 455.373 l 1,64,-1
 470.311 435.342 l 1,65,-1
 477.878 416.009 l 1,66,-1
 476.513 397.923 l 1,67,-1
 470.557 381.633 l 1,68,-1
 458.78 367.287 l 1,69,-1
 443.098 357.503 l 1,70,-1
 423.272 356.227 l 1,71,-1
 400 371 l 1,72,-1
 382 388 l 1,73,-1
 365 401 l 1,74,-1
 338 410 l 1,75,-1
 309 408 l 1,76,-1
 288.75 405.625 l 1,77,-1
 266 398.5 l 1,78,-1
 242.625 385.625 l 1,79,-1
 220.5 366 l 1,80,-1
 200.25 338.875 l 1,81,-1
 182.5 303.5 l 1,82,-1
 163 264 l 1,83,-1
 156 208 l 1,84,-1
 155.75 185.875 l 1,85,-1
 157 161.5 l 1,86,-1
 161.125 136.875 l 1,87,-1
 176.5 111 l 1,88,-1
 190 90.5 l 1,89,-1
 209.5 73 l 1,90,-1
 235.875 60.5 l 1,91,-1
 270 55 l 1,92,-1
 315 53 l 1,93,-1
 352.619 60.6914 l 1,94,-1
 401 86 l 1,95,-1
 422 98 l 1,96,-1
 445.657 105.88 l 1,97,-1
 462.942 99.8007 l 1,98,-1
 476.479 89.1091 l 1,99,-1
 485.495 75.1191 l 1,100,-1
 489.213 59.1448 l 1,101,-1
 483.392 40.919 l 1,102,-1
 465 22 l 1,103,-1
 449.882 11.7125 l 1,104,-1
 428 0 l 1,105,-1
 399.764 -11.4554 l 1,106,-1
 369.588 -21.4675 l 1,107,-1
 334.414 -28.5064 l 1,108,-1
 313 -29.982421875 l 20,0,-1
EndSplineSet
Validated: 1
EndChar

StartChar: d
Encoding: 100 100 66
Width: 550
GlyphClass: 1
Flags: W
LayerCount: 2
Fore
SplineSet
510 31 m 4,0,1
 507 12 507 12 495 3.5 c 132,-1,2
 483 -5 483 -5 468 -8 c 4,3,4
 437 -14 437 -14 424 7 c 132,-1,5
 411 28 411 28 408 60 c 5,6,7
 389 32 389 32 357.5 9.5 c 132,-1,8
 326 -13 326 -13 269 -13 c 4,9,10
 231 -13 231 -13 192.5 4 c 132,-1,11
 154 21 154 21 124 54.5 c 132,-1,12
 94 88 94 88 76 138.5 c 132,-1,13
 58 189 58 189 59 255 c 4,14,15
 58 302 58 302 72 342.5 c 132,-1,16
 86 383 86 383 112.5 413 c 132,-1,17
 139 443 139 443 177 460 c 132,-1,18
 215 477 215 477 262 478 c 4,19,20
 308 478 308 478 344.5 466.5 c 132,-1,21
 381 455 381 455 406 438 c 5,22,23
 407 513 407 513 408.5 574 c 132,-1,24
 410 635 410 635 412 661 c 4,25,26
 415 697 415 697 430.5 708 c 132,-1,27
 446 719 446 719 462 719 c 4,28,29
 478 718 478 718 490.5 707.5 c 132,-1,30
 503 697 503 697 501 661 c 4,31,32
 500 636 500 636 497.5 580 c 132,-1,33
 495 524 495 524 493.5 459.5 c 132,-1,34
 492 395 492 395 490.5 331.5 c 132,-1,35
 489 268 489 268 489 227 c 4,36,37
 490 169 490 169 494 134.5 c 132,-1,38
 498 100 498 100 502 80.5 c 132,-1,39
 506 61 506 61 508.5 51 c 132,-1,40
 511 41 511 41 510 31 c 4,0,1
278 70 m 4,41,42
 307 70 307 70 327 78 c 132,-1,43
 347 86 347 86 361 99 c 132,-1,44
 375 112 375 112 385 128 c 132,-1,45
 395 144 395 144 403 158 c 5,46,47
 403 180 403 180 402.5 204 c 132,-1,48
 402 228 402 228 403 253 c 4,49,50
 403 269 403 269 403.5 284.5 c 132,-1,51
 404 300 404 300 404 316 c 5,52,53
 385 347 385 347 351 372 c 132,-1,54
 317 397 317 397 276 396 c 4,55,56
 216 394 216 394 183 349 c 132,-1,57
 150 304 150 304 149 247 c 4,58,59
 148 164 148 164 182 116.5 c 132,-1,60
 216 69 216 69 278 70 c 4,41,42
EndSplineSet
Validated: 33
EndChar

StartChar: e
Encoding: 101 101 67
Width: 550
GlyphClass: 1
Flags: W
LayerCount: 2
Fore
SplineSet
479 56 m 4,0,1
 453 20 453 20 407.5 -3.5 c 132,-1,2
 362 -27 362 -27 265 -26 c 4,3,4
 172 -25 172 -25 120.5 41.5 c 132,-1,5
 69 108 69 108 70 222 c 4,6,7
 71 285 71 285 90 335 c 132,-1,8
 109 385 109 385 140.5 418.5 c 132,-1,9
 172 452 172 452 216 469.5 c 132,-1,10
 260 487 260 487 310 487 c 4,11,12
 331 487 331 487 357 477.5 c 132,-1,13
 383 468 383 468 407 451.5 c 132,-1,14
 431 435 431 435 451 411.5 c 132,-1,15
 471 388 471 388 480 361 c 4,16,17
 483 348 483 348 478.5 334 c 132,-1,18
 474 320 474 320 466 307.5 c 132,-1,19
 458 295 458 295 448 284.5 c 132,-1,20
 438 274 438 274 431 269 c 4,21,22
 408 252 408 252 372 235.5 c 132,-1,23
 336 219 336 219 298 204 c 132,-1,24
 260 189 260 189 224 177 c 132,-1,25
 188 165 188 165 164 156 c 5,26,27
 171 113 171 113 194.5 82.5 c 132,-1,28
 218 52 218 52 270 50 c 4,29,30
 297 49 297 49 320.5 56.5 c 132,-1,31
 344 64 344 64 361 73.5 c 132,-1,32
 378 83 378 83 389 92.5 c 132,-1,33
 400 102 400 102 402 105 c 4,34,35
 424 134 424 134 442 136.5 c 132,-1,36
 460 139 460 139 474 129 c 260,37,38
 488 119 488 119 494 101.5 c 132,-1,39
 500 84 500 84 479 56 c 4,0,1
290 414 m 4,40,41
 271 414 271 414 249.5 405 c 132,-1,42
 228 396 228 396 209 376 c 132,-1,43
 190 356 190 356 177 324.5 c 132,-1,44
 164 293 164 293 161 249 c 5,45,46
 171 252 171 252 201 259.5 c 132,-1,47
 231 267 231 267 266 279 c 132,-1,48
 301 291 301 291 335 306 c 132,-1,49
 369 321 369 321 388 338 c 5,50,51
 366 382 366 382 342 398 c 132,-1,52
 318 414 318 414 290 414 c 4,40,41
EndSplineSet
Validated: 33
EndChar

